%TF.GenerationSoftware,KiCad,Pcbnew,5.1.6-c6e7f7d~87~ubuntu20.04.1*%
%TF.CreationDate,2020-08-02T23:19:43+02:00*%
%TF.ProjectId,ErgoDOX,4572676f-444f-4582-9e6b-696361645f70,rev?*%
%TF.SameCoordinates,Original*%
%TF.FileFunction,Legend,Bot*%
%TF.FilePolarity,Positive*%
%FSLAX46Y46*%
G04 Gerber Fmt 4.6, Leading zero omitted, Abs format (unit mm)*
G04 Created by KiCad (PCBNEW 5.1.6-c6e7f7d~87~ubuntu20.04.1) date 2020-08-02 23:19:43*
%MOMM*%
%LPD*%
G01*
G04 APERTURE LIST*
%ADD10C,0.304800*%
%ADD11C,2.032000*%
%ADD12C,0.508000*%
%ADD13C,0.120000*%
%ADD14C,0.381000*%
%ADD15C,0.150000*%
G04 APERTURE END LIST*
D10*
X109451428Y-36394028D02*
X110177142Y-36394028D01*
X110177142Y-34870028D01*
X108943428Y-35595742D02*
X108435428Y-35595742D01*
X108217714Y-36394028D02*
X108943428Y-36394028D01*
X108943428Y-34870028D01*
X108217714Y-34870028D01*
X107056571Y-35595742D02*
X107564571Y-35595742D01*
X107564571Y-36394028D02*
X107564571Y-34870028D01*
X106838857Y-34870028D01*
X106476000Y-34870028D02*
X105605142Y-34870028D01*
X106040571Y-36394028D02*
X106040571Y-34870028D01*
X110648857Y-38984828D02*
X110648857Y-37460828D01*
X110648857Y-38186542D02*
X109778000Y-38186542D01*
X109778000Y-38984828D02*
X109778000Y-37460828D01*
X109124857Y-38549400D02*
X108399142Y-38549400D01*
X109270000Y-38984828D02*
X108762000Y-37460828D01*
X108254000Y-38984828D01*
X107746000Y-38984828D02*
X107746000Y-37460828D01*
X106875142Y-38984828D01*
X106875142Y-37460828D01*
X106149428Y-38984828D02*
X106149428Y-37460828D01*
X105786571Y-37460828D01*
X105568857Y-37533400D01*
X105423714Y-37678542D01*
X105351142Y-37823685D01*
X105278571Y-38113971D01*
X105278571Y-38331685D01*
X105351142Y-38621971D01*
X105423714Y-38767114D01*
X105568857Y-38912257D01*
X105786571Y-38984828D01*
X106149428Y-38984828D01*
X182639022Y-50295742D02*
X182131022Y-50295742D01*
X181913308Y-51094028D02*
X182639022Y-51094028D01*
X182639022Y-49570028D01*
X181913308Y-49570028D01*
X181260165Y-51094028D02*
X181260165Y-50078028D01*
X181260165Y-50368314D02*
X181187594Y-50223171D01*
X181115022Y-50150600D01*
X180969880Y-50078028D01*
X180824737Y-50078028D01*
X179663594Y-50078028D02*
X179663594Y-51311742D01*
X179736165Y-51456885D01*
X179808737Y-51529457D01*
X179953880Y-51602028D01*
X180171594Y-51602028D01*
X180316737Y-51529457D01*
X179663594Y-51021457D02*
X179808737Y-51094028D01*
X180099022Y-51094028D01*
X180244165Y-51021457D01*
X180316737Y-50948885D01*
X180389308Y-50803742D01*
X180389308Y-50368314D01*
X180316737Y-50223171D01*
X180244165Y-50150600D01*
X180099022Y-50078028D01*
X179808737Y-50078028D01*
X179663594Y-50150600D01*
X178720165Y-51094028D02*
X178865308Y-51021457D01*
X178937880Y-50948885D01*
X179010451Y-50803742D01*
X179010451Y-50368314D01*
X178937880Y-50223171D01*
X178865308Y-50150600D01*
X178720165Y-50078028D01*
X178502451Y-50078028D01*
X178357308Y-50150600D01*
X178284737Y-50223171D01*
X178212165Y-50368314D01*
X178212165Y-50803742D01*
X178284737Y-50948885D01*
X178357308Y-51021457D01*
X178502451Y-51094028D01*
X178720165Y-51094028D01*
X177704165Y-49570028D02*
X176688165Y-49570028D01*
X177341308Y-51094028D01*
X176180165Y-49715171D02*
X176107594Y-49642600D01*
X175962451Y-49570028D01*
X175599594Y-49570028D01*
X175454451Y-49642600D01*
X175381880Y-49715171D01*
X175309308Y-49860314D01*
X175309308Y-50005457D01*
X175381880Y-50223171D01*
X176252737Y-51094028D01*
X175309308Y-51094028D01*
X173495022Y-51094028D02*
X173495022Y-49570028D01*
X173495022Y-50150600D02*
X173349880Y-50078028D01*
X173059594Y-50078028D01*
X172914451Y-50150600D01*
X172841880Y-50223171D01*
X172769308Y-50368314D01*
X172769308Y-50803742D01*
X172841880Y-50948885D01*
X172914451Y-51021457D01*
X173059594Y-51094028D01*
X173349880Y-51094028D01*
X173495022Y-51021457D01*
X172261308Y-50078028D02*
X171898451Y-51094028D01*
X171535594Y-50078028D02*
X171898451Y-51094028D01*
X172043594Y-51456885D01*
X172116165Y-51529457D01*
X172261308Y-51602028D01*
X169213308Y-51021457D02*
X169358451Y-51094028D01*
X169648737Y-51094028D01*
X169793880Y-51021457D01*
X169866451Y-50876314D01*
X169866451Y-50295742D01*
X169793880Y-50150600D01*
X169648737Y-50078028D01*
X169358451Y-50078028D01*
X169213308Y-50150600D01*
X169140737Y-50295742D01*
X169140737Y-50440885D01*
X169866451Y-50586028D01*
X168487594Y-51094028D02*
X168487594Y-50078028D01*
X168487594Y-50223171D02*
X168415022Y-50150600D01*
X168269880Y-50078028D01*
X168052165Y-50078028D01*
X167907022Y-50150600D01*
X167834451Y-50295742D01*
X167834451Y-51094028D01*
X167834451Y-50295742D02*
X167761880Y-50150600D01*
X167616737Y-50078028D01*
X167399022Y-50078028D01*
X167253880Y-50150600D01*
X167181308Y-50295742D01*
X167181308Y-51094028D01*
X165875022Y-51021457D02*
X166020165Y-51094028D01*
X166310451Y-51094028D01*
X166455594Y-51021457D01*
X166528165Y-50876314D01*
X166528165Y-50295742D01*
X166455594Y-50150600D01*
X166310451Y-50078028D01*
X166020165Y-50078028D01*
X165875022Y-50150600D01*
X165802451Y-50295742D01*
X165802451Y-50440885D01*
X166528165Y-50586028D01*
X165149308Y-51094028D02*
X165149308Y-50078028D01*
X165149308Y-50368314D02*
X165076737Y-50223171D01*
X165004165Y-50150600D01*
X164859022Y-50078028D01*
X164713880Y-50078028D01*
X164351022Y-50078028D02*
X163988165Y-51094028D01*
X163625308Y-50078028D02*
X163988165Y-51094028D01*
X164133308Y-51456885D01*
X164205880Y-51529457D01*
X164351022Y-51602028D01*
X163262451Y-50078028D02*
X162681880Y-50078028D01*
X163044737Y-49570028D02*
X163044737Y-50876314D01*
X162972165Y-51021457D01*
X162827022Y-51094028D01*
X162681880Y-51094028D01*
X162173880Y-51094028D02*
X162173880Y-49570028D01*
X161520737Y-51094028D02*
X161520737Y-50295742D01*
X161593308Y-50150600D01*
X161738451Y-50078028D01*
X161956165Y-50078028D01*
X162101308Y-50150600D01*
X162173880Y-50223171D01*
X160795022Y-50948885D02*
X160722451Y-51021457D01*
X160795022Y-51094028D01*
X160867594Y-51021457D01*
X160795022Y-50948885D01*
X160795022Y-51094028D01*
X160069308Y-50078028D02*
X160069308Y-51094028D01*
X160069308Y-50223171D02*
X159996737Y-50150600D01*
X159851594Y-50078028D01*
X159633880Y-50078028D01*
X159488737Y-50150600D01*
X159416165Y-50295742D01*
X159416165Y-51094028D01*
X158109880Y-51021457D02*
X158255022Y-51094028D01*
X158545308Y-51094028D01*
X158690451Y-51021457D01*
X158763022Y-50876314D01*
X158763022Y-50295742D01*
X158690451Y-50150600D01*
X158545308Y-50078028D01*
X158255022Y-50078028D01*
X158109880Y-50150600D01*
X158037308Y-50295742D01*
X158037308Y-50440885D01*
X158763022Y-50586028D01*
X157601880Y-50078028D02*
X157021308Y-50078028D01*
X157384165Y-49570028D02*
X157384165Y-50876314D01*
X157311594Y-51021457D01*
X157166451Y-51094028D01*
X157021308Y-51094028D01*
X182639022Y-53684828D02*
X182639022Y-52160828D01*
X182639022Y-52741400D02*
X182493880Y-52668828D01*
X182203594Y-52668828D01*
X182058451Y-52741400D01*
X181985880Y-52813971D01*
X181913308Y-52959114D01*
X181913308Y-53394542D01*
X181985880Y-53539685D01*
X182058451Y-53612257D01*
X182203594Y-53684828D01*
X182493880Y-53684828D01*
X182639022Y-53612257D01*
X180607022Y-53684828D02*
X180607022Y-52886542D01*
X180679594Y-52741400D01*
X180824737Y-52668828D01*
X181115022Y-52668828D01*
X181260165Y-52741400D01*
X180607022Y-53612257D02*
X180752165Y-53684828D01*
X181115022Y-53684828D01*
X181260165Y-53612257D01*
X181332737Y-53467114D01*
X181332737Y-53321971D01*
X181260165Y-53176828D01*
X181115022Y-53104257D01*
X180752165Y-53104257D01*
X180607022Y-53031685D01*
X179953880Y-53612257D02*
X179808737Y-53684828D01*
X179518451Y-53684828D01*
X179373308Y-53612257D01*
X179300737Y-53467114D01*
X179300737Y-53394542D01*
X179373308Y-53249400D01*
X179518451Y-53176828D01*
X179736165Y-53176828D01*
X179881308Y-53104257D01*
X179953880Y-52959114D01*
X179953880Y-52886542D01*
X179881308Y-52741400D01*
X179736165Y-52668828D01*
X179518451Y-52668828D01*
X179373308Y-52741400D01*
X178067022Y-53612257D02*
X178212165Y-53684828D01*
X178502451Y-53684828D01*
X178647594Y-53612257D01*
X178720165Y-53467114D01*
X178720165Y-52886542D01*
X178647594Y-52741400D01*
X178502451Y-52668828D01*
X178212165Y-52668828D01*
X178067022Y-52741400D01*
X177994451Y-52886542D01*
X177994451Y-53031685D01*
X178720165Y-53176828D01*
X176688165Y-53684828D02*
X176688165Y-52160828D01*
X176688165Y-53612257D02*
X176833308Y-53684828D01*
X177123594Y-53684828D01*
X177268737Y-53612257D01*
X177341308Y-53539685D01*
X177413880Y-53394542D01*
X177413880Y-52959114D01*
X177341308Y-52813971D01*
X177268737Y-52741400D01*
X177123594Y-52668828D01*
X176833308Y-52668828D01*
X176688165Y-52741400D01*
X174583594Y-53684828D02*
X174728737Y-53612257D01*
X174801308Y-53539685D01*
X174873880Y-53394542D01*
X174873880Y-52959114D01*
X174801308Y-52813971D01*
X174728737Y-52741400D01*
X174583594Y-52668828D01*
X174365880Y-52668828D01*
X174220737Y-52741400D01*
X174148165Y-52813971D01*
X174075594Y-52959114D01*
X174075594Y-53394542D01*
X174148165Y-53539685D01*
X174220737Y-53612257D01*
X174365880Y-53684828D01*
X174583594Y-53684828D01*
X173422451Y-52668828D02*
X173422451Y-53684828D01*
X173422451Y-52813971D02*
X173349880Y-52741400D01*
X173204737Y-52668828D01*
X172987022Y-52668828D01*
X172841880Y-52741400D01*
X172769308Y-52886542D01*
X172769308Y-53684828D01*
X170882451Y-52886542D02*
X170374451Y-52886542D01*
X170156737Y-53684828D02*
X170882451Y-53684828D01*
X170882451Y-52160828D01*
X170156737Y-52160828D01*
X169503594Y-53684828D02*
X169503594Y-52668828D01*
X169503594Y-52959114D02*
X169431022Y-52813971D01*
X169358451Y-52741400D01*
X169213308Y-52668828D01*
X169068165Y-52668828D01*
X167907022Y-52668828D02*
X167907022Y-53902542D01*
X167979594Y-54047685D01*
X168052165Y-54120257D01*
X168197308Y-54192828D01*
X168415022Y-54192828D01*
X168560165Y-54120257D01*
X167907022Y-53612257D02*
X168052165Y-53684828D01*
X168342451Y-53684828D01*
X168487594Y-53612257D01*
X168560165Y-53539685D01*
X168632737Y-53394542D01*
X168632737Y-52959114D01*
X168560165Y-52813971D01*
X168487594Y-52741400D01*
X168342451Y-52668828D01*
X168052165Y-52668828D01*
X167907022Y-52741400D01*
X166963594Y-53684828D02*
X167108737Y-53612257D01*
X167181308Y-53539685D01*
X167253880Y-53394542D01*
X167253880Y-52959114D01*
X167181308Y-52813971D01*
X167108737Y-52741400D01*
X166963594Y-52668828D01*
X166745880Y-52668828D01*
X166600737Y-52741400D01*
X166528165Y-52813971D01*
X166455594Y-52959114D01*
X166455594Y-53394542D01*
X166528165Y-53539685D01*
X166600737Y-53612257D01*
X166745880Y-53684828D01*
X166963594Y-53684828D01*
X165802451Y-53684828D02*
X165802451Y-52160828D01*
X165439594Y-52160828D01*
X165221880Y-52233400D01*
X165076737Y-52378542D01*
X165004165Y-52523685D01*
X164931594Y-52813971D01*
X164931594Y-53031685D01*
X165004165Y-53321971D01*
X165076737Y-53467114D01*
X165221880Y-53612257D01*
X165439594Y-53684828D01*
X165802451Y-53684828D01*
X164060737Y-53684828D02*
X164205880Y-53612257D01*
X164278451Y-53539685D01*
X164351022Y-53394542D01*
X164351022Y-52959114D01*
X164278451Y-52813971D01*
X164205880Y-52741400D01*
X164060737Y-52668828D01*
X163843022Y-52668828D01*
X163697880Y-52741400D01*
X163625308Y-52813971D01*
X163552737Y-52959114D01*
X163552737Y-53394542D01*
X163625308Y-53539685D01*
X163697880Y-53612257D01*
X163843022Y-53684828D01*
X164060737Y-53684828D01*
X163044737Y-53684828D02*
X162246451Y-52668828D01*
X163044737Y-52668828D02*
X162246451Y-53684828D01*
X160504737Y-53684828D02*
X160504737Y-52160828D01*
X160504737Y-52741400D02*
X160359594Y-52668828D01*
X160069308Y-52668828D01*
X159924165Y-52741400D01*
X159851594Y-52813971D01*
X159779022Y-52959114D01*
X159779022Y-53394542D01*
X159851594Y-53539685D01*
X159924165Y-53612257D01*
X160069308Y-53684828D01*
X160359594Y-53684828D01*
X160504737Y-53612257D01*
X159271022Y-52668828D02*
X158908165Y-53684828D01*
X158545308Y-52668828D02*
X158908165Y-53684828D01*
X159053308Y-54047685D01*
X159125880Y-54120257D01*
X159271022Y-54192828D01*
X156223022Y-53612257D02*
X156368165Y-53684828D01*
X156658451Y-53684828D01*
X156803594Y-53612257D01*
X156876165Y-53467114D01*
X156876165Y-52886542D01*
X156803594Y-52741400D01*
X156658451Y-52668828D01*
X156368165Y-52668828D01*
X156223022Y-52741400D01*
X156150451Y-52886542D01*
X156150451Y-53031685D01*
X156876165Y-53176828D01*
X155497308Y-53684828D02*
X155497308Y-52668828D01*
X155497308Y-52959114D02*
X155424737Y-52813971D01*
X155352165Y-52741400D01*
X155207022Y-52668828D01*
X155061880Y-52668828D01*
X153900737Y-52668828D02*
X153900737Y-53902542D01*
X153973308Y-54047685D01*
X154045880Y-54120257D01*
X154191022Y-54192828D01*
X154408737Y-54192828D01*
X154553880Y-54120257D01*
X153900737Y-53612257D02*
X154045880Y-53684828D01*
X154336165Y-53684828D01*
X154481308Y-53612257D01*
X154553880Y-53539685D01*
X154626451Y-53394542D01*
X154626451Y-52959114D01*
X154553880Y-52813971D01*
X154481308Y-52741400D01*
X154336165Y-52668828D01*
X154045880Y-52668828D01*
X153900737Y-52741400D01*
X152957308Y-53684828D02*
X153102451Y-53612257D01*
X153175022Y-53539685D01*
X153247594Y-53394542D01*
X153247594Y-52959114D01*
X153175022Y-52813971D01*
X153102451Y-52741400D01*
X152957308Y-52668828D01*
X152739594Y-52668828D01*
X152594451Y-52741400D01*
X152521880Y-52813971D01*
X152449308Y-52959114D01*
X152449308Y-53394542D01*
X152521880Y-53539685D01*
X152594451Y-53612257D01*
X152739594Y-53684828D01*
X152957308Y-53684828D01*
X151143022Y-53684828D02*
X151143022Y-52160828D01*
X151143022Y-53612257D02*
X151288165Y-53684828D01*
X151578451Y-53684828D01*
X151723594Y-53612257D01*
X151796165Y-53539685D01*
X151868737Y-53394542D01*
X151868737Y-52959114D01*
X151796165Y-52813971D01*
X151723594Y-52741400D01*
X151578451Y-52668828D01*
X151288165Y-52668828D01*
X151143022Y-52741400D01*
X150199594Y-53684828D02*
X150344737Y-53612257D01*
X150417308Y-53539685D01*
X150489880Y-53394542D01*
X150489880Y-52959114D01*
X150417308Y-52813971D01*
X150344737Y-52741400D01*
X150199594Y-52668828D01*
X149981880Y-52668828D01*
X149836737Y-52741400D01*
X149764165Y-52813971D01*
X149691594Y-52959114D01*
X149691594Y-53394542D01*
X149764165Y-53539685D01*
X149836737Y-53612257D01*
X149981880Y-53684828D01*
X150199594Y-53684828D01*
X149183594Y-53684828D02*
X148385308Y-52668828D01*
X149183594Y-52668828D02*
X148385308Y-53684828D01*
X147804737Y-53539685D02*
X147732165Y-53612257D01*
X147804737Y-53684828D01*
X147877308Y-53612257D01*
X147804737Y-53539685D01*
X147804737Y-53684828D01*
X147079022Y-53684828D02*
X147079022Y-52668828D01*
X147079022Y-52160828D02*
X147151594Y-52233400D01*
X147079022Y-52305971D01*
X147006451Y-52233400D01*
X147079022Y-52160828D01*
X147079022Y-52305971D01*
X146135594Y-53684828D02*
X146280737Y-53612257D01*
X146353308Y-53539685D01*
X146425880Y-53394542D01*
X146425880Y-52959114D01*
X146353308Y-52813971D01*
X146280737Y-52741400D01*
X146135594Y-52668828D01*
X145917880Y-52668828D01*
X145772737Y-52741400D01*
X145700165Y-52813971D01*
X145627594Y-52959114D01*
X145627594Y-53394542D01*
X145700165Y-53539685D01*
X145772737Y-53612257D01*
X145917880Y-53684828D01*
X146135594Y-53684828D01*
D11*
X142058571Y-48314428D02*
X137994571Y-48314428D01*
X136252857Y-52571952D02*
X142058571Y-52571952D01*
X142058571Y-44443952D01*
X136252857Y-44443952D01*
X131027714Y-52571952D02*
X131027714Y-47153285D01*
X131027714Y-48701476D02*
X130447142Y-47927380D01*
X129866571Y-47540333D01*
X128705428Y-47153285D01*
X127544285Y-47153285D01*
X118255142Y-47153285D02*
X118255142Y-53733095D01*
X118835714Y-54507190D01*
X119416285Y-54894238D01*
X120577428Y-55281285D01*
X122319142Y-55281285D01*
X123480285Y-54894238D01*
X118255142Y-52184904D02*
X119416285Y-52571952D01*
X121738571Y-52571952D01*
X122899714Y-52184904D01*
X123480285Y-51797857D01*
X124060857Y-51023761D01*
X124060857Y-48701476D01*
X123480285Y-47927380D01*
X122899714Y-47540333D01*
X121738571Y-47153285D01*
X119416285Y-47153285D01*
X118255142Y-47540333D01*
X110707714Y-52571952D02*
X111868857Y-52184904D01*
X112449428Y-51797857D01*
X113030000Y-51023761D01*
X113030000Y-48701476D01*
X112449428Y-47927380D01*
X111868857Y-47540333D01*
X110707714Y-47153285D01*
X108966000Y-47153285D01*
X107804857Y-47540333D01*
X107224285Y-47927380D01*
X106643714Y-48701476D01*
X106643714Y-51023761D01*
X107224285Y-51797857D01*
X107804857Y-52184904D01*
X108966000Y-52571952D01*
X110707714Y-52571952D01*
X102579714Y-44443952D02*
X94451714Y-44443952D01*
X99676857Y-52571952D01*
X90387714Y-45218047D02*
X89807142Y-44831000D01*
X88646000Y-44443952D01*
X85743142Y-44443952D01*
X84582000Y-44831000D01*
X84001428Y-45218047D01*
X83420857Y-45992142D01*
X83420857Y-46766238D01*
X84001428Y-47927380D01*
X90968285Y-52571952D01*
X83420857Y-52571952D01*
D12*
X75960514Y-99803857D02*
X77170038Y-99803857D01*
X77170038Y-96755857D01*
X75113847Y-98207285D02*
X74267180Y-98207285D01*
X73904323Y-99803857D02*
X75113847Y-99803857D01*
X75113847Y-96755857D01*
X73904323Y-96755857D01*
X71969085Y-98207285D02*
X72815752Y-98207285D01*
X72815752Y-99803857D02*
X72815752Y-96755857D01*
X71606228Y-96755857D01*
X71001466Y-96755857D02*
X69550038Y-96755857D01*
X70275752Y-99803857D02*
X70275752Y-96755857D01*
X77170038Y-104883857D02*
X77170038Y-101835857D01*
X77170038Y-103287285D02*
X75718609Y-103287285D01*
X75718609Y-104883857D02*
X75718609Y-101835857D01*
X74630038Y-104013000D02*
X73420514Y-104013000D01*
X74871942Y-104883857D02*
X74025276Y-101835857D01*
X73178609Y-104883857D01*
X72331942Y-104883857D02*
X72331942Y-101835857D01*
X70880514Y-104883857D01*
X70880514Y-101835857D01*
X69670990Y-104883857D02*
X69670990Y-101835857D01*
X69066228Y-101835857D01*
X68703371Y-101981000D01*
X68461466Y-102271285D01*
X68340514Y-102561571D01*
X68219561Y-103142142D01*
X68219561Y-103577571D01*
X68340514Y-104158142D01*
X68461466Y-104448428D01*
X68703371Y-104738714D01*
X69066228Y-104883857D01*
X69670990Y-104883857D01*
D13*
X113900000Y-37700000D02*
X113900000Y-35700000D01*
X111100000Y-37700000D02*
X113900000Y-37700000D01*
X111100000Y-35700000D02*
X111100000Y-37700000D01*
X113900000Y-35700000D02*
X111100000Y-35700000D01*
X92240000Y-36925000D02*
X92240000Y-35005000D01*
X101400000Y-35005000D02*
X101400000Y-36925000D01*
X101400000Y-32995000D02*
X101400000Y-31290000D01*
X92240000Y-31290000D02*
X92240000Y-32995000D01*
X101400000Y-31290000D02*
X92240000Y-31290000D01*
X82600000Y-34850000D02*
X80900000Y-34850000D01*
X80900000Y-32950000D02*
X82600000Y-32950000D01*
X74500000Y-41350000D02*
X74500000Y-41700000D01*
X74500000Y-34900000D02*
X74500000Y-39350000D01*
X80900000Y-32950000D02*
X80900000Y-31050000D01*
X80900000Y-31050000D02*
X80300000Y-31050000D01*
X80300000Y-31050000D02*
X80300000Y-29050000D01*
X80300000Y-29050000D02*
X75100000Y-29050000D01*
X75100000Y-29050000D02*
X75100000Y-31050000D01*
X75100000Y-31050000D02*
X74500000Y-31050000D01*
X74500000Y-31050000D02*
X74500000Y-32900000D01*
X80900000Y-35700000D02*
X80900000Y-34850000D01*
X80900000Y-40750000D02*
X80900000Y-37550000D01*
X76400000Y-43250000D02*
X80900000Y-43250000D01*
X80900000Y-43250000D02*
X80900000Y-42650000D01*
X187900000Y-36770000D02*
X190560000Y-36770000D01*
X187900000Y-44450000D02*
X187900000Y-36770000D01*
X190560000Y-44450000D02*
X190560000Y-36770000D01*
X187900000Y-44450000D02*
X190560000Y-44450000D01*
X187900000Y-45720000D02*
X187900000Y-47050000D01*
X187900000Y-47050000D02*
X189230000Y-47050000D01*
D14*
X185102500Y-81480660D02*
X185102500Y-79702660D01*
X185102500Y-92402660D02*
X185102500Y-90624660D01*
X186880500Y-92402660D02*
X185102500Y-92402660D01*
X197802500Y-92402660D02*
X196024500Y-92402660D01*
X197802500Y-90624660D02*
X197802500Y-92402660D01*
X197802500Y-79702660D02*
X197802500Y-81480660D01*
X196024500Y-79702660D02*
X197802500Y-79702660D01*
X185102500Y-79702660D02*
X186880500Y-79702660D01*
X185102500Y-119580660D02*
X185102500Y-117802660D01*
X185102500Y-130502660D02*
X185102500Y-128724660D01*
X186880500Y-130502660D02*
X185102500Y-130502660D01*
X197802500Y-130502660D02*
X196024500Y-130502660D01*
X197802500Y-128724660D02*
X197802500Y-130502660D01*
X197802500Y-117802660D02*
X197802500Y-119580660D01*
X196024500Y-117802660D02*
X197802500Y-117802660D01*
X185102500Y-117802660D02*
X186880500Y-117802660D01*
X185102500Y-62433200D02*
X185102500Y-60655200D01*
X185102500Y-73355200D02*
X185102500Y-71577200D01*
X186880500Y-73355200D02*
X185102500Y-73355200D01*
X197802500Y-73355200D02*
X196024500Y-73355200D01*
X197802500Y-71577200D02*
X197802500Y-73355200D01*
X197802500Y-60655200D02*
X197802500Y-62433200D01*
X196024500Y-60655200D02*
X197802500Y-60655200D01*
X185102500Y-60655200D02*
X186880500Y-60655200D01*
X185102500Y-100530660D02*
X185102500Y-98752660D01*
X185102500Y-111452660D02*
X185102500Y-109674660D01*
X186880500Y-111452660D02*
X185102500Y-111452660D01*
X197802500Y-111452660D02*
X196024500Y-111452660D01*
X197802500Y-109674660D02*
X197802500Y-111452660D01*
X197802500Y-98752660D02*
X197802500Y-100530660D01*
X196024500Y-98752660D02*
X197802500Y-98752660D01*
X185102500Y-98752660D02*
X186880500Y-98752660D01*
X85090000Y-60528200D02*
X85090000Y-58750200D01*
X85090000Y-71450200D02*
X85090000Y-69672200D01*
X86868000Y-71450200D02*
X85090000Y-71450200D01*
X97790000Y-71450200D02*
X96012000Y-71450200D01*
X97790000Y-69672200D02*
X97790000Y-71450200D01*
X97790000Y-58750200D02*
X97790000Y-60528200D01*
X96012000Y-58750200D02*
X97790000Y-58750200D01*
X85090000Y-58750200D02*
X86868000Y-58750200D01*
X142240000Y-78305660D02*
X142240000Y-76527660D01*
X142240000Y-89227660D02*
X142240000Y-87449660D01*
X144018000Y-89227660D02*
X142240000Y-89227660D01*
X154940000Y-89227660D02*
X153162000Y-89227660D01*
X154940000Y-87449660D02*
X154940000Y-89227660D01*
X154940000Y-76527660D02*
X154940000Y-78305660D01*
X153162000Y-76527660D02*
X154940000Y-76527660D01*
X142240000Y-76527660D02*
X144018000Y-76527660D01*
X62578467Y-168804545D02*
X60967052Y-169555960D01*
X72477160Y-164188708D02*
X70865745Y-164940124D01*
X71725745Y-162577293D02*
X72477160Y-164188708D01*
X67109908Y-152678600D02*
X67861324Y-154290015D01*
X65498493Y-153430015D02*
X67109908Y-152678600D01*
X55599800Y-158045852D02*
X57211215Y-157294436D01*
X56351215Y-159657267D02*
X55599800Y-158045852D01*
X60967052Y-169555960D02*
X60215636Y-167944545D01*
X79842847Y-160752745D02*
X78231432Y-161504160D01*
X89741540Y-156136908D02*
X88130125Y-156888324D01*
X88990125Y-154525493D02*
X89741540Y-156136908D01*
X84374288Y-144626800D02*
X85125704Y-146238215D01*
X82762873Y-145378215D02*
X84374288Y-144626800D01*
X72864180Y-149994052D02*
X74475595Y-149242636D01*
X73615595Y-151605467D02*
X72864180Y-149994052D01*
X78231432Y-161504160D02*
X77480016Y-159892745D01*
X104140000Y-135455660D02*
X104140000Y-133677660D01*
X104140000Y-146377660D02*
X104140000Y-144599660D01*
X105918000Y-146377660D02*
X104140000Y-146377660D01*
X116840000Y-146377660D02*
X115062000Y-146377660D01*
X116840000Y-144599660D02*
X116840000Y-146377660D01*
X116840000Y-133677660D02*
X116840000Y-135455660D01*
X115062000Y-133677660D02*
X116840000Y-133677660D01*
X104140000Y-133677660D02*
X105918000Y-133677660D01*
X123190000Y-133858000D02*
X123190000Y-132080000D01*
X123190000Y-144780000D02*
X123190000Y-143002000D01*
X124968000Y-144780000D02*
X123190000Y-144780000D01*
X135890000Y-144780000D02*
X134112000Y-144780000D01*
X135890000Y-143002000D02*
X135890000Y-144780000D01*
X135890000Y-132080000D02*
X135890000Y-133858000D01*
X134112000Y-132080000D02*
X135890000Y-132080000D01*
X123190000Y-132080000D02*
X124968000Y-132080000D01*
X161290000Y-138630660D02*
X161290000Y-136852660D01*
X161290000Y-149552660D02*
X161290000Y-147774660D01*
X163068000Y-149552660D02*
X161290000Y-149552660D01*
X173990000Y-149552660D02*
X172212000Y-149552660D01*
X173990000Y-147774660D02*
X173990000Y-149552660D01*
X173990000Y-136852660D02*
X173990000Y-138630660D01*
X172212000Y-136852660D02*
X173990000Y-136852660D01*
X161290000Y-136852660D02*
X163068000Y-136852660D01*
X85090000Y-117675660D02*
X85090000Y-115897660D01*
X85090000Y-128597660D02*
X85090000Y-126819660D01*
X86868000Y-128597660D02*
X85090000Y-128597660D01*
X97790000Y-128597660D02*
X96012000Y-128597660D01*
X97790000Y-126819660D02*
X97790000Y-128597660D01*
X97790000Y-115897660D02*
X97790000Y-117675660D01*
X96012000Y-115897660D02*
X97790000Y-115897660D01*
X85090000Y-115897660D02*
X86868000Y-115897660D01*
X104140000Y-116405660D02*
X104140000Y-114627660D01*
X104140000Y-127327660D02*
X104140000Y-125549660D01*
X105918000Y-127327660D02*
X104140000Y-127327660D01*
X116840000Y-127327660D02*
X115062000Y-127327660D01*
X116840000Y-125549660D02*
X116840000Y-127327660D01*
X116840000Y-114627660D02*
X116840000Y-116405660D01*
X115062000Y-114627660D02*
X116840000Y-114627660D01*
X104140000Y-114627660D02*
X105918000Y-114627660D01*
X123190000Y-114808000D02*
X123190000Y-113030000D01*
X123190000Y-125730000D02*
X123190000Y-123952000D01*
X124968000Y-125730000D02*
X123190000Y-125730000D01*
X135890000Y-125730000D02*
X134112000Y-125730000D01*
X135890000Y-123952000D02*
X135890000Y-125730000D01*
X135890000Y-113030000D02*
X135890000Y-114808000D01*
X134112000Y-113030000D02*
X135890000Y-113030000D01*
X123190000Y-113030000D02*
X124968000Y-113030000D01*
X142240000Y-116405660D02*
X142240000Y-114627660D01*
X142240000Y-127327660D02*
X142240000Y-125549660D01*
X144018000Y-127327660D02*
X142240000Y-127327660D01*
X154940000Y-127327660D02*
X153162000Y-127327660D01*
X154940000Y-125549660D02*
X154940000Y-127327660D01*
X154940000Y-114627660D02*
X154940000Y-116405660D01*
X153162000Y-114627660D02*
X154940000Y-114627660D01*
X142240000Y-114627660D02*
X144018000Y-114627660D01*
X161290000Y-119580660D02*
X161290000Y-117802660D01*
X161290000Y-130502660D02*
X161290000Y-128724660D01*
X163068000Y-130502660D02*
X161290000Y-130502660D01*
X173990000Y-130502660D02*
X172212000Y-130502660D01*
X173990000Y-128724660D02*
X173990000Y-130502660D01*
X173990000Y-117802660D02*
X173990000Y-119580660D01*
X172212000Y-117802660D02*
X173990000Y-117802660D01*
X161290000Y-117802660D02*
X163068000Y-117802660D01*
X85090000Y-98625660D02*
X85090000Y-96847660D01*
X85090000Y-109547660D02*
X85090000Y-107769660D01*
X86868000Y-109547660D02*
X85090000Y-109547660D01*
X97790000Y-109547660D02*
X96012000Y-109547660D01*
X97790000Y-107769660D02*
X97790000Y-109547660D01*
X97790000Y-96847660D02*
X97790000Y-98625660D01*
X96012000Y-96847660D02*
X97790000Y-96847660D01*
X85090000Y-96847660D02*
X86868000Y-96847660D01*
X104140000Y-97355660D02*
X104140000Y-95577660D01*
X104140000Y-108277660D02*
X104140000Y-106499660D01*
X105918000Y-108277660D02*
X104140000Y-108277660D01*
X116840000Y-108277660D02*
X115062000Y-108277660D01*
X116840000Y-106499660D02*
X116840000Y-108277660D01*
X116840000Y-95577660D02*
X116840000Y-97355660D01*
X115062000Y-95577660D02*
X116840000Y-95577660D01*
X104140000Y-95577660D02*
X105918000Y-95577660D01*
X123190000Y-95758000D02*
X123190000Y-93980000D01*
X123190000Y-106680000D02*
X123190000Y-104902000D01*
X124968000Y-106680000D02*
X123190000Y-106680000D01*
X135890000Y-106680000D02*
X134112000Y-106680000D01*
X135890000Y-104902000D02*
X135890000Y-106680000D01*
X135890000Y-93980000D02*
X135890000Y-95758000D01*
X134112000Y-93980000D02*
X135890000Y-93980000D01*
X123190000Y-93980000D02*
X124968000Y-93980000D01*
X142240000Y-97355660D02*
X142240000Y-95577660D01*
X142240000Y-108277660D02*
X142240000Y-106499660D01*
X144018000Y-108277660D02*
X142240000Y-108277660D01*
X154940000Y-108277660D02*
X153162000Y-108277660D01*
X154940000Y-106499660D02*
X154940000Y-108277660D01*
X154940000Y-95577660D02*
X154940000Y-97355660D01*
X153162000Y-95577660D02*
X154940000Y-95577660D01*
X142240000Y-95577660D02*
X144018000Y-95577660D01*
X104140000Y-78305660D02*
X104140000Y-76527660D01*
X104140000Y-89227660D02*
X104140000Y-87449660D01*
X105918000Y-89227660D02*
X104140000Y-89227660D01*
X116840000Y-89227660D02*
X115062000Y-89227660D01*
X116840000Y-87449660D02*
X116840000Y-89227660D01*
X116840000Y-76527660D02*
X116840000Y-78305660D01*
X115062000Y-76527660D02*
X116840000Y-76527660D01*
X104140000Y-76527660D02*
X105918000Y-76527660D01*
X123190000Y-76708000D02*
X123190000Y-74930000D01*
X123190000Y-87630000D02*
X123190000Y-85852000D01*
X124968000Y-87630000D02*
X123190000Y-87630000D01*
X135890000Y-87630000D02*
X134112000Y-87630000D01*
X135890000Y-85852000D02*
X135890000Y-87630000D01*
X135890000Y-74930000D02*
X135890000Y-76708000D01*
X134112000Y-74930000D02*
X135890000Y-74930000D01*
X123190000Y-74930000D02*
X124968000Y-74930000D01*
X161290000Y-81480660D02*
X161290000Y-79702660D01*
X161290000Y-92402660D02*
X161290000Y-90624660D01*
X163068000Y-92402660D02*
X161290000Y-92402660D01*
X173990000Y-92402660D02*
X172212000Y-92402660D01*
X173990000Y-90624660D02*
X173990000Y-92402660D01*
X173990000Y-79702660D02*
X173990000Y-81480660D01*
X172212000Y-79702660D02*
X173990000Y-79702660D01*
X161290000Y-79702660D02*
X163068000Y-79702660D01*
X142240000Y-135455660D02*
X142240000Y-133677660D01*
X142240000Y-146377660D02*
X142240000Y-144599660D01*
X144018000Y-146377660D02*
X142240000Y-146377660D01*
X154940000Y-146377660D02*
X153162000Y-146377660D01*
X154940000Y-144599660D02*
X154940000Y-146377660D01*
X154940000Y-133677660D02*
X154940000Y-135455660D01*
X153162000Y-133677660D02*
X154940000Y-133677660D01*
X142240000Y-133677660D02*
X144018000Y-133677660D01*
X104140000Y-59255660D02*
X104140000Y-57477660D01*
X104140000Y-70177660D02*
X104140000Y-68399660D01*
X105918000Y-70177660D02*
X104140000Y-70177660D01*
X116840000Y-70177660D02*
X115062000Y-70177660D01*
X116840000Y-68399660D02*
X116840000Y-70177660D01*
X116840000Y-57477660D02*
X116840000Y-59255660D01*
X115062000Y-57477660D02*
X116840000Y-57477660D01*
X104140000Y-57477660D02*
X105918000Y-57477660D01*
X123190000Y-57658000D02*
X123190000Y-55880000D01*
X123190000Y-68580000D02*
X123190000Y-66802000D01*
X124968000Y-68580000D02*
X123190000Y-68580000D01*
X135890000Y-68580000D02*
X134112000Y-68580000D01*
X135890000Y-66802000D02*
X135890000Y-68580000D01*
X135890000Y-55880000D02*
X135890000Y-57658000D01*
X134112000Y-55880000D02*
X135890000Y-55880000D01*
X123190000Y-55880000D02*
X124968000Y-55880000D01*
X142240000Y-59255660D02*
X142240000Y-57477660D01*
X142240000Y-70177660D02*
X142240000Y-68399660D01*
X144018000Y-70177660D02*
X142240000Y-70177660D01*
X154940000Y-70177660D02*
X153162000Y-70177660D01*
X154940000Y-68399660D02*
X154940000Y-70177660D01*
X154940000Y-57477660D02*
X154940000Y-59255660D01*
X153162000Y-57477660D02*
X154940000Y-57477660D01*
X142240000Y-57477660D02*
X144018000Y-57477660D01*
X161290000Y-62433200D02*
X161290000Y-60655200D01*
X161290000Y-73355200D02*
X161290000Y-71577200D01*
X163068000Y-73355200D02*
X161290000Y-73355200D01*
X173990000Y-73355200D02*
X172212000Y-73355200D01*
X173990000Y-71577200D02*
X173990000Y-73355200D01*
X173990000Y-60655200D02*
X173990000Y-62433200D01*
X172212000Y-60655200D02*
X173990000Y-60655200D01*
X161290000Y-60655200D02*
X163068000Y-60655200D01*
X44276055Y-133759427D02*
X43524640Y-132148012D01*
X48891892Y-143658120D02*
X48140476Y-142046705D01*
X50503307Y-142906705D02*
X48891892Y-143658120D01*
X60402000Y-138290868D02*
X58790585Y-139042284D01*
X59650585Y-136679453D02*
X60402000Y-138290868D01*
X55034748Y-126780760D02*
X55786164Y-128392175D01*
X53423333Y-127532175D02*
X55034748Y-126780760D01*
X43524640Y-132148012D02*
X45136055Y-131396596D01*
X27011675Y-141808687D02*
X26260260Y-140197272D01*
X31627512Y-151707380D02*
X30876096Y-150095965D01*
X33238927Y-150955965D02*
X31627512Y-151707380D01*
X43137620Y-146340128D02*
X41526205Y-147091544D01*
X42386205Y-144728713D02*
X43137620Y-146340128D01*
X37770368Y-134830020D02*
X38521784Y-136441435D01*
X36158953Y-135581435D02*
X37770368Y-134830020D01*
X26260260Y-140197272D02*
X27871675Y-139445856D01*
X43112735Y-176339987D02*
X42361320Y-174728572D01*
X47728572Y-186238680D02*
X46977156Y-184627265D01*
X49339987Y-185487265D02*
X47728572Y-186238680D01*
X59238680Y-180871428D02*
X57627265Y-181622844D01*
X58487265Y-179260013D02*
X59238680Y-180871428D01*
X53871428Y-169361320D02*
X54622844Y-170972735D01*
X52260013Y-170112735D02*
X53871428Y-169361320D01*
X42361320Y-174728572D02*
X43972735Y-173977156D01*
X35060935Y-159073067D02*
X34309520Y-157461652D01*
X39676772Y-168971760D02*
X38925356Y-167360345D01*
X41288187Y-168220345D02*
X39676772Y-168971760D01*
X51186880Y-163604508D02*
X49575465Y-164355924D01*
X50435465Y-161993093D02*
X51186880Y-163604508D01*
X45819628Y-152094400D02*
X46571044Y-153705815D01*
X44208213Y-152845815D02*
X45819628Y-152094400D01*
X34309520Y-157461652D02*
X35920935Y-156710236D01*
X85090000Y-79575660D02*
X85090000Y-77797660D01*
X85090000Y-90497660D02*
X85090000Y-88719660D01*
X86868000Y-90497660D02*
X85090000Y-90497660D01*
X97790000Y-90497660D02*
X96012000Y-90497660D01*
X97790000Y-88719660D02*
X97790000Y-90497660D01*
X97790000Y-77797660D02*
X97790000Y-79575660D01*
X96012000Y-77797660D02*
X97790000Y-77797660D01*
X85090000Y-77797660D02*
X86868000Y-77797660D01*
X180340000Y-138630660D02*
X180340000Y-136852660D01*
X180340000Y-149552660D02*
X180340000Y-147774660D01*
X182118000Y-149552660D02*
X180340000Y-149552660D01*
X193040000Y-149552660D02*
X191262000Y-149552660D01*
X193040000Y-147774660D02*
X193040000Y-149552660D01*
X193040000Y-136852660D02*
X193040000Y-138630660D01*
X191262000Y-136852660D02*
X193040000Y-136852660D01*
X180340000Y-136852660D02*
X182118000Y-136852660D01*
X67818000Y-123835160D02*
X66040000Y-123835160D01*
X78740000Y-123835160D02*
X76962000Y-123835160D01*
X78740000Y-122057160D02*
X78740000Y-123835160D01*
X78740000Y-111135160D02*
X78740000Y-112913160D01*
X76962000Y-111135160D02*
X78740000Y-111135160D01*
X66040000Y-111135160D02*
X67818000Y-111135160D01*
X66040000Y-112913160D02*
X66040000Y-111135160D01*
X66040000Y-123835160D02*
X66040000Y-122057160D01*
X67818000Y-95260160D02*
X66040000Y-95260160D01*
X78740000Y-95260160D02*
X76962000Y-95260160D01*
X78740000Y-93482160D02*
X78740000Y-95260160D01*
X78740000Y-82560160D02*
X78740000Y-84338160D01*
X76962000Y-82560160D02*
X78740000Y-82560160D01*
X66040000Y-82560160D02*
X67818000Y-82560160D01*
X66040000Y-84338160D02*
X66040000Y-82560160D01*
X66040000Y-95260160D02*
X66040000Y-93482160D01*
X66040000Y-60528200D02*
X66040000Y-58750200D01*
X66040000Y-71450200D02*
X66040000Y-69672200D01*
X67818000Y-71450200D02*
X66040000Y-71450200D01*
X78740000Y-71450200D02*
X76962000Y-71450200D01*
X78740000Y-69672200D02*
X78740000Y-71450200D01*
X78740000Y-58750200D02*
X78740000Y-60528200D01*
X76962000Y-58750200D02*
X78740000Y-58750200D01*
X66040000Y-58750200D02*
X67818000Y-58750200D01*
X161290000Y-100530660D02*
X161290000Y-98752660D01*
X161290000Y-111452660D02*
X161290000Y-109674660D01*
X163068000Y-111452660D02*
X161290000Y-111452660D01*
X173990000Y-111452660D02*
X172212000Y-111452660D01*
X173990000Y-109674660D02*
X173990000Y-111452660D01*
X173990000Y-98752660D02*
X173990000Y-100530660D01*
X172212000Y-98752660D02*
X173990000Y-98752660D01*
X161290000Y-98752660D02*
X163068000Y-98752660D01*
D15*
X113333333Y-34352380D02*
X113333333Y-35066666D01*
X113380952Y-35209523D01*
X113476190Y-35304761D01*
X113619047Y-35352380D01*
X113714285Y-35352380D01*
X112857142Y-35352380D02*
X112857142Y-34352380D01*
X112476190Y-34352380D01*
X112380952Y-34400000D01*
X112333333Y-34447619D01*
X112285714Y-34542857D01*
X112285714Y-34685714D01*
X112333333Y-34780952D01*
X112380952Y-34828571D01*
X112476190Y-34876190D01*
X112857142Y-34876190D01*
X111428571Y-34685714D02*
X111428571Y-35352380D01*
X111666666Y-34304761D02*
X111904761Y-35019047D01*
X111285714Y-35019047D01*
X97153333Y-40242380D02*
X97153333Y-40956666D01*
X97200952Y-41099523D01*
X97296190Y-41194761D01*
X97439047Y-41242380D01*
X97534285Y-41242380D01*
X96772380Y-40242380D02*
X96105714Y-40242380D01*
X96534285Y-41242380D01*
X78033333Y-26272380D02*
X78033333Y-26986666D01*
X78080952Y-27129523D01*
X78176190Y-27224761D01*
X78319047Y-27272380D01*
X78414285Y-27272380D01*
X77080952Y-26272380D02*
X77557142Y-26272380D01*
X77604761Y-26748571D01*
X77557142Y-26700952D01*
X77461904Y-26653333D01*
X77223809Y-26653333D01*
X77128571Y-26700952D01*
X77080952Y-26748571D01*
X77033333Y-26843809D01*
X77033333Y-27081904D01*
X77080952Y-27177142D01*
X77128571Y-27224761D01*
X77223809Y-27272380D01*
X77461904Y-27272380D01*
X77557142Y-27224761D01*
X77604761Y-27177142D01*
X189563333Y-47502380D02*
X189563333Y-48216666D01*
X189610952Y-48359523D01*
X189706190Y-48454761D01*
X189849047Y-48502380D01*
X189944285Y-48502380D01*
X189182380Y-47502380D02*
X188563333Y-47502380D01*
X188896666Y-47883333D01*
X188753809Y-47883333D01*
X188658571Y-47930952D01*
X188610952Y-47978571D01*
X188563333Y-48073809D01*
X188563333Y-48311904D01*
X188610952Y-48407142D01*
X188658571Y-48454761D01*
X188753809Y-48502380D01*
X189039523Y-48502380D01*
X189134761Y-48454761D01*
X189182380Y-48407142D01*
M02*
