%TF.GenerationSoftware,KiCad,Pcbnew,5.1.6-c6e7f7d~87~ubuntu20.04.1*%
%TF.CreationDate,2020-08-02T23:19:43+02:00*%
%TF.ProjectId,ErgoDOX,4572676f-444f-4582-9e6b-696361645f70,rev?*%
%TF.SameCoordinates,Original*%
%TF.FileFunction,Legend,Top*%
%TF.FilePolarity,Positive*%
%FSLAX46Y46*%
G04 Gerber Fmt 4.6, Leading zero omitted, Abs format (unit mm)*
G04 Created by KiCad (PCBNEW 5.1.6-c6e7f7d~87~ubuntu20.04.1) date 2020-08-02 23:19:43*
%MOMM*%
%LPD*%
G01*
G04 APERTURE LIST*
%ADD10C,0.304800*%
%ADD11C,0.508000*%
%ADD12C,0.120000*%
%ADD13C,0.381000*%
%ADD14C,0.150000*%
%ADD15C,0.254000*%
G04 APERTURE END LIST*
D10*
X133179228Y-42049714D02*
X133179228Y-41106285D01*
X133759800Y-41614285D01*
X133759800Y-41396571D01*
X133832371Y-41251428D01*
X133904942Y-41178857D01*
X134050085Y-41106285D01*
X134412942Y-41106285D01*
X134558085Y-41178857D01*
X134630657Y-41251428D01*
X134703228Y-41396571D01*
X134703228Y-41832000D01*
X134630657Y-41977142D01*
X134558085Y-42049714D01*
X134558085Y-40453142D02*
X134630657Y-40380571D01*
X134703228Y-40453142D01*
X134630657Y-40525714D01*
X134558085Y-40453142D01*
X134703228Y-40453142D01*
X133179228Y-39872571D02*
X133179228Y-38929142D01*
X133759800Y-39437142D01*
X133759800Y-39219428D01*
X133832371Y-39074285D01*
X133904942Y-39001714D01*
X134050085Y-38929142D01*
X134412942Y-38929142D01*
X134558085Y-39001714D01*
X134630657Y-39074285D01*
X134703228Y-39219428D01*
X134703228Y-39654857D01*
X134630657Y-39800000D01*
X134558085Y-39872571D01*
X133179228Y-38493714D02*
X134703228Y-37985714D01*
X133179228Y-37477714D01*
X136495742Y-41868285D02*
X136568314Y-41650571D01*
X136640885Y-41578000D01*
X136786028Y-41505428D01*
X137003742Y-41505428D01*
X137148885Y-41578000D01*
X137221457Y-41650571D01*
X137294028Y-41795714D01*
X137294028Y-42376285D01*
X135770028Y-42376285D01*
X135770028Y-41868285D01*
X135842600Y-41723142D01*
X135915171Y-41650571D01*
X136060314Y-41578000D01*
X136205457Y-41578000D01*
X136350600Y-41650571D01*
X136423171Y-41723142D01*
X136495742Y-41868285D01*
X136495742Y-42376285D01*
X135770028Y-40562000D02*
X135770028Y-40271714D01*
X135842600Y-40126571D01*
X135987742Y-39981428D01*
X136278028Y-39908857D01*
X136786028Y-39908857D01*
X137076314Y-39981428D01*
X137221457Y-40126571D01*
X137294028Y-40271714D01*
X137294028Y-40562000D01*
X137221457Y-40707142D01*
X137076314Y-40852285D01*
X136786028Y-40924857D01*
X136278028Y-40924857D01*
X135987742Y-40852285D01*
X135842600Y-40707142D01*
X135770028Y-40562000D01*
X135770028Y-38965428D02*
X135770028Y-38675142D01*
X135842600Y-38530000D01*
X135987742Y-38384857D01*
X136278028Y-38312285D01*
X136786028Y-38312285D01*
X137076314Y-38384857D01*
X137221457Y-38530000D01*
X137294028Y-38675142D01*
X137294028Y-38965428D01*
X137221457Y-39110571D01*
X137076314Y-39255714D01*
X136786028Y-39328285D01*
X136278028Y-39328285D01*
X135987742Y-39255714D01*
X135842600Y-39110571D01*
X135770028Y-38965428D01*
X135770028Y-37876857D02*
X135770028Y-37006000D01*
X137294028Y-37441428D02*
X135770028Y-37441428D01*
X139884828Y-40634571D02*
X139159114Y-41142571D01*
X139884828Y-41505428D02*
X138360828Y-41505428D01*
X138360828Y-40924857D01*
X138433400Y-40779714D01*
X138505971Y-40707142D01*
X138651114Y-40634571D01*
X138868828Y-40634571D01*
X139013971Y-40707142D01*
X139086542Y-40779714D01*
X139159114Y-40924857D01*
X139159114Y-41505428D01*
X139812257Y-40054000D02*
X139884828Y-39836285D01*
X139884828Y-39473428D01*
X139812257Y-39328285D01*
X139739685Y-39255714D01*
X139594542Y-39183142D01*
X139449400Y-39183142D01*
X139304257Y-39255714D01*
X139231685Y-39328285D01*
X139159114Y-39473428D01*
X139086542Y-39763714D01*
X139013971Y-39908857D01*
X138941400Y-39981428D01*
X138796257Y-40054000D01*
X138651114Y-40054000D01*
X138505971Y-39981428D01*
X138433400Y-39908857D01*
X138360828Y-39763714D01*
X138360828Y-39400857D01*
X138433400Y-39183142D01*
X138360828Y-38747714D02*
X138360828Y-37876857D01*
X139884828Y-38312285D02*
X138360828Y-38312285D01*
X141024200Y-40961142D02*
X140951628Y-41106285D01*
X140951628Y-41324000D01*
X141024200Y-41541714D01*
X141169342Y-41686857D01*
X141314485Y-41759428D01*
X141604771Y-41832000D01*
X141822485Y-41832000D01*
X142112771Y-41759428D01*
X142257914Y-41686857D01*
X142403057Y-41541714D01*
X142475628Y-41324000D01*
X142475628Y-41178857D01*
X142403057Y-40961142D01*
X142330485Y-40888571D01*
X141822485Y-40888571D01*
X141822485Y-41178857D01*
X142475628Y-40235428D02*
X140951628Y-40235428D01*
X142475628Y-39364571D01*
X140951628Y-39364571D01*
X142475628Y-38638857D02*
X140951628Y-38638857D01*
X140951628Y-38276000D01*
X141024200Y-38058285D01*
X141169342Y-37913142D01*
X141314485Y-37840571D01*
X141604771Y-37768000D01*
X141822485Y-37768000D01*
X142112771Y-37840571D01*
X142257914Y-37913142D01*
X142403057Y-38058285D01*
X142475628Y-38276000D01*
X142475628Y-38638857D01*
X192789428Y-60131142D02*
X191265428Y-60131142D01*
X191265428Y-59550571D01*
X191338000Y-59405428D01*
X191410571Y-59332857D01*
X191555714Y-59260285D01*
X191773428Y-59260285D01*
X191918571Y-59332857D01*
X191991142Y-59405428D01*
X192063714Y-59550571D01*
X192063714Y-60131142D01*
X191265428Y-58607142D02*
X192499142Y-58607142D01*
X192644285Y-58534571D01*
X192716857Y-58462000D01*
X192789428Y-58316857D01*
X192789428Y-58026571D01*
X192716857Y-57881428D01*
X192644285Y-57808857D01*
X192499142Y-57736285D01*
X191265428Y-57736285D01*
X192789428Y-56284857D02*
X192789428Y-57010571D01*
X191265428Y-57010571D01*
X192789428Y-55051142D02*
X192789428Y-55776857D01*
X191265428Y-55776857D01*
X196889428Y-59232000D02*
X195365428Y-59232000D01*
X195365428Y-58651428D01*
X195438000Y-58506285D01*
X195510571Y-58433714D01*
X195655714Y-58361142D01*
X195873428Y-58361142D01*
X196018571Y-58433714D01*
X196091142Y-58506285D01*
X196163714Y-58651428D01*
X196163714Y-59232000D01*
X195365428Y-57853142D02*
X196889428Y-57490285D01*
X195800857Y-57200000D01*
X196889428Y-56909714D01*
X195365428Y-56546857D01*
X196889428Y-55095428D02*
X196163714Y-55603428D01*
X196889428Y-55966285D02*
X195365428Y-55966285D01*
X195365428Y-55385714D01*
X195438000Y-55240571D01*
X195510571Y-55168000D01*
X195655714Y-55095428D01*
X195873428Y-55095428D01*
X196018571Y-55168000D01*
X196091142Y-55240571D01*
X196163714Y-55385714D01*
X196163714Y-55966285D01*
X72889428Y-56131142D02*
X71365428Y-56131142D01*
X71365428Y-55550571D01*
X71438000Y-55405428D01*
X71510571Y-55332857D01*
X71655714Y-55260285D01*
X71873428Y-55260285D01*
X72018571Y-55332857D01*
X72091142Y-55405428D01*
X72163714Y-55550571D01*
X72163714Y-56131142D01*
X71365428Y-54607142D02*
X72599142Y-54607142D01*
X72744285Y-54534571D01*
X72816857Y-54462000D01*
X72889428Y-54316857D01*
X72889428Y-54026571D01*
X72816857Y-53881428D01*
X72744285Y-53808857D01*
X72599142Y-53736285D01*
X71365428Y-53736285D01*
X72889428Y-52284857D02*
X72889428Y-53010571D01*
X71365428Y-53010571D01*
X72889428Y-51051142D02*
X72889428Y-51776857D01*
X71365428Y-51776857D01*
X68789428Y-55332000D02*
X67265428Y-55332000D01*
X67265428Y-54751428D01*
X67338000Y-54606285D01*
X67410571Y-54533714D01*
X67555714Y-54461142D01*
X67773428Y-54461142D01*
X67918571Y-54533714D01*
X67991142Y-54606285D01*
X68063714Y-54751428D01*
X68063714Y-55332000D01*
X67265428Y-53953142D02*
X68789428Y-53590285D01*
X67700857Y-53300000D01*
X68789428Y-53009714D01*
X67265428Y-52646857D01*
X68789428Y-51195428D02*
X68063714Y-51703428D01*
X68789428Y-52066285D02*
X67265428Y-52066285D01*
X67265428Y-51485714D01*
X67338000Y-51340571D01*
X67410571Y-51268000D01*
X67555714Y-51195428D01*
X67773428Y-51195428D01*
X67918571Y-51268000D01*
X67991142Y-51340571D01*
X68063714Y-51485714D01*
X68063714Y-52066285D01*
X197865428Y-59631428D02*
X197865428Y-58688000D01*
X198446000Y-59196000D01*
X198446000Y-58978285D01*
X198518571Y-58833142D01*
X198591142Y-58760571D01*
X198736285Y-58688000D01*
X199099142Y-58688000D01*
X199244285Y-58760571D01*
X199316857Y-58833142D01*
X199389428Y-58978285D01*
X199389428Y-59413714D01*
X199316857Y-59558857D01*
X199244285Y-59631428D01*
X199244285Y-58034857D02*
X199316857Y-57962285D01*
X199389428Y-58034857D01*
X199316857Y-58107428D01*
X199244285Y-58034857D01*
X199389428Y-58034857D01*
X197865428Y-57454285D02*
X197865428Y-56510857D01*
X198446000Y-57018857D01*
X198446000Y-56801142D01*
X198518571Y-56656000D01*
X198591142Y-56583428D01*
X198736285Y-56510857D01*
X199099142Y-56510857D01*
X199244285Y-56583428D01*
X199316857Y-56656000D01*
X199389428Y-56801142D01*
X199389428Y-57236571D01*
X199316857Y-57381714D01*
X199244285Y-57454285D01*
X197865428Y-56075428D02*
X199389428Y-55567428D01*
X197865428Y-55059428D01*
X197865428Y-48020000D02*
X197865428Y-48745714D01*
X198591142Y-48818285D01*
X198518571Y-48745714D01*
X198446000Y-48600571D01*
X198446000Y-48237714D01*
X198518571Y-48092571D01*
X198591142Y-48020000D01*
X198736285Y-47947428D01*
X199099142Y-47947428D01*
X199244285Y-48020000D01*
X199316857Y-48092571D01*
X199389428Y-48237714D01*
X199389428Y-48600571D01*
X199316857Y-48745714D01*
X199244285Y-48818285D01*
X197865428Y-47512000D02*
X199389428Y-47004000D01*
X197865428Y-46496000D01*
X64865428Y-55331428D02*
X64865428Y-54388000D01*
X65446000Y-54896000D01*
X65446000Y-54678285D01*
X65518571Y-54533142D01*
X65591142Y-54460571D01*
X65736285Y-54388000D01*
X66099142Y-54388000D01*
X66244285Y-54460571D01*
X66316857Y-54533142D01*
X66389428Y-54678285D01*
X66389428Y-55113714D01*
X66316857Y-55258857D01*
X66244285Y-55331428D01*
X66244285Y-53734857D02*
X66316857Y-53662285D01*
X66389428Y-53734857D01*
X66316857Y-53807428D01*
X66244285Y-53734857D01*
X66389428Y-53734857D01*
X64865428Y-53154285D02*
X64865428Y-52210857D01*
X65446000Y-52718857D01*
X65446000Y-52501142D01*
X65518571Y-52356000D01*
X65591142Y-52283428D01*
X65736285Y-52210857D01*
X66099142Y-52210857D01*
X66244285Y-52283428D01*
X66316857Y-52356000D01*
X66389428Y-52501142D01*
X66389428Y-52936571D01*
X66316857Y-53081714D01*
X66244285Y-53154285D01*
X64865428Y-51775428D02*
X66389428Y-51267428D01*
X64865428Y-50759428D01*
X64865428Y-43720000D02*
X64865428Y-44445714D01*
X65591142Y-44518285D01*
X65518571Y-44445714D01*
X65446000Y-44300571D01*
X65446000Y-43937714D01*
X65518571Y-43792571D01*
X65591142Y-43720000D01*
X65736285Y-43647428D01*
X66099142Y-43647428D01*
X66244285Y-43720000D01*
X66316857Y-43792571D01*
X66389428Y-43937714D01*
X66389428Y-44300571D01*
X66316857Y-44445714D01*
X66244285Y-44518285D01*
X64865428Y-43212000D02*
X66389428Y-42704000D01*
X64865428Y-42196000D01*
D11*
X69696390Y-99803857D02*
X68849723Y-98352428D01*
X68244961Y-99803857D02*
X68244961Y-96755857D01*
X69212580Y-96755857D01*
X69454485Y-96901000D01*
X69575438Y-97046142D01*
X69696390Y-97336428D01*
X69696390Y-97771857D01*
X69575438Y-98062142D01*
X69454485Y-98207285D01*
X69212580Y-98352428D01*
X68244961Y-98352428D01*
X70784961Y-99803857D02*
X70784961Y-96755857D01*
X73324961Y-96901000D02*
X73083057Y-96755857D01*
X72720200Y-96755857D01*
X72357342Y-96901000D01*
X72115438Y-97191285D01*
X71994485Y-97481571D01*
X71873533Y-98062142D01*
X71873533Y-98497571D01*
X71994485Y-99078142D01*
X72115438Y-99368428D01*
X72357342Y-99658714D01*
X72720200Y-99803857D01*
X72962104Y-99803857D01*
X73324961Y-99658714D01*
X73445914Y-99513571D01*
X73445914Y-98497571D01*
X72962104Y-98497571D01*
X74534485Y-99803857D02*
X74534485Y-96755857D01*
X74534485Y-98207285D02*
X75985914Y-98207285D01*
X75985914Y-99803857D02*
X75985914Y-96755857D01*
X76832580Y-96755857D02*
X78284009Y-96755857D01*
X77558295Y-99803857D02*
X77558295Y-96755857D01*
X68244961Y-104883857D02*
X68244961Y-101835857D01*
X68244961Y-103287285D02*
X69696390Y-103287285D01*
X69696390Y-104883857D02*
X69696390Y-101835857D01*
X70784961Y-104013000D02*
X71994485Y-104013000D01*
X70543057Y-104883857D02*
X71389723Y-101835857D01*
X72236390Y-104883857D01*
X73083057Y-104883857D02*
X73083057Y-101835857D01*
X74534485Y-104883857D01*
X74534485Y-101835857D01*
X75744009Y-104883857D02*
X75744009Y-101835857D01*
X76348771Y-101835857D01*
X76711628Y-101981000D01*
X76953533Y-102271285D01*
X77074485Y-102561571D01*
X77195438Y-103142142D01*
X77195438Y-103577571D01*
X77074485Y-104158142D01*
X76953533Y-104448428D01*
X76711628Y-104738714D01*
X76348771Y-104883857D01*
X75744009Y-104883857D01*
D12*
X83450000Y-52000000D02*
G75*
G03*
X83450000Y-52000000I-950000J0D01*
G01*
X80450000Y-52000000D02*
G75*
G03*
X80450000Y-52000000I-950000J0D01*
G01*
X83450000Y-56000000D02*
G75*
G03*
X83450000Y-56000000I-950000J0D01*
G01*
X81950000Y-46800000D02*
G75*
G03*
X81950000Y-46800000I-950000J0D01*
G01*
X77450000Y-52000000D02*
G75*
G03*
X77450000Y-52000000I-950000J0D01*
G01*
X101960000Y-45402500D02*
X101960000Y-44952500D01*
X101960000Y-44952500D02*
X101510000Y-44952500D01*
X101960000Y-51722500D02*
X101960000Y-52172500D01*
X101960000Y-52172500D02*
X101510000Y-52172500D01*
X94740000Y-45402500D02*
X94740000Y-44952500D01*
X94740000Y-44952500D02*
X95190000Y-44952500D01*
X94740000Y-51722500D02*
X94740000Y-52172500D01*
X94740000Y-52172500D02*
X95190000Y-52172500D01*
X95190000Y-52172500D02*
X95190000Y-53462500D01*
X132730000Y-36770000D02*
X132730000Y-35500000D01*
X134000000Y-36770000D02*
X132730000Y-36770000D01*
X142000000Y-34457071D02*
X142000000Y-34060000D01*
X141240000Y-34457071D02*
X141240000Y-34060000D01*
X142000000Y-25400000D02*
X142000000Y-31400000D01*
X141240000Y-25400000D02*
X142000000Y-25400000D01*
X141240000Y-31400000D02*
X141240000Y-25400000D01*
X140350000Y-34060000D02*
X140350000Y-31400000D01*
X139460000Y-34457071D02*
X139460000Y-34060000D01*
X138700000Y-34457071D02*
X138700000Y-34060000D01*
X139460000Y-25400000D02*
X139460000Y-31400000D01*
X138700000Y-25400000D02*
X139460000Y-25400000D01*
X138700000Y-31400000D02*
X138700000Y-25400000D01*
X137810000Y-34060000D02*
X137810000Y-31400000D01*
X136920000Y-34457071D02*
X136920000Y-34060000D01*
X136160000Y-34457071D02*
X136160000Y-34060000D01*
X136920000Y-25400000D02*
X136920000Y-31400000D01*
X136160000Y-25400000D02*
X136920000Y-25400000D01*
X136160000Y-31400000D02*
X136160000Y-25400000D01*
X135270000Y-34060000D02*
X135270000Y-31400000D01*
X134380000Y-34390000D02*
X134380000Y-34060000D01*
X133620000Y-34390000D02*
X133620000Y-34060000D01*
X134280000Y-31400000D02*
X134280000Y-25400000D01*
X134160000Y-31400000D02*
X134160000Y-25400000D01*
X134040000Y-31400000D02*
X134040000Y-25400000D01*
X133920000Y-31400000D02*
X133920000Y-25400000D01*
X133800000Y-31400000D02*
X133800000Y-25400000D01*
X133680000Y-31400000D02*
X133680000Y-25400000D01*
X134380000Y-25400000D02*
X134380000Y-31400000D01*
X133620000Y-25400000D02*
X134380000Y-25400000D01*
X133620000Y-31400000D02*
X133620000Y-25400000D01*
X132670000Y-31400000D02*
X132670000Y-34060000D01*
X142950000Y-31400000D02*
X132670000Y-31400000D01*
X142950000Y-34060000D02*
X142950000Y-31400000D01*
X132670000Y-34060000D02*
X142950000Y-34060000D01*
X130775000Y-35885000D02*
X130775000Y-39415000D01*
X124305000Y-35885000D02*
X124305000Y-39415000D01*
X130710000Y-34560000D02*
X130710000Y-35885000D01*
X130775000Y-35885000D02*
X130710000Y-35885000D01*
X130775000Y-39415000D02*
X130710000Y-39415000D01*
X124370000Y-35885000D02*
X124305000Y-35885000D01*
X124370000Y-39415000D02*
X124305000Y-39415000D01*
X103510000Y-36624721D02*
X103510000Y-36950279D01*
X102490000Y-36624721D02*
X102490000Y-36950279D01*
X91010000Y-36624721D02*
X91010000Y-36950279D01*
X89990000Y-36624721D02*
X89990000Y-36950279D01*
X106210000Y-44837221D02*
X106210000Y-45162779D01*
X105190000Y-44837221D02*
X105190000Y-45162779D01*
X90990000Y-52450279D02*
X90990000Y-52124721D01*
X92010000Y-52450279D02*
X92010000Y-52124721D01*
X93390000Y-43275279D02*
X93390000Y-42949721D01*
X94410000Y-43275279D02*
X94410000Y-42949721D01*
X100075279Y-57410000D02*
X99749721Y-57410000D01*
X100075279Y-56390000D02*
X99749721Y-56390000D01*
X90620000Y-42180000D02*
X89690000Y-42180000D01*
X87460000Y-42180000D02*
X88390000Y-42180000D01*
X87460000Y-42180000D02*
X87460000Y-44340000D01*
X90620000Y-42180000D02*
X90620000Y-43640000D01*
X108010000Y-38124721D02*
X108010000Y-38450279D01*
X106990000Y-38124721D02*
X106990000Y-38450279D01*
X111010000Y-38124721D02*
X111010000Y-38450279D01*
X109990000Y-38124721D02*
X109990000Y-38450279D01*
X114010000Y-38124721D02*
X114010000Y-38450279D01*
X112990000Y-38124721D02*
X112990000Y-38450279D01*
X75450279Y-49510000D02*
X75124721Y-49510000D01*
X75450279Y-48490000D02*
X75124721Y-48490000D01*
X75450279Y-47510000D02*
X75124721Y-47510000D01*
X75450279Y-46490000D02*
X75124721Y-46490000D01*
X188124721Y-50490000D02*
X188450279Y-50490000D01*
X188124721Y-51510000D02*
X188450279Y-51510000D01*
X188124721Y-52490000D02*
X188450279Y-52490000D01*
X188124721Y-53510000D02*
X188450279Y-53510000D01*
X87990000Y-52450279D02*
X87990000Y-52124721D01*
X89010000Y-52450279D02*
X89010000Y-52124721D01*
X70500000Y-46900000D02*
X70800000Y-46600000D01*
X70500000Y-46300000D02*
X70500000Y-46900000D01*
X70800000Y-46600000D02*
X70500000Y-46300000D01*
X71050000Y-45250000D02*
X73000000Y-45250000D01*
X71050000Y-50750000D02*
X71050000Y-45250000D01*
X73000000Y-50750000D02*
X71050000Y-50750000D01*
X73000000Y-45250000D02*
X73000000Y-50750000D01*
X190500000Y-50900000D02*
X190800000Y-50600000D01*
X190500000Y-50300000D02*
X190500000Y-50900000D01*
X190800000Y-50600000D02*
X190500000Y-50300000D01*
X191050000Y-49250000D02*
X193000000Y-49250000D01*
X191050000Y-54750000D02*
X191050000Y-49250000D01*
X193000000Y-54750000D02*
X191050000Y-54750000D01*
X193000000Y-49250000D02*
X193000000Y-54750000D01*
X66500000Y-46900000D02*
X66800000Y-46600000D01*
X66500000Y-46300000D02*
X66500000Y-46900000D01*
X66800000Y-46600000D02*
X66500000Y-46300000D01*
X67050000Y-45250000D02*
X69000000Y-45250000D01*
X67050000Y-50750000D02*
X67050000Y-45250000D01*
X69000000Y-50750000D02*
X67050000Y-50750000D01*
X69000000Y-45250000D02*
X69000000Y-50750000D01*
X194500000Y-50900000D02*
X194800000Y-50600000D01*
X194500000Y-50300000D02*
X194500000Y-50900000D01*
X194800000Y-50600000D02*
X194500000Y-50300000D01*
X195050000Y-49250000D02*
X197000000Y-49250000D01*
X195050000Y-54750000D02*
X195050000Y-49250000D01*
X197000000Y-54750000D02*
X195050000Y-54750000D01*
X197000000Y-49250000D02*
X197000000Y-54750000D01*
X101400000Y-36925000D02*
X101400000Y-35005000D01*
X92240000Y-35005000D02*
X92240000Y-36925000D01*
X92240000Y-32995000D02*
X92240000Y-31290000D01*
X101400000Y-31290000D02*
X101400000Y-32995000D01*
X92240000Y-31290000D02*
X101400000Y-31290000D01*
X197740000Y-39030000D02*
X194320000Y-39030000D01*
X194320000Y-39030000D02*
X194320000Y-46000000D01*
X194320000Y-46000000D02*
X197740000Y-46000000D01*
X197740000Y-46000000D02*
X197740000Y-39030000D01*
X194830000Y-42515000D02*
X194830000Y-39540000D01*
X194830000Y-39540000D02*
X195580000Y-39540000D01*
X195580000Y-39540000D02*
X195580000Y-39340000D01*
X195580000Y-39340000D02*
X196380000Y-39340000D01*
X196380000Y-39340000D02*
X196380000Y-39540000D01*
X196380000Y-39540000D02*
X197230000Y-39540000D01*
X197230000Y-39540000D02*
X197230000Y-42515000D01*
X194830000Y-42515000D02*
X194830000Y-45490000D01*
X194830000Y-45490000D02*
X195580000Y-45490000D01*
X195580000Y-45490000D02*
X195580000Y-45690000D01*
X195580000Y-45690000D02*
X196380000Y-45690000D01*
X196380000Y-45690000D02*
X196380000Y-45490000D01*
X196380000Y-45490000D02*
X197230000Y-45490000D01*
X197230000Y-45490000D02*
X197230000Y-42515000D01*
X194030000Y-38740000D02*
X195030000Y-38740000D01*
X194030000Y-38740000D02*
X194030000Y-39740000D01*
X190440000Y-47050000D02*
X193100000Y-47050000D01*
X190440000Y-39370000D02*
X190440000Y-47050000D01*
X193100000Y-39370000D02*
X193100000Y-47050000D01*
X190440000Y-39370000D02*
X193100000Y-39370000D01*
X190440000Y-38100000D02*
X190440000Y-36770000D01*
X190440000Y-36770000D02*
X191770000Y-36770000D01*
X72800000Y-34850000D02*
X74500000Y-34850000D01*
X74500000Y-32950000D02*
X72800000Y-32950000D01*
X80900000Y-41350000D02*
X80900000Y-41700000D01*
X80900000Y-34900000D02*
X80900000Y-39350000D01*
X74500000Y-32950000D02*
X74500000Y-31050000D01*
X74500000Y-31050000D02*
X75100000Y-31050000D01*
X75100000Y-31050000D02*
X75100000Y-29050000D01*
X75100000Y-29050000D02*
X80300000Y-29050000D01*
X80300000Y-29050000D02*
X80300000Y-31050000D01*
X80300000Y-31050000D02*
X80900000Y-31050000D01*
X80900000Y-31050000D02*
X80900000Y-32900000D01*
X74500000Y-35700000D02*
X74500000Y-34850000D01*
X74500000Y-40750000D02*
X74500000Y-37550000D01*
X79000000Y-43250000D02*
X74500000Y-43250000D01*
X74500000Y-43250000D02*
X74500000Y-42650000D01*
X106765000Y-34487500D02*
X106765000Y-36772500D01*
X106765000Y-36772500D02*
X108235000Y-36772500D01*
X108235000Y-36772500D02*
X108235000Y-34487500D01*
X109765000Y-34487500D02*
X109765000Y-36772500D01*
X109765000Y-36772500D02*
X111235000Y-36772500D01*
X111235000Y-36772500D02*
X111235000Y-34487500D01*
X112765000Y-34487500D02*
X112765000Y-36772500D01*
X112765000Y-36772500D02*
X114235000Y-36772500D01*
X114235000Y-36772500D02*
X114235000Y-34487500D01*
X89296078Y-46410000D02*
X88778922Y-46410000D01*
X89296078Y-44990000D02*
X88778922Y-44990000D01*
X86910000Y-42641422D02*
X86910000Y-43158578D01*
X85490000Y-42641422D02*
X85490000Y-43158578D01*
X96549721Y-56490000D02*
X96875279Y-56490000D01*
X96549721Y-57510000D02*
X96875279Y-57510000D01*
D13*
X185102500Y-81480660D02*
X185102500Y-79702660D01*
X185102500Y-92402660D02*
X185102500Y-90624660D01*
X186880500Y-92402660D02*
X185102500Y-92402660D01*
X197802500Y-92402660D02*
X196024500Y-92402660D01*
X197802500Y-90624660D02*
X197802500Y-92402660D01*
X197802500Y-79702660D02*
X197802500Y-81480660D01*
X196024500Y-79702660D02*
X197802500Y-79702660D01*
X185102500Y-79702660D02*
X186880500Y-79702660D01*
X185102500Y-119580660D02*
X185102500Y-117802660D01*
X185102500Y-130502660D02*
X185102500Y-128724660D01*
X186880500Y-130502660D02*
X185102500Y-130502660D01*
X197802500Y-130502660D02*
X196024500Y-130502660D01*
X197802500Y-128724660D02*
X197802500Y-130502660D01*
X197802500Y-117802660D02*
X197802500Y-119580660D01*
X196024500Y-117802660D02*
X197802500Y-117802660D01*
X185102500Y-117802660D02*
X186880500Y-117802660D01*
X185102500Y-62433200D02*
X185102500Y-60655200D01*
X185102500Y-73355200D02*
X185102500Y-71577200D01*
X186880500Y-73355200D02*
X185102500Y-73355200D01*
X197802500Y-73355200D02*
X196024500Y-73355200D01*
X197802500Y-71577200D02*
X197802500Y-73355200D01*
X197802500Y-60655200D02*
X197802500Y-62433200D01*
X196024500Y-60655200D02*
X197802500Y-60655200D01*
X185102500Y-60655200D02*
X186880500Y-60655200D01*
X185102500Y-100530660D02*
X185102500Y-98752660D01*
X185102500Y-111452660D02*
X185102500Y-109674660D01*
X186880500Y-111452660D02*
X185102500Y-111452660D01*
X197802500Y-111452660D02*
X196024500Y-111452660D01*
X197802500Y-109674660D02*
X197802500Y-111452660D01*
X197802500Y-98752660D02*
X197802500Y-100530660D01*
X196024500Y-98752660D02*
X197802500Y-98752660D01*
X185102500Y-98752660D02*
X186880500Y-98752660D01*
X85090000Y-60528200D02*
X85090000Y-58750200D01*
X85090000Y-71450200D02*
X85090000Y-69672200D01*
X86868000Y-71450200D02*
X85090000Y-71450200D01*
X97790000Y-71450200D02*
X96012000Y-71450200D01*
X97790000Y-69672200D02*
X97790000Y-71450200D01*
X97790000Y-58750200D02*
X97790000Y-60528200D01*
X96012000Y-58750200D02*
X97790000Y-58750200D01*
X85090000Y-58750200D02*
X86868000Y-58750200D01*
X142240000Y-78305660D02*
X142240000Y-76527660D01*
X142240000Y-89227660D02*
X142240000Y-87449660D01*
X144018000Y-89227660D02*
X142240000Y-89227660D01*
X154940000Y-89227660D02*
X153162000Y-89227660D01*
X154940000Y-87449660D02*
X154940000Y-89227660D01*
X154940000Y-76527660D02*
X154940000Y-78305660D01*
X153162000Y-76527660D02*
X154940000Y-76527660D01*
X142240000Y-76527660D02*
X144018000Y-76527660D01*
X62578467Y-168804545D02*
X60967052Y-169555960D01*
X72477160Y-164188708D02*
X70865745Y-164940124D01*
X71725745Y-162577293D02*
X72477160Y-164188708D01*
X67109908Y-152678600D02*
X67861324Y-154290015D01*
X65498493Y-153430015D02*
X67109908Y-152678600D01*
X55599800Y-158045852D02*
X57211215Y-157294436D01*
X56351215Y-159657267D02*
X55599800Y-158045852D01*
X60967052Y-169555960D02*
X60215636Y-167944545D01*
X79842847Y-160752745D02*
X78231432Y-161504160D01*
X89741540Y-156136908D02*
X88130125Y-156888324D01*
X88990125Y-154525493D02*
X89741540Y-156136908D01*
X84374288Y-144626800D02*
X85125704Y-146238215D01*
X82762873Y-145378215D02*
X84374288Y-144626800D01*
X72864180Y-149994052D02*
X74475595Y-149242636D01*
X73615595Y-151605467D02*
X72864180Y-149994052D01*
X78231432Y-161504160D02*
X77480016Y-159892745D01*
X104140000Y-135455660D02*
X104140000Y-133677660D01*
X104140000Y-146377660D02*
X104140000Y-144599660D01*
X105918000Y-146377660D02*
X104140000Y-146377660D01*
X116840000Y-146377660D02*
X115062000Y-146377660D01*
X116840000Y-144599660D02*
X116840000Y-146377660D01*
X116840000Y-133677660D02*
X116840000Y-135455660D01*
X115062000Y-133677660D02*
X116840000Y-133677660D01*
X104140000Y-133677660D02*
X105918000Y-133677660D01*
X123190000Y-133858000D02*
X123190000Y-132080000D01*
X123190000Y-144780000D02*
X123190000Y-143002000D01*
X124968000Y-144780000D02*
X123190000Y-144780000D01*
X135890000Y-144780000D02*
X134112000Y-144780000D01*
X135890000Y-143002000D02*
X135890000Y-144780000D01*
X135890000Y-132080000D02*
X135890000Y-133858000D01*
X134112000Y-132080000D02*
X135890000Y-132080000D01*
X123190000Y-132080000D02*
X124968000Y-132080000D01*
X161290000Y-138630660D02*
X161290000Y-136852660D01*
X161290000Y-149552660D02*
X161290000Y-147774660D01*
X163068000Y-149552660D02*
X161290000Y-149552660D01*
X173990000Y-149552660D02*
X172212000Y-149552660D01*
X173990000Y-147774660D02*
X173990000Y-149552660D01*
X173990000Y-136852660D02*
X173990000Y-138630660D01*
X172212000Y-136852660D02*
X173990000Y-136852660D01*
X161290000Y-136852660D02*
X163068000Y-136852660D01*
X85090000Y-117675660D02*
X85090000Y-115897660D01*
X85090000Y-128597660D02*
X85090000Y-126819660D01*
X86868000Y-128597660D02*
X85090000Y-128597660D01*
X97790000Y-128597660D02*
X96012000Y-128597660D01*
X97790000Y-126819660D02*
X97790000Y-128597660D01*
X97790000Y-115897660D02*
X97790000Y-117675660D01*
X96012000Y-115897660D02*
X97790000Y-115897660D01*
X85090000Y-115897660D02*
X86868000Y-115897660D01*
X104140000Y-116405660D02*
X104140000Y-114627660D01*
X104140000Y-127327660D02*
X104140000Y-125549660D01*
X105918000Y-127327660D02*
X104140000Y-127327660D01*
X116840000Y-127327660D02*
X115062000Y-127327660D01*
X116840000Y-125549660D02*
X116840000Y-127327660D01*
X116840000Y-114627660D02*
X116840000Y-116405660D01*
X115062000Y-114627660D02*
X116840000Y-114627660D01*
X104140000Y-114627660D02*
X105918000Y-114627660D01*
X123190000Y-114808000D02*
X123190000Y-113030000D01*
X123190000Y-125730000D02*
X123190000Y-123952000D01*
X124968000Y-125730000D02*
X123190000Y-125730000D01*
X135890000Y-125730000D02*
X134112000Y-125730000D01*
X135890000Y-123952000D02*
X135890000Y-125730000D01*
X135890000Y-113030000D02*
X135890000Y-114808000D01*
X134112000Y-113030000D02*
X135890000Y-113030000D01*
X123190000Y-113030000D02*
X124968000Y-113030000D01*
X142240000Y-116405660D02*
X142240000Y-114627660D01*
X142240000Y-127327660D02*
X142240000Y-125549660D01*
X144018000Y-127327660D02*
X142240000Y-127327660D01*
X154940000Y-127327660D02*
X153162000Y-127327660D01*
X154940000Y-125549660D02*
X154940000Y-127327660D01*
X154940000Y-114627660D02*
X154940000Y-116405660D01*
X153162000Y-114627660D02*
X154940000Y-114627660D01*
X142240000Y-114627660D02*
X144018000Y-114627660D01*
X161290000Y-119580660D02*
X161290000Y-117802660D01*
X161290000Y-130502660D02*
X161290000Y-128724660D01*
X163068000Y-130502660D02*
X161290000Y-130502660D01*
X173990000Y-130502660D02*
X172212000Y-130502660D01*
X173990000Y-128724660D02*
X173990000Y-130502660D01*
X173990000Y-117802660D02*
X173990000Y-119580660D01*
X172212000Y-117802660D02*
X173990000Y-117802660D01*
X161290000Y-117802660D02*
X163068000Y-117802660D01*
X85090000Y-98625660D02*
X85090000Y-96847660D01*
X85090000Y-109547660D02*
X85090000Y-107769660D01*
X86868000Y-109547660D02*
X85090000Y-109547660D01*
X97790000Y-109547660D02*
X96012000Y-109547660D01*
X97790000Y-107769660D02*
X97790000Y-109547660D01*
X97790000Y-96847660D02*
X97790000Y-98625660D01*
X96012000Y-96847660D02*
X97790000Y-96847660D01*
X85090000Y-96847660D02*
X86868000Y-96847660D01*
X104140000Y-97355660D02*
X104140000Y-95577660D01*
X104140000Y-108277660D02*
X104140000Y-106499660D01*
X105918000Y-108277660D02*
X104140000Y-108277660D01*
X116840000Y-108277660D02*
X115062000Y-108277660D01*
X116840000Y-106499660D02*
X116840000Y-108277660D01*
X116840000Y-95577660D02*
X116840000Y-97355660D01*
X115062000Y-95577660D02*
X116840000Y-95577660D01*
X104140000Y-95577660D02*
X105918000Y-95577660D01*
X123190000Y-95758000D02*
X123190000Y-93980000D01*
X123190000Y-106680000D02*
X123190000Y-104902000D01*
X124968000Y-106680000D02*
X123190000Y-106680000D01*
X135890000Y-106680000D02*
X134112000Y-106680000D01*
X135890000Y-104902000D02*
X135890000Y-106680000D01*
X135890000Y-93980000D02*
X135890000Y-95758000D01*
X134112000Y-93980000D02*
X135890000Y-93980000D01*
X123190000Y-93980000D02*
X124968000Y-93980000D01*
X142240000Y-97355660D02*
X142240000Y-95577660D01*
X142240000Y-108277660D02*
X142240000Y-106499660D01*
X144018000Y-108277660D02*
X142240000Y-108277660D01*
X154940000Y-108277660D02*
X153162000Y-108277660D01*
X154940000Y-106499660D02*
X154940000Y-108277660D01*
X154940000Y-95577660D02*
X154940000Y-97355660D01*
X153162000Y-95577660D02*
X154940000Y-95577660D01*
X142240000Y-95577660D02*
X144018000Y-95577660D01*
X104140000Y-78305660D02*
X104140000Y-76527660D01*
X104140000Y-89227660D02*
X104140000Y-87449660D01*
X105918000Y-89227660D02*
X104140000Y-89227660D01*
X116840000Y-89227660D02*
X115062000Y-89227660D01*
X116840000Y-87449660D02*
X116840000Y-89227660D01*
X116840000Y-76527660D02*
X116840000Y-78305660D01*
X115062000Y-76527660D02*
X116840000Y-76527660D01*
X104140000Y-76527660D02*
X105918000Y-76527660D01*
X123190000Y-76708000D02*
X123190000Y-74930000D01*
X123190000Y-87630000D02*
X123190000Y-85852000D01*
X124968000Y-87630000D02*
X123190000Y-87630000D01*
X135890000Y-87630000D02*
X134112000Y-87630000D01*
X135890000Y-85852000D02*
X135890000Y-87630000D01*
X135890000Y-74930000D02*
X135890000Y-76708000D01*
X134112000Y-74930000D02*
X135890000Y-74930000D01*
X123190000Y-74930000D02*
X124968000Y-74930000D01*
X161290000Y-81480660D02*
X161290000Y-79702660D01*
X161290000Y-92402660D02*
X161290000Y-90624660D01*
X163068000Y-92402660D02*
X161290000Y-92402660D01*
X173990000Y-92402660D02*
X172212000Y-92402660D01*
X173990000Y-90624660D02*
X173990000Y-92402660D01*
X173990000Y-79702660D02*
X173990000Y-81480660D01*
X172212000Y-79702660D02*
X173990000Y-79702660D01*
X161290000Y-79702660D02*
X163068000Y-79702660D01*
X142240000Y-135455660D02*
X142240000Y-133677660D01*
X142240000Y-146377660D02*
X142240000Y-144599660D01*
X144018000Y-146377660D02*
X142240000Y-146377660D01*
X154940000Y-146377660D02*
X153162000Y-146377660D01*
X154940000Y-144599660D02*
X154940000Y-146377660D01*
X154940000Y-133677660D02*
X154940000Y-135455660D01*
X153162000Y-133677660D02*
X154940000Y-133677660D01*
X142240000Y-133677660D02*
X144018000Y-133677660D01*
X104140000Y-59255660D02*
X104140000Y-57477660D01*
X104140000Y-70177660D02*
X104140000Y-68399660D01*
X105918000Y-70177660D02*
X104140000Y-70177660D01*
X116840000Y-70177660D02*
X115062000Y-70177660D01*
X116840000Y-68399660D02*
X116840000Y-70177660D01*
X116840000Y-57477660D02*
X116840000Y-59255660D01*
X115062000Y-57477660D02*
X116840000Y-57477660D01*
X104140000Y-57477660D02*
X105918000Y-57477660D01*
X123190000Y-57658000D02*
X123190000Y-55880000D01*
X123190000Y-68580000D02*
X123190000Y-66802000D01*
X124968000Y-68580000D02*
X123190000Y-68580000D01*
X135890000Y-68580000D02*
X134112000Y-68580000D01*
X135890000Y-66802000D02*
X135890000Y-68580000D01*
X135890000Y-55880000D02*
X135890000Y-57658000D01*
X134112000Y-55880000D02*
X135890000Y-55880000D01*
X123190000Y-55880000D02*
X124968000Y-55880000D01*
X142240000Y-59255660D02*
X142240000Y-57477660D01*
X142240000Y-70177660D02*
X142240000Y-68399660D01*
X144018000Y-70177660D02*
X142240000Y-70177660D01*
X154940000Y-70177660D02*
X153162000Y-70177660D01*
X154940000Y-68399660D02*
X154940000Y-70177660D01*
X154940000Y-57477660D02*
X154940000Y-59255660D01*
X153162000Y-57477660D02*
X154940000Y-57477660D01*
X142240000Y-57477660D02*
X144018000Y-57477660D01*
X161290000Y-62433200D02*
X161290000Y-60655200D01*
X161290000Y-73355200D02*
X161290000Y-71577200D01*
X163068000Y-73355200D02*
X161290000Y-73355200D01*
X173990000Y-73355200D02*
X172212000Y-73355200D01*
X173990000Y-71577200D02*
X173990000Y-73355200D01*
X173990000Y-60655200D02*
X173990000Y-62433200D01*
X172212000Y-60655200D02*
X173990000Y-60655200D01*
X161290000Y-60655200D02*
X163068000Y-60655200D01*
X44276055Y-133759427D02*
X43524640Y-132148012D01*
X48891892Y-143658120D02*
X48140476Y-142046705D01*
X50503307Y-142906705D02*
X48891892Y-143658120D01*
X60402000Y-138290868D02*
X58790585Y-139042284D01*
X59650585Y-136679453D02*
X60402000Y-138290868D01*
X55034748Y-126780760D02*
X55786164Y-128392175D01*
X53423333Y-127532175D02*
X55034748Y-126780760D01*
X43524640Y-132148012D02*
X45136055Y-131396596D01*
X27011675Y-141808687D02*
X26260260Y-140197272D01*
X31627512Y-151707380D02*
X30876096Y-150095965D01*
X33238927Y-150955965D02*
X31627512Y-151707380D01*
X43137620Y-146340128D02*
X41526205Y-147091544D01*
X42386205Y-144728713D02*
X43137620Y-146340128D01*
X37770368Y-134830020D02*
X38521784Y-136441435D01*
X36158953Y-135581435D02*
X37770368Y-134830020D01*
X26260260Y-140197272D02*
X27871675Y-139445856D01*
X43112735Y-176339987D02*
X42361320Y-174728572D01*
X47728572Y-186238680D02*
X46977156Y-184627265D01*
X49339987Y-185487265D02*
X47728572Y-186238680D01*
X59238680Y-180871428D02*
X57627265Y-181622844D01*
X58487265Y-179260013D02*
X59238680Y-180871428D01*
X53871428Y-169361320D02*
X54622844Y-170972735D01*
X52260013Y-170112735D02*
X53871428Y-169361320D01*
X42361320Y-174728572D02*
X43972735Y-173977156D01*
X35060935Y-159073067D02*
X34309520Y-157461652D01*
X39676772Y-168971760D02*
X38925356Y-167360345D01*
X41288187Y-168220345D02*
X39676772Y-168971760D01*
X51186880Y-163604508D02*
X49575465Y-164355924D01*
X50435465Y-161993093D02*
X51186880Y-163604508D01*
X45819628Y-152094400D02*
X46571044Y-153705815D01*
X44208213Y-152845815D02*
X45819628Y-152094400D01*
X34309520Y-157461652D02*
X35920935Y-156710236D01*
X85090000Y-79575660D02*
X85090000Y-77797660D01*
X85090000Y-90497660D02*
X85090000Y-88719660D01*
X86868000Y-90497660D02*
X85090000Y-90497660D01*
X97790000Y-90497660D02*
X96012000Y-90497660D01*
X97790000Y-88719660D02*
X97790000Y-90497660D01*
X97790000Y-77797660D02*
X97790000Y-79575660D01*
X96012000Y-77797660D02*
X97790000Y-77797660D01*
X85090000Y-77797660D02*
X86868000Y-77797660D01*
X180340000Y-138630660D02*
X180340000Y-136852660D01*
X180340000Y-149552660D02*
X180340000Y-147774660D01*
X182118000Y-149552660D02*
X180340000Y-149552660D01*
X193040000Y-149552660D02*
X191262000Y-149552660D01*
X193040000Y-147774660D02*
X193040000Y-149552660D01*
X193040000Y-136852660D02*
X193040000Y-138630660D01*
X191262000Y-136852660D02*
X193040000Y-136852660D01*
X180340000Y-136852660D02*
X182118000Y-136852660D01*
X67818000Y-123835160D02*
X66040000Y-123835160D01*
X78740000Y-123835160D02*
X76962000Y-123835160D01*
X78740000Y-122057160D02*
X78740000Y-123835160D01*
X78740000Y-111135160D02*
X78740000Y-112913160D01*
X76962000Y-111135160D02*
X78740000Y-111135160D01*
X66040000Y-111135160D02*
X67818000Y-111135160D01*
X66040000Y-112913160D02*
X66040000Y-111135160D01*
X66040000Y-123835160D02*
X66040000Y-122057160D01*
X67818000Y-95260160D02*
X66040000Y-95260160D01*
X78740000Y-95260160D02*
X76962000Y-95260160D01*
X78740000Y-93482160D02*
X78740000Y-95260160D01*
X78740000Y-82560160D02*
X78740000Y-84338160D01*
X76962000Y-82560160D02*
X78740000Y-82560160D01*
X66040000Y-82560160D02*
X67818000Y-82560160D01*
X66040000Y-84338160D02*
X66040000Y-82560160D01*
X66040000Y-95260160D02*
X66040000Y-93482160D01*
X66040000Y-60528200D02*
X66040000Y-58750200D01*
X66040000Y-71450200D02*
X66040000Y-69672200D01*
X67818000Y-71450200D02*
X66040000Y-71450200D01*
X78740000Y-71450200D02*
X76962000Y-71450200D01*
X78740000Y-69672200D02*
X78740000Y-71450200D01*
X78740000Y-58750200D02*
X78740000Y-60528200D01*
X76962000Y-58750200D02*
X78740000Y-58750200D01*
X66040000Y-58750200D02*
X67818000Y-58750200D01*
X161290000Y-100530660D02*
X161290000Y-98752660D01*
X161290000Y-111452660D02*
X161290000Y-109674660D01*
X163068000Y-111452660D02*
X161290000Y-111452660D01*
X173990000Y-111452660D02*
X172212000Y-111452660D01*
X173990000Y-109674660D02*
X173990000Y-111452660D01*
X173990000Y-98752660D02*
X173990000Y-100530660D01*
X172212000Y-98752660D02*
X173990000Y-98752660D01*
X161290000Y-98752660D02*
X163068000Y-98752660D01*
D14*
X81238095Y-49804380D02*
X81809523Y-49804380D01*
X81523809Y-50804380D02*
X81523809Y-49804380D01*
X82142857Y-50804380D02*
X82142857Y-49804380D01*
X82523809Y-49804380D01*
X82619047Y-49852000D01*
X82666666Y-49899619D01*
X82714285Y-49994857D01*
X82714285Y-50137714D01*
X82666666Y-50232952D01*
X82619047Y-50280571D01*
X82523809Y-50328190D01*
X82142857Y-50328190D01*
X83619047Y-49804380D02*
X83142857Y-49804380D01*
X83095238Y-50280571D01*
X83142857Y-50232952D01*
X83238095Y-50185333D01*
X83476190Y-50185333D01*
X83571428Y-50232952D01*
X83619047Y-50280571D01*
X83666666Y-50375809D01*
X83666666Y-50613904D01*
X83619047Y-50709142D01*
X83571428Y-50756761D01*
X83476190Y-50804380D01*
X83238095Y-50804380D01*
X83142857Y-50756761D01*
X83095238Y-50709142D01*
X78238095Y-49804380D02*
X78809523Y-49804380D01*
X78523809Y-50804380D02*
X78523809Y-49804380D01*
X79142857Y-50804380D02*
X79142857Y-49804380D01*
X79523809Y-49804380D01*
X79619047Y-49852000D01*
X79666666Y-49899619D01*
X79714285Y-49994857D01*
X79714285Y-50137714D01*
X79666666Y-50232952D01*
X79619047Y-50280571D01*
X79523809Y-50328190D01*
X79142857Y-50328190D01*
X80571428Y-50137714D02*
X80571428Y-50804380D01*
X80333333Y-49756761D02*
X80095238Y-50471047D01*
X80714285Y-50471047D01*
X81238095Y-53804380D02*
X81809523Y-53804380D01*
X81523809Y-54804380D02*
X81523809Y-53804380D01*
X82142857Y-54804380D02*
X82142857Y-53804380D01*
X82523809Y-53804380D01*
X82619047Y-53852000D01*
X82666666Y-53899619D01*
X82714285Y-53994857D01*
X82714285Y-54137714D01*
X82666666Y-54232952D01*
X82619047Y-54280571D01*
X82523809Y-54328190D01*
X82142857Y-54328190D01*
X83047619Y-53804380D02*
X83666666Y-53804380D01*
X83333333Y-54185333D01*
X83476190Y-54185333D01*
X83571428Y-54232952D01*
X83619047Y-54280571D01*
X83666666Y-54375809D01*
X83666666Y-54613904D01*
X83619047Y-54709142D01*
X83571428Y-54756761D01*
X83476190Y-54804380D01*
X83190476Y-54804380D01*
X83095238Y-54756761D01*
X83047619Y-54709142D01*
X79738095Y-44604380D02*
X80309523Y-44604380D01*
X80023809Y-45604380D02*
X80023809Y-44604380D01*
X80642857Y-45604380D02*
X80642857Y-44604380D01*
X81023809Y-44604380D01*
X81119047Y-44652000D01*
X81166666Y-44699619D01*
X81214285Y-44794857D01*
X81214285Y-44937714D01*
X81166666Y-45032952D01*
X81119047Y-45080571D01*
X81023809Y-45128190D01*
X80642857Y-45128190D01*
X81595238Y-44699619D02*
X81642857Y-44652000D01*
X81738095Y-44604380D01*
X81976190Y-44604380D01*
X82071428Y-44652000D01*
X82119047Y-44699619D01*
X82166666Y-44794857D01*
X82166666Y-44890095D01*
X82119047Y-45032952D01*
X81547619Y-45604380D01*
X82166666Y-45604380D01*
X75238095Y-49804380D02*
X75809523Y-49804380D01*
X75523809Y-50804380D02*
X75523809Y-49804380D01*
X76142857Y-50804380D02*
X76142857Y-49804380D01*
X76523809Y-49804380D01*
X76619047Y-49852000D01*
X76666666Y-49899619D01*
X76714285Y-49994857D01*
X76714285Y-50137714D01*
X76666666Y-50232952D01*
X76619047Y-50280571D01*
X76523809Y-50328190D01*
X76142857Y-50328190D01*
X77666666Y-50804380D02*
X77095238Y-50804380D01*
X77380952Y-50804380D02*
X77380952Y-49804380D01*
X77285714Y-49947238D01*
X77190476Y-50042476D01*
X77095238Y-50090095D01*
X91952380Y-49324404D02*
X92761904Y-49324404D01*
X92857142Y-49276785D01*
X92904761Y-49229166D01*
X92952380Y-49133928D01*
X92952380Y-48943452D01*
X92904761Y-48848214D01*
X92857142Y-48800595D01*
X92761904Y-48752976D01*
X91952380Y-48752976D01*
X92952380Y-47752976D02*
X92952380Y-48324404D01*
X92952380Y-48038690D02*
X91952380Y-48038690D01*
X92095238Y-48133928D01*
X92190476Y-48229166D01*
X92238095Y-48324404D01*
X131182380Y-31448333D02*
X131896666Y-31448333D01*
X132039523Y-31495952D01*
X132134761Y-31591190D01*
X132182380Y-31734047D01*
X132182380Y-31829285D01*
X132182380Y-30924523D02*
X132182380Y-30734047D01*
X132134761Y-30638809D01*
X132087142Y-30591190D01*
X131944285Y-30495952D01*
X131753809Y-30448333D01*
X131372857Y-30448333D01*
X131277619Y-30495952D01*
X131230000Y-30543571D01*
X131182380Y-30638809D01*
X131182380Y-30829285D01*
X131230000Y-30924523D01*
X131277619Y-30972142D01*
X131372857Y-31019761D01*
X131610952Y-31019761D01*
X131706190Y-30972142D01*
X131753809Y-30924523D01*
X131801428Y-30829285D01*
X131801428Y-30638809D01*
X131753809Y-30543571D01*
X131706190Y-30495952D01*
X131610952Y-30448333D01*
X131227380Y-37983333D02*
X131941666Y-37983333D01*
X132084523Y-38030952D01*
X132179761Y-38126190D01*
X132227380Y-38269047D01*
X132227380Y-38364285D01*
X131655952Y-37364285D02*
X131608333Y-37459523D01*
X131560714Y-37507142D01*
X131465476Y-37554761D01*
X131417857Y-37554761D01*
X131322619Y-37507142D01*
X131275000Y-37459523D01*
X131227380Y-37364285D01*
X131227380Y-37173809D01*
X131275000Y-37078571D01*
X131322619Y-37030952D01*
X131417857Y-36983333D01*
X131465476Y-36983333D01*
X131560714Y-37030952D01*
X131608333Y-37078571D01*
X131655952Y-37173809D01*
X131655952Y-37364285D01*
X131703571Y-37459523D01*
X131751190Y-37507142D01*
X131846428Y-37554761D01*
X132036904Y-37554761D01*
X132132142Y-37507142D01*
X132179761Y-37459523D01*
X132227380Y-37364285D01*
X132227380Y-37173809D01*
X132179761Y-37078571D01*
X132132142Y-37030952D01*
X132036904Y-36983333D01*
X131846428Y-36983333D01*
X131751190Y-37030952D01*
X131703571Y-37078571D01*
X131655952Y-37173809D01*
X104882380Y-37430357D02*
X104406190Y-37763690D01*
X104882380Y-38001785D02*
X103882380Y-38001785D01*
X103882380Y-37620833D01*
X103930000Y-37525595D01*
X103977619Y-37477976D01*
X104072857Y-37430357D01*
X104215714Y-37430357D01*
X104310952Y-37477976D01*
X104358571Y-37525595D01*
X104406190Y-37620833D01*
X104406190Y-38001785D01*
X104882380Y-36477976D02*
X104882380Y-37049404D01*
X104882380Y-36763690D02*
X103882380Y-36763690D01*
X104025238Y-36858928D01*
X104120476Y-36954166D01*
X104168095Y-37049404D01*
X103882380Y-35858928D02*
X103882380Y-35763690D01*
X103930000Y-35668452D01*
X103977619Y-35620833D01*
X104072857Y-35573214D01*
X104263333Y-35525595D01*
X104501428Y-35525595D01*
X104691904Y-35573214D01*
X104787142Y-35620833D01*
X104834761Y-35668452D01*
X104882380Y-35763690D01*
X104882380Y-35858928D01*
X104834761Y-35954166D01*
X104787142Y-36001785D01*
X104691904Y-36049404D01*
X104501428Y-36097023D01*
X104263333Y-36097023D01*
X104072857Y-36049404D01*
X103977619Y-36001785D01*
X103930000Y-35954166D01*
X103882380Y-35858928D01*
X89452380Y-36954166D02*
X88976190Y-37287500D01*
X89452380Y-37525595D02*
X88452380Y-37525595D01*
X88452380Y-37144642D01*
X88500000Y-37049404D01*
X88547619Y-37001785D01*
X88642857Y-36954166D01*
X88785714Y-36954166D01*
X88880952Y-37001785D01*
X88928571Y-37049404D01*
X88976190Y-37144642D01*
X88976190Y-37525595D01*
X89452380Y-36477976D02*
X89452380Y-36287500D01*
X89404761Y-36192261D01*
X89357142Y-36144642D01*
X89214285Y-36049404D01*
X89023809Y-36001785D01*
X88642857Y-36001785D01*
X88547619Y-36049404D01*
X88500000Y-36097023D01*
X88452380Y-36192261D01*
X88452380Y-36382738D01*
X88500000Y-36477976D01*
X88547619Y-36525595D01*
X88642857Y-36573214D01*
X88880952Y-36573214D01*
X88976190Y-36525595D01*
X89023809Y-36477976D01*
X89071428Y-36382738D01*
X89071428Y-36192261D01*
X89023809Y-36097023D01*
X88976190Y-36049404D01*
X88880952Y-36001785D01*
X107487142Y-45166666D02*
X107534761Y-45214285D01*
X107582380Y-45357142D01*
X107582380Y-45452380D01*
X107534761Y-45595238D01*
X107439523Y-45690476D01*
X107344285Y-45738095D01*
X107153809Y-45785714D01*
X107010952Y-45785714D01*
X106820476Y-45738095D01*
X106725238Y-45690476D01*
X106630000Y-45595238D01*
X106582380Y-45452380D01*
X106582380Y-45357142D01*
X106630000Y-45214285D01*
X106677619Y-45166666D01*
X106582380Y-44833333D02*
X106582380Y-44166666D01*
X107582380Y-44595238D01*
X90427142Y-52454166D02*
X90474761Y-52501785D01*
X90522380Y-52644642D01*
X90522380Y-52739880D01*
X90474761Y-52882738D01*
X90379523Y-52977976D01*
X90284285Y-53025595D01*
X90093809Y-53073214D01*
X89950952Y-53073214D01*
X89760476Y-53025595D01*
X89665238Y-52977976D01*
X89570000Y-52882738D01*
X89522380Y-52739880D01*
X89522380Y-52644642D01*
X89570000Y-52501785D01*
X89617619Y-52454166D01*
X89522380Y-51597023D02*
X89522380Y-51787500D01*
X89570000Y-51882738D01*
X89617619Y-51930357D01*
X89760476Y-52025595D01*
X89950952Y-52073214D01*
X90331904Y-52073214D01*
X90427142Y-52025595D01*
X90474761Y-51977976D01*
X90522380Y-51882738D01*
X90522380Y-51692261D01*
X90474761Y-51597023D01*
X90427142Y-51549404D01*
X90331904Y-51501785D01*
X90093809Y-51501785D01*
X89998571Y-51549404D01*
X89950952Y-51597023D01*
X89903333Y-51692261D01*
X89903333Y-51882738D01*
X89950952Y-51977976D01*
X89998571Y-52025595D01*
X90093809Y-52073214D01*
X92827142Y-43279166D02*
X92874761Y-43326785D01*
X92922380Y-43469642D01*
X92922380Y-43564880D01*
X92874761Y-43707738D01*
X92779523Y-43802976D01*
X92684285Y-43850595D01*
X92493809Y-43898214D01*
X92350952Y-43898214D01*
X92160476Y-43850595D01*
X92065238Y-43802976D01*
X91970000Y-43707738D01*
X91922380Y-43564880D01*
X91922380Y-43469642D01*
X91970000Y-43326785D01*
X92017619Y-43279166D01*
X91922380Y-42374404D02*
X91922380Y-42850595D01*
X92398571Y-42898214D01*
X92350952Y-42850595D01*
X92303333Y-42755357D01*
X92303333Y-42517261D01*
X92350952Y-42422023D01*
X92398571Y-42374404D01*
X92493809Y-42326785D01*
X92731904Y-42326785D01*
X92827142Y-42374404D01*
X92874761Y-42422023D01*
X92922380Y-42517261D01*
X92922380Y-42755357D01*
X92874761Y-42850595D01*
X92827142Y-42898214D01*
X99745833Y-58687142D02*
X99698214Y-58734761D01*
X99555357Y-58782380D01*
X99460119Y-58782380D01*
X99317261Y-58734761D01*
X99222023Y-58639523D01*
X99174404Y-58544285D01*
X99126785Y-58353809D01*
X99126785Y-58210952D01*
X99174404Y-58020476D01*
X99222023Y-57925238D01*
X99317261Y-57830000D01*
X99460119Y-57782380D01*
X99555357Y-57782380D01*
X99698214Y-57830000D01*
X99745833Y-57877619D01*
X100602976Y-58115714D02*
X100602976Y-58782380D01*
X100364880Y-57734761D02*
X100126785Y-58449047D01*
X100745833Y-58449047D01*
X88552380Y-40961904D02*
X89361904Y-40961904D01*
X89457142Y-40914285D01*
X89504761Y-40866666D01*
X89552380Y-40771428D01*
X89552380Y-40580952D01*
X89504761Y-40485714D01*
X89457142Y-40438095D01*
X89361904Y-40390476D01*
X88552380Y-40390476D01*
X88647619Y-39961904D02*
X88600000Y-39914285D01*
X88552380Y-39819047D01*
X88552380Y-39580952D01*
X88600000Y-39485714D01*
X88647619Y-39438095D01*
X88742857Y-39390476D01*
X88838095Y-39390476D01*
X88980952Y-39438095D01*
X89552380Y-40009523D01*
X89552380Y-39390476D01*
X106452380Y-38454166D02*
X105976190Y-38787500D01*
X106452380Y-39025595D02*
X105452380Y-39025595D01*
X105452380Y-38644642D01*
X105500000Y-38549404D01*
X105547619Y-38501785D01*
X105642857Y-38454166D01*
X105785714Y-38454166D01*
X105880952Y-38501785D01*
X105928571Y-38549404D01*
X105976190Y-38644642D01*
X105976190Y-39025595D01*
X105880952Y-37882738D02*
X105833333Y-37977976D01*
X105785714Y-38025595D01*
X105690476Y-38073214D01*
X105642857Y-38073214D01*
X105547619Y-38025595D01*
X105500000Y-37977976D01*
X105452380Y-37882738D01*
X105452380Y-37692261D01*
X105500000Y-37597023D01*
X105547619Y-37549404D01*
X105642857Y-37501785D01*
X105690476Y-37501785D01*
X105785714Y-37549404D01*
X105833333Y-37597023D01*
X105880952Y-37692261D01*
X105880952Y-37882738D01*
X105928571Y-37977976D01*
X105976190Y-38025595D01*
X106071428Y-38073214D01*
X106261904Y-38073214D01*
X106357142Y-38025595D01*
X106404761Y-37977976D01*
X106452380Y-37882738D01*
X106452380Y-37692261D01*
X106404761Y-37597023D01*
X106357142Y-37549404D01*
X106261904Y-37501785D01*
X106071428Y-37501785D01*
X105976190Y-37549404D01*
X105928571Y-37597023D01*
X105880952Y-37692261D01*
X109452380Y-38454166D02*
X108976190Y-38787500D01*
X109452380Y-39025595D02*
X108452380Y-39025595D01*
X108452380Y-38644642D01*
X108500000Y-38549404D01*
X108547619Y-38501785D01*
X108642857Y-38454166D01*
X108785714Y-38454166D01*
X108880952Y-38501785D01*
X108928571Y-38549404D01*
X108976190Y-38644642D01*
X108976190Y-39025595D01*
X108452380Y-38120833D02*
X108452380Y-37454166D01*
X109452380Y-37882738D01*
X112452380Y-38454166D02*
X111976190Y-38787500D01*
X112452380Y-39025595D02*
X111452380Y-39025595D01*
X111452380Y-38644642D01*
X111500000Y-38549404D01*
X111547619Y-38501785D01*
X111642857Y-38454166D01*
X111785714Y-38454166D01*
X111880952Y-38501785D01*
X111928571Y-38549404D01*
X111976190Y-38644642D01*
X111976190Y-39025595D01*
X111452380Y-37597023D02*
X111452380Y-37787500D01*
X111500000Y-37882738D01*
X111547619Y-37930357D01*
X111690476Y-38025595D01*
X111880952Y-38073214D01*
X112261904Y-38073214D01*
X112357142Y-38025595D01*
X112404761Y-37977976D01*
X112452380Y-37882738D01*
X112452380Y-37692261D01*
X112404761Y-37597023D01*
X112357142Y-37549404D01*
X112261904Y-37501785D01*
X112023809Y-37501785D01*
X111928571Y-37549404D01*
X111880952Y-37597023D01*
X111833333Y-37692261D01*
X111833333Y-37882738D01*
X111880952Y-37977976D01*
X111928571Y-38025595D01*
X112023809Y-38073214D01*
X77333333Y-49452380D02*
X77000000Y-48976190D01*
X76761904Y-49452380D02*
X76761904Y-48452380D01*
X77142857Y-48452380D01*
X77238095Y-48500000D01*
X77285714Y-48547619D01*
X77333333Y-48642857D01*
X77333333Y-48785714D01*
X77285714Y-48880952D01*
X77238095Y-48928571D01*
X77142857Y-48976190D01*
X76761904Y-48976190D01*
X78238095Y-48452380D02*
X77761904Y-48452380D01*
X77714285Y-48928571D01*
X77761904Y-48880952D01*
X77857142Y-48833333D01*
X78095238Y-48833333D01*
X78190476Y-48880952D01*
X78238095Y-48928571D01*
X78285714Y-49023809D01*
X78285714Y-49261904D01*
X78238095Y-49357142D01*
X78190476Y-49404761D01*
X78095238Y-49452380D01*
X77857142Y-49452380D01*
X77761904Y-49404761D01*
X77714285Y-49357142D01*
X77333333Y-47452380D02*
X77000000Y-46976190D01*
X76761904Y-47452380D02*
X76761904Y-46452380D01*
X77142857Y-46452380D01*
X77238095Y-46500000D01*
X77285714Y-46547619D01*
X77333333Y-46642857D01*
X77333333Y-46785714D01*
X77285714Y-46880952D01*
X77238095Y-46928571D01*
X77142857Y-46976190D01*
X76761904Y-46976190D01*
X78190476Y-46785714D02*
X78190476Y-47452380D01*
X77952380Y-46404761D02*
X77714285Y-47119047D01*
X78333333Y-47119047D01*
X185333333Y-51452380D02*
X185000000Y-50976190D01*
X184761904Y-51452380D02*
X184761904Y-50452380D01*
X185142857Y-50452380D01*
X185238095Y-50500000D01*
X185285714Y-50547619D01*
X185333333Y-50642857D01*
X185333333Y-50785714D01*
X185285714Y-50880952D01*
X185238095Y-50928571D01*
X185142857Y-50976190D01*
X184761904Y-50976190D01*
X185666666Y-50452380D02*
X186285714Y-50452380D01*
X185952380Y-50833333D01*
X186095238Y-50833333D01*
X186190476Y-50880952D01*
X186238095Y-50928571D01*
X186285714Y-51023809D01*
X186285714Y-51261904D01*
X186238095Y-51357142D01*
X186190476Y-51404761D01*
X186095238Y-51452380D01*
X185809523Y-51452380D01*
X185714285Y-51404761D01*
X185666666Y-51357142D01*
X185333333Y-53452380D02*
X185000000Y-52976190D01*
X184761904Y-53452380D02*
X184761904Y-52452380D01*
X185142857Y-52452380D01*
X185238095Y-52500000D01*
X185285714Y-52547619D01*
X185333333Y-52642857D01*
X185333333Y-52785714D01*
X185285714Y-52880952D01*
X185238095Y-52928571D01*
X185142857Y-52976190D01*
X184761904Y-52976190D01*
X185714285Y-52547619D02*
X185761904Y-52500000D01*
X185857142Y-52452380D01*
X186095238Y-52452380D01*
X186190476Y-52500000D01*
X186238095Y-52547619D01*
X186285714Y-52642857D01*
X186285714Y-52738095D01*
X186238095Y-52880952D01*
X185666666Y-53452380D01*
X186285714Y-53452380D01*
X87522380Y-52454166D02*
X87046190Y-52787500D01*
X87522380Y-53025595D02*
X86522380Y-53025595D01*
X86522380Y-52644642D01*
X86570000Y-52549404D01*
X86617619Y-52501785D01*
X86712857Y-52454166D01*
X86855714Y-52454166D01*
X86950952Y-52501785D01*
X86998571Y-52549404D01*
X87046190Y-52644642D01*
X87046190Y-53025595D01*
X87522380Y-51501785D02*
X87522380Y-52073214D01*
X87522380Y-51787500D02*
X86522380Y-51787500D01*
X86665238Y-51882738D01*
X86760476Y-51977976D01*
X86808095Y-52073214D01*
X73552380Y-52133333D02*
X74266666Y-52133333D01*
X74409523Y-52180952D01*
X74504761Y-52276190D01*
X74552380Y-52419047D01*
X74552380Y-52514285D01*
X74552380Y-51657142D02*
X73552380Y-51657142D01*
X73552380Y-51276190D01*
X73600000Y-51180952D01*
X73647619Y-51133333D01*
X73742857Y-51085714D01*
X73885714Y-51085714D01*
X73980952Y-51133333D01*
X74028571Y-51180952D01*
X74076190Y-51276190D01*
X74076190Y-51657142D01*
X73552380Y-50180952D02*
X73552380Y-50657142D01*
X74028571Y-50704761D01*
X73980952Y-50657142D01*
X73933333Y-50561904D01*
X73933333Y-50323809D01*
X73980952Y-50228571D01*
X74028571Y-50180952D01*
X74123809Y-50133333D01*
X74361904Y-50133333D01*
X74457142Y-50180952D01*
X74504761Y-50228571D01*
X74552380Y-50323809D01*
X74552380Y-50561904D01*
X74504761Y-50657142D01*
X74457142Y-50704761D01*
X193227380Y-53558333D02*
X193941666Y-53558333D01*
X194084523Y-53605952D01*
X194179761Y-53701190D01*
X194227380Y-53844047D01*
X194227380Y-53939285D01*
X194227380Y-53082142D02*
X193227380Y-53082142D01*
X193227380Y-52701190D01*
X193275000Y-52605952D01*
X193322619Y-52558333D01*
X193417857Y-52510714D01*
X193560714Y-52510714D01*
X193655952Y-52558333D01*
X193703571Y-52605952D01*
X193751190Y-52701190D01*
X193751190Y-53082142D01*
X193227380Y-52177380D02*
X193227380Y-51558333D01*
X193608333Y-51891666D01*
X193608333Y-51748809D01*
X193655952Y-51653571D01*
X193703571Y-51605952D01*
X193798809Y-51558333D01*
X194036904Y-51558333D01*
X194132142Y-51605952D01*
X194179761Y-51653571D01*
X194227380Y-51748809D01*
X194227380Y-52034523D01*
X194179761Y-52129761D01*
X194132142Y-52177380D01*
X69552380Y-52333333D02*
X70266666Y-52333333D01*
X70409523Y-52380952D01*
X70504761Y-52476190D01*
X70552380Y-52619047D01*
X70552380Y-52714285D01*
X70552380Y-51857142D02*
X69552380Y-51857142D01*
X69552380Y-51476190D01*
X69600000Y-51380952D01*
X69647619Y-51333333D01*
X69742857Y-51285714D01*
X69885714Y-51285714D01*
X69980952Y-51333333D01*
X70028571Y-51380952D01*
X70076190Y-51476190D01*
X70076190Y-51857142D01*
X69647619Y-50904761D02*
X69600000Y-50857142D01*
X69552380Y-50761904D01*
X69552380Y-50523809D01*
X69600000Y-50428571D01*
X69647619Y-50380952D01*
X69742857Y-50333333D01*
X69838095Y-50333333D01*
X69980952Y-50380952D01*
X70552380Y-50952380D01*
X70552380Y-50333333D01*
X197227380Y-53558333D02*
X197941666Y-53558333D01*
X198084523Y-53605952D01*
X198179761Y-53701190D01*
X198227380Y-53844047D01*
X198227380Y-53939285D01*
X198227380Y-53082142D02*
X197227380Y-53082142D01*
X197227380Y-52701190D01*
X197275000Y-52605952D01*
X197322619Y-52558333D01*
X197417857Y-52510714D01*
X197560714Y-52510714D01*
X197655952Y-52558333D01*
X197703571Y-52605952D01*
X197751190Y-52701190D01*
X197751190Y-53082142D01*
X198227380Y-51558333D02*
X198227380Y-52129761D01*
X198227380Y-51844047D02*
X197227380Y-51844047D01*
X197370238Y-51939285D01*
X197465476Y-52034523D01*
X197513095Y-52129761D01*
X96486666Y-40242380D02*
X96486666Y-40956666D01*
X96439047Y-41099523D01*
X96343809Y-41194761D01*
X96200952Y-41242380D01*
X96105714Y-41242380D01*
X97391428Y-40242380D02*
X97200952Y-40242380D01*
X97105714Y-40290000D01*
X97058095Y-40337619D01*
X96962857Y-40480476D01*
X96915238Y-40670952D01*
X96915238Y-41051904D01*
X96962857Y-41147142D01*
X97010476Y-41194761D01*
X97105714Y-41242380D01*
X97296190Y-41242380D01*
X97391428Y-41194761D01*
X97439047Y-41147142D01*
X97486666Y-41051904D01*
X97486666Y-40813809D01*
X97439047Y-40718571D01*
X97391428Y-40670952D01*
X97296190Y-40623333D01*
X97105714Y-40623333D01*
X97010476Y-40670952D01*
X96962857Y-40718571D01*
X96915238Y-40813809D01*
X198282380Y-42853333D02*
X198996666Y-42853333D01*
X199139523Y-42900952D01*
X199234761Y-42996190D01*
X199282380Y-43139047D01*
X199282380Y-43234285D01*
X198615714Y-41948571D02*
X199282380Y-41948571D01*
X198234761Y-42186666D02*
X198949047Y-42424761D01*
X198949047Y-41805714D01*
X191436666Y-35222380D02*
X191436666Y-35936666D01*
X191389047Y-36079523D01*
X191293809Y-36174761D01*
X191150952Y-36222380D01*
X191055714Y-36222380D01*
X191865238Y-35317619D02*
X191912857Y-35270000D01*
X192008095Y-35222380D01*
X192246190Y-35222380D01*
X192341428Y-35270000D01*
X192389047Y-35317619D01*
X192436666Y-35412857D01*
X192436666Y-35508095D01*
X192389047Y-35650952D01*
X191817619Y-36222380D01*
X192436666Y-36222380D01*
X77366666Y-26272380D02*
X77366666Y-26986666D01*
X77319047Y-27129523D01*
X77223809Y-27224761D01*
X77080952Y-27272380D01*
X76985714Y-27272380D01*
X78366666Y-27272380D02*
X77795238Y-27272380D01*
X78080952Y-27272380D02*
X78080952Y-26272380D01*
X77985714Y-26415238D01*
X77890476Y-26510476D01*
X77795238Y-26558095D01*
X106522380Y-36025595D02*
X105522380Y-36025595D01*
X105522380Y-35787500D01*
X105570000Y-35644642D01*
X105665238Y-35549404D01*
X105760476Y-35501785D01*
X105950952Y-35454166D01*
X106093809Y-35454166D01*
X106284285Y-35501785D01*
X106379523Y-35549404D01*
X106474761Y-35644642D01*
X106522380Y-35787500D01*
X106522380Y-36025595D01*
X105522380Y-35120833D02*
X105522380Y-34501785D01*
X105903333Y-34835119D01*
X105903333Y-34692261D01*
X105950952Y-34597023D01*
X105998571Y-34549404D01*
X106093809Y-34501785D01*
X106331904Y-34501785D01*
X106427142Y-34549404D01*
X106474761Y-34597023D01*
X106522380Y-34692261D01*
X106522380Y-34977976D01*
X106474761Y-35073214D01*
X106427142Y-35120833D01*
X109522380Y-36025595D02*
X108522380Y-36025595D01*
X108522380Y-35787500D01*
X108570000Y-35644642D01*
X108665238Y-35549404D01*
X108760476Y-35501785D01*
X108950952Y-35454166D01*
X109093809Y-35454166D01*
X109284285Y-35501785D01*
X109379523Y-35549404D01*
X109474761Y-35644642D01*
X109522380Y-35787500D01*
X109522380Y-36025595D01*
X108617619Y-35073214D02*
X108570000Y-35025595D01*
X108522380Y-34930357D01*
X108522380Y-34692261D01*
X108570000Y-34597023D01*
X108617619Y-34549404D01*
X108712857Y-34501785D01*
X108808095Y-34501785D01*
X108950952Y-34549404D01*
X109522380Y-35120833D01*
X109522380Y-34501785D01*
X112522380Y-36025595D02*
X111522380Y-36025595D01*
X111522380Y-35787500D01*
X111570000Y-35644642D01*
X111665238Y-35549404D01*
X111760476Y-35501785D01*
X111950952Y-35454166D01*
X112093809Y-35454166D01*
X112284285Y-35501785D01*
X112379523Y-35549404D01*
X112474761Y-35644642D01*
X112522380Y-35787500D01*
X112522380Y-36025595D01*
X112522380Y-34501785D02*
X112522380Y-35073214D01*
X112522380Y-34787500D02*
X111522380Y-34787500D01*
X111665238Y-34882738D01*
X111760476Y-34977976D01*
X111808095Y-35073214D01*
X86170833Y-46057142D02*
X86123214Y-46104761D01*
X85980357Y-46152380D01*
X85885119Y-46152380D01*
X85742261Y-46104761D01*
X85647023Y-46009523D01*
X85599404Y-45914285D01*
X85551785Y-45723809D01*
X85551785Y-45580952D01*
X85599404Y-45390476D01*
X85647023Y-45295238D01*
X85742261Y-45200000D01*
X85885119Y-45152380D01*
X85980357Y-45152380D01*
X86123214Y-45200000D01*
X86170833Y-45247619D01*
X86504166Y-45152380D02*
X87123214Y-45152380D01*
X86789880Y-45533333D01*
X86932738Y-45533333D01*
X87027976Y-45580952D01*
X87075595Y-45628571D01*
X87123214Y-45723809D01*
X87123214Y-45961904D01*
X87075595Y-46057142D01*
X87027976Y-46104761D01*
X86932738Y-46152380D01*
X86647023Y-46152380D01*
X86551785Y-46104761D01*
X86504166Y-46057142D01*
X86557142Y-40366666D02*
X86604761Y-40414285D01*
X86652380Y-40557142D01*
X86652380Y-40652380D01*
X86604761Y-40795238D01*
X86509523Y-40890476D01*
X86414285Y-40938095D01*
X86223809Y-40985714D01*
X86080952Y-40985714D01*
X85890476Y-40938095D01*
X85795238Y-40890476D01*
X85700000Y-40795238D01*
X85652380Y-40652380D01*
X85652380Y-40557142D01*
X85700000Y-40414285D01*
X85747619Y-40366666D01*
X85747619Y-39985714D02*
X85700000Y-39938095D01*
X85652380Y-39842857D01*
X85652380Y-39604761D01*
X85700000Y-39509523D01*
X85747619Y-39461904D01*
X85842857Y-39414285D01*
X85938095Y-39414285D01*
X86080952Y-39461904D01*
X86652380Y-40033333D01*
X86652380Y-39414285D01*
X96545833Y-55927142D02*
X96498214Y-55974761D01*
X96355357Y-56022380D01*
X96260119Y-56022380D01*
X96117261Y-55974761D01*
X96022023Y-55879523D01*
X95974404Y-55784285D01*
X95926785Y-55593809D01*
X95926785Y-55450952D01*
X95974404Y-55260476D01*
X96022023Y-55165238D01*
X96117261Y-55070000D01*
X96260119Y-55022380D01*
X96355357Y-55022380D01*
X96498214Y-55070000D01*
X96545833Y-55117619D01*
X97498214Y-56022380D02*
X96926785Y-56022380D01*
X97212500Y-56022380D02*
X97212500Y-55022380D01*
X97117261Y-55165238D01*
X97022023Y-55260476D01*
X96926785Y-55308095D01*
D15*
X80283072Y-161090240D02*
X80543944Y-161048667D01*
X80927614Y-160869758D01*
X81050412Y-160732423D01*
X81096476Y-160630869D01*
X81111870Y-160463543D01*
X81050530Y-160331999D01*
X80912456Y-160236237D01*
X80805052Y-160206246D01*
X80620914Y-160212038D01*
X80283308Y-160289392D01*
X80099170Y-160295184D01*
X79991765Y-160265193D01*
X79853691Y-160169431D01*
X79792351Y-160037887D01*
X79807745Y-159870561D01*
X79853809Y-159769007D01*
X79976608Y-159631672D01*
X80360278Y-159452763D01*
X80621150Y-159411190D01*
X81127618Y-159094947D02*
X82845966Y-159975216D01*
X82201895Y-158594003D02*
X81771689Y-160476160D01*
X83122704Y-158164623D02*
X83276172Y-158093060D01*
X83460310Y-158087268D01*
X83567714Y-158117259D01*
X83705788Y-158213021D01*
X83905203Y-158440328D01*
X84058553Y-158769188D01*
X84104499Y-159068058D01*
X84089105Y-159235384D01*
X84043040Y-159336937D01*
X83920242Y-159474273D01*
X83766774Y-159545836D01*
X83582636Y-159551627D01*
X83475232Y-159521637D01*
X83337158Y-159425875D01*
X83137744Y-159198568D01*
X82984394Y-158869708D01*
X82938448Y-158570838D01*
X82953842Y-158403512D01*
X82999906Y-158301958D01*
X83122704Y-158164623D01*
X84933179Y-158841785D02*
X85040583Y-158871775D01*
X84994519Y-158973329D01*
X84887115Y-158943339D01*
X84933179Y-158841785D01*
X84994519Y-158973329D01*
X84595809Y-158118293D02*
X84703213Y-158148283D01*
X84657149Y-158249837D01*
X84549745Y-158219846D01*
X84595809Y-158118293D01*
X84657149Y-158249837D01*
X86605934Y-158221914D02*
X85685126Y-158651294D01*
X86145530Y-158436604D02*
X85501460Y-157055391D01*
X85440002Y-157324270D01*
X85347874Y-157527378D01*
X85225076Y-157664713D01*
X86959407Y-156375539D02*
X87112875Y-156303976D01*
X87297013Y-156298184D01*
X87404417Y-156328175D01*
X87542491Y-156423937D01*
X87741905Y-156651244D01*
X87895256Y-156980104D01*
X87941202Y-157278974D01*
X87925807Y-157446300D01*
X87879743Y-157547853D01*
X87756945Y-157685189D01*
X87603477Y-157756752D01*
X87419339Y-157762543D01*
X87311935Y-157732553D01*
X87173861Y-157636791D01*
X86974447Y-157409484D01*
X86821097Y-157080624D01*
X86775151Y-156781754D01*
X86790545Y-156614428D01*
X86836609Y-156512874D01*
X86959407Y-156375539D01*
X63016152Y-169139500D02*
X63277024Y-169097927D01*
X63660694Y-168919018D01*
X63783492Y-168781683D01*
X63829556Y-168680129D01*
X63844950Y-168512803D01*
X63783610Y-168381259D01*
X63645536Y-168285497D01*
X63538132Y-168255506D01*
X63353994Y-168261298D01*
X63016388Y-168338652D01*
X62832250Y-168344444D01*
X62724845Y-168314453D01*
X62586771Y-168218691D01*
X62525431Y-168087147D01*
X62540825Y-167919821D01*
X62586889Y-167818267D01*
X62709688Y-167680932D01*
X63093358Y-167502023D01*
X63354230Y-167460450D01*
X63860698Y-167144207D02*
X65579046Y-168024476D01*
X64934975Y-166643263D02*
X64504769Y-168525420D01*
X65855784Y-166213883D02*
X66009252Y-166142320D01*
X66193390Y-166136528D01*
X66300794Y-166166519D01*
X66438868Y-166262281D01*
X66638283Y-166489588D01*
X66791633Y-166818448D01*
X66837579Y-167117318D01*
X66822185Y-167284644D01*
X66776120Y-167386197D01*
X66653322Y-167523533D01*
X66499854Y-167595096D01*
X66315716Y-167600887D01*
X66208312Y-167570897D01*
X66070238Y-167475135D01*
X65870824Y-167247828D01*
X65717474Y-166918968D01*
X65671528Y-166620098D01*
X65686922Y-166452772D01*
X65732986Y-166351218D01*
X65855784Y-166213883D01*
X67666259Y-166891045D02*
X67773663Y-166921035D01*
X67727599Y-167022589D01*
X67620195Y-166992599D01*
X67666259Y-166891045D01*
X67727599Y-167022589D01*
X67328889Y-166167553D02*
X67436293Y-166197543D01*
X67390229Y-166299097D01*
X67282825Y-166269106D01*
X67328889Y-166167553D01*
X67390229Y-166299097D01*
X69339014Y-166271174D02*
X68418206Y-166700554D01*
X68878610Y-166485864D02*
X68234540Y-165104651D01*
X68173082Y-165373530D01*
X68080954Y-165576638D01*
X67958156Y-165713973D01*
X70873696Y-165555540D02*
X69952887Y-165984920D01*
X70413291Y-165770230D02*
X69769221Y-164389017D01*
X69707763Y-164657897D01*
X69615635Y-164861004D01*
X69492837Y-164998340D01*
X58525204Y-157502559D02*
X58786076Y-157460986D01*
X59169747Y-157282077D01*
X59292545Y-157144742D01*
X59338609Y-157043188D01*
X59354003Y-156875862D01*
X59292663Y-156744318D01*
X59154589Y-156648556D01*
X59047185Y-156618566D01*
X58863047Y-156624357D01*
X58525440Y-156701712D01*
X58341302Y-156707503D01*
X58233898Y-156677513D01*
X58095824Y-156581750D01*
X58034484Y-156450206D01*
X58049878Y-156282880D01*
X58095942Y-156181326D01*
X58218740Y-156043991D01*
X58602410Y-155865083D01*
X58863283Y-155823510D01*
X59369751Y-155507266D02*
X61088098Y-156387535D01*
X60444028Y-155006322D02*
X60013821Y-156888479D01*
X62546045Y-155707684D02*
X61625237Y-156137064D01*
X62085641Y-155922374D02*
X61441571Y-154541161D01*
X61380113Y-154810040D01*
X61287984Y-155013147D01*
X61165186Y-155150483D01*
X63175312Y-155254104D02*
X63282716Y-155284095D01*
X63236652Y-155385648D01*
X63129248Y-155355658D01*
X63175312Y-155254104D01*
X63236652Y-155385648D01*
X62837942Y-154530612D02*
X62945346Y-154560602D01*
X62899282Y-154662156D01*
X62791878Y-154632165D01*
X62837942Y-154530612D01*
X62899282Y-154662156D01*
X63206454Y-153718182D02*
X64280731Y-153217238D01*
X64234195Y-154920487D01*
X75789584Y-149450759D02*
X76050456Y-149409186D01*
X76434127Y-149230277D01*
X76556925Y-149092942D01*
X76602989Y-148991388D01*
X76618383Y-148824062D01*
X76557043Y-148692518D01*
X76418969Y-148596756D01*
X76311565Y-148566766D01*
X76127427Y-148572557D01*
X75789820Y-148649912D01*
X75605682Y-148655703D01*
X75498278Y-148625713D01*
X75360204Y-148529950D01*
X75298864Y-148398406D01*
X75314258Y-148231080D01*
X75360322Y-148129526D01*
X75483120Y-147992191D01*
X75866790Y-147813283D01*
X76127663Y-147771710D01*
X76634131Y-147455466D02*
X78352478Y-148335735D01*
X77708408Y-146954522D02*
X77278201Y-148836679D01*
X79810425Y-147655884D02*
X78889617Y-148085264D01*
X79350021Y-147870574D02*
X78705951Y-146489361D01*
X78644493Y-146758240D01*
X78552364Y-146961347D01*
X78429566Y-147098683D01*
X80439692Y-147202304D02*
X80547096Y-147232295D01*
X80501032Y-147333848D01*
X80393628Y-147303858D01*
X80439692Y-147202304D01*
X80501032Y-147333848D01*
X80102322Y-146478812D02*
X80209726Y-146508802D01*
X80163662Y-146610356D01*
X80056258Y-146580365D01*
X80102322Y-146478812D01*
X80163662Y-146610356D01*
X81130534Y-146079422D02*
X80946396Y-146085213D01*
X80838992Y-146055223D01*
X80700918Y-145959460D01*
X80670248Y-145893688D01*
X80685642Y-145726363D01*
X80731706Y-145624809D01*
X80854504Y-145487473D01*
X81161441Y-145344347D01*
X81345579Y-145338555D01*
X81452983Y-145368546D01*
X81591057Y-145464308D01*
X81621727Y-145530080D01*
X81606333Y-145697406D01*
X81560269Y-145798960D01*
X81437471Y-145936295D01*
X81130534Y-146079422D01*
X81007736Y-146216757D01*
X80961672Y-146318311D01*
X80946278Y-146485637D01*
X81068958Y-146748725D01*
X81207032Y-146844487D01*
X81314436Y-146874478D01*
X81498575Y-146868687D01*
X81805511Y-146725560D01*
X81928309Y-146588224D01*
X81974373Y-146486671D01*
X81989767Y-146319345D01*
X81867087Y-146056257D01*
X81729013Y-145960494D01*
X81621609Y-145930504D01*
X81437471Y-145936295D01*
X186965166Y-89971517D02*
X187219166Y-90044088D01*
X187642500Y-90044088D01*
X187811833Y-89971517D01*
X187896500Y-89898945D01*
X187981166Y-89753802D01*
X187981166Y-89608660D01*
X187896500Y-89463517D01*
X187811833Y-89390945D01*
X187642500Y-89318374D01*
X187303833Y-89245802D01*
X187134500Y-89173231D01*
X187049833Y-89100660D01*
X186965166Y-88955517D01*
X186965166Y-88810374D01*
X187049833Y-88665231D01*
X187134500Y-88592660D01*
X187303833Y-88520088D01*
X187727166Y-88520088D01*
X187981166Y-88592660D01*
X188573833Y-88520088D02*
X188997166Y-90044088D01*
X189335833Y-88955517D01*
X189674500Y-90044088D01*
X190097833Y-88520088D01*
X191537166Y-89028088D02*
X191537166Y-90044088D01*
X191113833Y-88447517D02*
X190690500Y-89536088D01*
X191791166Y-89536088D01*
X192468500Y-89898945D02*
X192553166Y-89971517D01*
X192468500Y-90044088D01*
X192383833Y-89971517D01*
X192468500Y-89898945D01*
X192468500Y-90044088D01*
X192468500Y-89100660D02*
X192553166Y-89173231D01*
X192468500Y-89245802D01*
X192383833Y-89173231D01*
X192468500Y-89100660D01*
X192468500Y-89245802D01*
X194246500Y-90044088D02*
X193230500Y-90044088D01*
X193738500Y-90044088D02*
X193738500Y-88520088D01*
X193569166Y-88737802D01*
X193399833Y-88882945D01*
X193230500Y-88955517D01*
X194839166Y-88520088D02*
X195939833Y-88520088D01*
X195347166Y-89100660D01*
X195601166Y-89100660D01*
X195770500Y-89173231D01*
X195855166Y-89245802D01*
X195939833Y-89390945D01*
X195939833Y-89753802D01*
X195855166Y-89898945D01*
X195770500Y-89971517D01*
X195601166Y-90044088D01*
X195093166Y-90044088D01*
X194923833Y-89971517D01*
X194839166Y-89898945D01*
X186965166Y-128071517D02*
X187219166Y-128144088D01*
X187642500Y-128144088D01*
X187811833Y-128071517D01*
X187896500Y-127998945D01*
X187981166Y-127853802D01*
X187981166Y-127708660D01*
X187896500Y-127563517D01*
X187811833Y-127490945D01*
X187642500Y-127418374D01*
X187303833Y-127345802D01*
X187134500Y-127273231D01*
X187049833Y-127200660D01*
X186965166Y-127055517D01*
X186965166Y-126910374D01*
X187049833Y-126765231D01*
X187134500Y-126692660D01*
X187303833Y-126620088D01*
X187727166Y-126620088D01*
X187981166Y-126692660D01*
X188573833Y-126620088D02*
X188997166Y-128144088D01*
X189335833Y-127055517D01*
X189674500Y-128144088D01*
X190097833Y-126620088D01*
X190690500Y-126765231D02*
X190775166Y-126692660D01*
X190944500Y-126620088D01*
X191367833Y-126620088D01*
X191537166Y-126692660D01*
X191621833Y-126765231D01*
X191706500Y-126910374D01*
X191706500Y-127055517D01*
X191621833Y-127273231D01*
X190605833Y-128144088D01*
X191706500Y-128144088D01*
X192468500Y-127998945D02*
X192553166Y-128071517D01*
X192468500Y-128144088D01*
X192383833Y-128071517D01*
X192468500Y-127998945D01*
X192468500Y-128144088D01*
X192468500Y-127200660D02*
X192553166Y-127273231D01*
X192468500Y-127345802D01*
X192383833Y-127273231D01*
X192468500Y-127200660D01*
X192468500Y-127345802D01*
X194246500Y-128144088D02*
X193230500Y-128144088D01*
X193738500Y-128144088D02*
X193738500Y-126620088D01*
X193569166Y-126837802D01*
X193399833Y-126982945D01*
X193230500Y-127055517D01*
X194839166Y-126620088D02*
X195939833Y-126620088D01*
X195347166Y-127200660D01*
X195601166Y-127200660D01*
X195770500Y-127273231D01*
X195855166Y-127345802D01*
X195939833Y-127490945D01*
X195939833Y-127853802D01*
X195855166Y-127998945D01*
X195770500Y-128071517D01*
X195601166Y-128144088D01*
X195093166Y-128144088D01*
X194923833Y-128071517D01*
X194839166Y-127998945D01*
X186965166Y-70924057D02*
X187219166Y-70996628D01*
X187642500Y-70996628D01*
X187811833Y-70924057D01*
X187896500Y-70851485D01*
X187981166Y-70706342D01*
X187981166Y-70561200D01*
X187896500Y-70416057D01*
X187811833Y-70343485D01*
X187642500Y-70270914D01*
X187303833Y-70198342D01*
X187134500Y-70125771D01*
X187049833Y-70053200D01*
X186965166Y-69908057D01*
X186965166Y-69762914D01*
X187049833Y-69617771D01*
X187134500Y-69545200D01*
X187303833Y-69472628D01*
X187727166Y-69472628D01*
X187981166Y-69545200D01*
X188573833Y-69472628D02*
X188997166Y-70996628D01*
X189335833Y-69908057D01*
X189674500Y-70996628D01*
X190097833Y-69472628D01*
X191621833Y-69472628D02*
X190775166Y-69472628D01*
X190690500Y-70198342D01*
X190775166Y-70125771D01*
X190944500Y-70053200D01*
X191367833Y-70053200D01*
X191537166Y-70125771D01*
X191621833Y-70198342D01*
X191706500Y-70343485D01*
X191706500Y-70706342D01*
X191621833Y-70851485D01*
X191537166Y-70924057D01*
X191367833Y-70996628D01*
X190944500Y-70996628D01*
X190775166Y-70924057D01*
X190690500Y-70851485D01*
X192468500Y-70851485D02*
X192553166Y-70924057D01*
X192468500Y-70996628D01*
X192383833Y-70924057D01*
X192468500Y-70851485D01*
X192468500Y-70996628D01*
X192468500Y-70053200D02*
X192553166Y-70125771D01*
X192468500Y-70198342D01*
X192383833Y-70125771D01*
X192468500Y-70053200D01*
X192468500Y-70198342D01*
X194246500Y-70996628D02*
X193230500Y-70996628D01*
X193738500Y-70996628D02*
X193738500Y-69472628D01*
X193569166Y-69690342D01*
X193399833Y-69835485D01*
X193230500Y-69908057D01*
X194839166Y-69472628D02*
X195939833Y-69472628D01*
X195347166Y-70053200D01*
X195601166Y-70053200D01*
X195770500Y-70125771D01*
X195855166Y-70198342D01*
X195939833Y-70343485D01*
X195939833Y-70706342D01*
X195855166Y-70851485D01*
X195770500Y-70924057D01*
X195601166Y-70996628D01*
X195093166Y-70996628D01*
X194923833Y-70924057D01*
X194839166Y-70851485D01*
X186965166Y-109021517D02*
X187219166Y-109094088D01*
X187642500Y-109094088D01*
X187811833Y-109021517D01*
X187896500Y-108948945D01*
X187981166Y-108803802D01*
X187981166Y-108658660D01*
X187896500Y-108513517D01*
X187811833Y-108440945D01*
X187642500Y-108368374D01*
X187303833Y-108295802D01*
X187134500Y-108223231D01*
X187049833Y-108150660D01*
X186965166Y-108005517D01*
X186965166Y-107860374D01*
X187049833Y-107715231D01*
X187134500Y-107642660D01*
X187303833Y-107570088D01*
X187727166Y-107570088D01*
X187981166Y-107642660D01*
X188573833Y-107570088D02*
X188997166Y-109094088D01*
X189335833Y-108005517D01*
X189674500Y-109094088D01*
X190097833Y-107570088D01*
X190605833Y-107570088D02*
X191706500Y-107570088D01*
X191113833Y-108150660D01*
X191367833Y-108150660D01*
X191537166Y-108223231D01*
X191621833Y-108295802D01*
X191706500Y-108440945D01*
X191706500Y-108803802D01*
X191621833Y-108948945D01*
X191537166Y-109021517D01*
X191367833Y-109094088D01*
X190859833Y-109094088D01*
X190690500Y-109021517D01*
X190605833Y-108948945D01*
X192468500Y-108948945D02*
X192553166Y-109021517D01*
X192468500Y-109094088D01*
X192383833Y-109021517D01*
X192468500Y-108948945D01*
X192468500Y-109094088D01*
X192468500Y-108150660D02*
X192553166Y-108223231D01*
X192468500Y-108295802D01*
X192383833Y-108223231D01*
X192468500Y-108150660D01*
X192468500Y-108295802D01*
X194246500Y-109094088D02*
X193230500Y-109094088D01*
X193738500Y-109094088D02*
X193738500Y-107570088D01*
X193569166Y-107787802D01*
X193399833Y-107932945D01*
X193230500Y-108005517D01*
X194839166Y-107570088D02*
X195939833Y-107570088D01*
X195347166Y-108150660D01*
X195601166Y-108150660D01*
X195770500Y-108223231D01*
X195855166Y-108295802D01*
X195939833Y-108440945D01*
X195939833Y-108803802D01*
X195855166Y-108948945D01*
X195770500Y-109021517D01*
X195601166Y-109094088D01*
X195093166Y-109094088D01*
X194923833Y-109021517D01*
X194839166Y-108948945D01*
X87799333Y-69019057D02*
X88053333Y-69091628D01*
X88476666Y-69091628D01*
X88646000Y-69019057D01*
X88730666Y-68946485D01*
X88815333Y-68801342D01*
X88815333Y-68656200D01*
X88730666Y-68511057D01*
X88646000Y-68438485D01*
X88476666Y-68365914D01*
X88138000Y-68293342D01*
X87968666Y-68220771D01*
X87884000Y-68148200D01*
X87799333Y-68003057D01*
X87799333Y-67857914D01*
X87884000Y-67712771D01*
X87968666Y-67640200D01*
X88138000Y-67567628D01*
X88561333Y-67567628D01*
X88815333Y-67640200D01*
X89408000Y-67567628D02*
X89831333Y-69091628D01*
X90170000Y-68003057D01*
X90508666Y-69091628D01*
X90932000Y-67567628D01*
X92456000Y-67567628D02*
X91609333Y-67567628D01*
X91524666Y-68293342D01*
X91609333Y-68220771D01*
X91778666Y-68148200D01*
X92202000Y-68148200D01*
X92371333Y-68220771D01*
X92456000Y-68293342D01*
X92540666Y-68438485D01*
X92540666Y-68801342D01*
X92456000Y-68946485D01*
X92371333Y-69019057D01*
X92202000Y-69091628D01*
X91778666Y-69091628D01*
X91609333Y-69019057D01*
X91524666Y-68946485D01*
X93302666Y-68946485D02*
X93387333Y-69019057D01*
X93302666Y-69091628D01*
X93218000Y-69019057D01*
X93302666Y-68946485D01*
X93302666Y-69091628D01*
X93302666Y-68148200D02*
X93387333Y-68220771D01*
X93302666Y-68293342D01*
X93218000Y-68220771D01*
X93302666Y-68148200D01*
X93302666Y-68293342D01*
X94403333Y-68220771D02*
X94234000Y-68148200D01*
X94149333Y-68075628D01*
X94064666Y-67930485D01*
X94064666Y-67857914D01*
X94149333Y-67712771D01*
X94234000Y-67640200D01*
X94403333Y-67567628D01*
X94742000Y-67567628D01*
X94911333Y-67640200D01*
X94996000Y-67712771D01*
X95080666Y-67857914D01*
X95080666Y-67930485D01*
X94996000Y-68075628D01*
X94911333Y-68148200D01*
X94742000Y-68220771D01*
X94403333Y-68220771D01*
X94234000Y-68293342D01*
X94149333Y-68365914D01*
X94064666Y-68511057D01*
X94064666Y-68801342D01*
X94149333Y-68946485D01*
X94234000Y-69019057D01*
X94403333Y-69091628D01*
X94742000Y-69091628D01*
X94911333Y-69019057D01*
X94996000Y-68946485D01*
X95080666Y-68801342D01*
X95080666Y-68511057D01*
X94996000Y-68365914D01*
X94911333Y-68293342D01*
X94742000Y-68220771D01*
X144102666Y-86796517D02*
X144356666Y-86869088D01*
X144780000Y-86869088D01*
X144949333Y-86796517D01*
X145034000Y-86723945D01*
X145118666Y-86578802D01*
X145118666Y-86433660D01*
X145034000Y-86288517D01*
X144949333Y-86215945D01*
X144780000Y-86143374D01*
X144441333Y-86070802D01*
X144272000Y-85998231D01*
X144187333Y-85925660D01*
X144102666Y-85780517D01*
X144102666Y-85635374D01*
X144187333Y-85490231D01*
X144272000Y-85417660D01*
X144441333Y-85345088D01*
X144864666Y-85345088D01*
X145118666Y-85417660D01*
X145711333Y-85345088D02*
X146134666Y-86869088D01*
X146473333Y-85780517D01*
X146812000Y-86869088D01*
X147235333Y-85345088D01*
X148674666Y-85853088D02*
X148674666Y-86869088D01*
X148251333Y-85272517D02*
X147828000Y-86361088D01*
X148928666Y-86361088D01*
X149606000Y-86723945D02*
X149690666Y-86796517D01*
X149606000Y-86869088D01*
X149521333Y-86796517D01*
X149606000Y-86723945D01*
X149606000Y-86869088D01*
X149606000Y-85925660D02*
X149690666Y-85998231D01*
X149606000Y-86070802D01*
X149521333Y-85998231D01*
X149606000Y-85925660D01*
X149606000Y-86070802D01*
X151384000Y-86869088D02*
X150368000Y-86869088D01*
X150876000Y-86869088D02*
X150876000Y-85345088D01*
X150706666Y-85562802D01*
X150537333Y-85707945D01*
X150368000Y-85780517D01*
X153077333Y-86869088D02*
X152061333Y-86869088D01*
X152569333Y-86869088D02*
X152569333Y-85345088D01*
X152400000Y-85562802D01*
X152230666Y-85707945D01*
X152061333Y-85780517D01*
X64575616Y-155915583D02*
X64617189Y-156176456D01*
X64796097Y-156560126D01*
X64933433Y-156682924D01*
X65034987Y-156728988D01*
X65202312Y-156744382D01*
X65333856Y-156683042D01*
X65429619Y-156544968D01*
X65459609Y-156437564D01*
X65453818Y-156253426D01*
X65376463Y-155915820D01*
X65370672Y-155731681D01*
X65400662Y-155624277D01*
X65496425Y-155486203D01*
X65627969Y-155424863D01*
X65795295Y-155440257D01*
X65896848Y-155486321D01*
X66034184Y-155609119D01*
X66213092Y-155992790D01*
X66254665Y-156253662D01*
X66570909Y-156760130D02*
X65368604Y-157787871D01*
X66498312Y-157634757D01*
X65654858Y-158401743D01*
X67214979Y-158141343D01*
X67644359Y-159062152D02*
X67715923Y-159215620D01*
X67721714Y-159399758D01*
X67691724Y-159507162D01*
X67595961Y-159645237D01*
X67368655Y-159844651D01*
X67039794Y-159998001D01*
X66740925Y-160043947D01*
X66573599Y-160028553D01*
X66472045Y-159982489D01*
X66334710Y-159859690D01*
X66263146Y-159706222D01*
X66257355Y-159522084D01*
X66287345Y-159414680D01*
X66383108Y-159276606D01*
X66610414Y-159077192D01*
X66939275Y-158923842D01*
X67238144Y-158877896D01*
X67405470Y-158893290D01*
X67507024Y-158939354D01*
X67644359Y-159062152D01*
X66967197Y-160872627D02*
X66937207Y-160980031D01*
X66835653Y-160933967D01*
X66865644Y-160826563D01*
X66967197Y-160872627D01*
X66835653Y-160933967D01*
X67690690Y-160535257D02*
X67660699Y-160642661D01*
X67559146Y-160596597D01*
X67589136Y-160489193D01*
X67690690Y-160535257D01*
X67559146Y-160596597D01*
X67587068Y-162545383D02*
X67157688Y-161624574D01*
X67372378Y-162084978D02*
X68753591Y-161440908D01*
X68484712Y-161379450D01*
X68281604Y-161287322D01*
X68144269Y-161164524D01*
X68302702Y-164080064D02*
X67873322Y-163159255D01*
X68088012Y-163619659D02*
X69469225Y-162975589D01*
X69200346Y-162914131D01*
X68997238Y-162822003D01*
X68859903Y-162699205D01*
X81839996Y-147863783D02*
X81881569Y-148124656D01*
X82060477Y-148508326D01*
X82197813Y-148631124D01*
X82299367Y-148677188D01*
X82466692Y-148692582D01*
X82598236Y-148631242D01*
X82693999Y-148493168D01*
X82723989Y-148385764D01*
X82718198Y-148201626D01*
X82640843Y-147864020D01*
X82635052Y-147679881D01*
X82665042Y-147572477D01*
X82760805Y-147434403D01*
X82892349Y-147373063D01*
X83059675Y-147388457D01*
X83161228Y-147434521D01*
X83298564Y-147557319D01*
X83477472Y-147940990D01*
X83519045Y-148201862D01*
X83835289Y-148708330D02*
X82632984Y-149736071D01*
X83762692Y-149582957D01*
X82919238Y-150349943D01*
X84479359Y-150089543D01*
X84908739Y-151010352D02*
X84980303Y-151163820D01*
X84986094Y-151347958D01*
X84956104Y-151455362D01*
X84860341Y-151593437D01*
X84633035Y-151792851D01*
X84304174Y-151946201D01*
X84005305Y-151992147D01*
X83837979Y-151976753D01*
X83736425Y-151930689D01*
X83599090Y-151807890D01*
X83527526Y-151654422D01*
X83521735Y-151470284D01*
X83551725Y-151362880D01*
X83647488Y-151224806D01*
X83874794Y-151025392D01*
X84203655Y-150872042D01*
X84502524Y-150826096D01*
X84669850Y-150841490D01*
X84771404Y-150887554D01*
X84908739Y-151010352D01*
X84231577Y-152820827D02*
X84201587Y-152928231D01*
X84100033Y-152882167D01*
X84130024Y-152774763D01*
X84231577Y-152820827D01*
X84100033Y-152882167D01*
X84955070Y-152483457D02*
X84925079Y-152590861D01*
X84823526Y-152544797D01*
X84853516Y-152437393D01*
X84955070Y-152483457D01*
X84823526Y-152544797D01*
X84851448Y-154493583D02*
X84422068Y-153572774D01*
X84636758Y-154033178D02*
X86017971Y-153389108D01*
X85749092Y-153327650D01*
X85545984Y-153235522D01*
X85408649Y-153112724D01*
X86697823Y-154847055D02*
X86769387Y-155000523D01*
X86775178Y-155184661D01*
X86745188Y-155292065D01*
X86649425Y-155430140D01*
X86422119Y-155629554D01*
X86093258Y-155782904D01*
X85794389Y-155828850D01*
X85627063Y-155813456D01*
X85525509Y-155767392D01*
X85388174Y-155644593D01*
X85316610Y-155491125D01*
X85310819Y-155306987D01*
X85340809Y-155199583D01*
X85436572Y-155061509D01*
X85663878Y-154862095D01*
X85992739Y-154708745D01*
X86291608Y-154662799D01*
X86458934Y-154678193D01*
X86560488Y-154724257D01*
X86697823Y-154847055D01*
X106849333Y-143946517D02*
X107103333Y-144019088D01*
X107526666Y-144019088D01*
X107696000Y-143946517D01*
X107780666Y-143873945D01*
X107865333Y-143728802D01*
X107865333Y-143583660D01*
X107780666Y-143438517D01*
X107696000Y-143365945D01*
X107526666Y-143293374D01*
X107188000Y-143220802D01*
X107018666Y-143148231D01*
X106934000Y-143075660D01*
X106849333Y-142930517D01*
X106849333Y-142785374D01*
X106934000Y-142640231D01*
X107018666Y-142567660D01*
X107188000Y-142495088D01*
X107611333Y-142495088D01*
X107865333Y-142567660D01*
X108458000Y-142495088D02*
X108881333Y-144019088D01*
X109220000Y-142930517D01*
X109558666Y-144019088D01*
X109982000Y-142495088D01*
X111590666Y-144019088D02*
X110574666Y-144019088D01*
X111082666Y-144019088D02*
X111082666Y-142495088D01*
X110913333Y-142712802D01*
X110744000Y-142857945D01*
X110574666Y-142930517D01*
X112352666Y-143873945D02*
X112437333Y-143946517D01*
X112352666Y-144019088D01*
X112268000Y-143946517D01*
X112352666Y-143873945D01*
X112352666Y-144019088D01*
X112352666Y-143075660D02*
X112437333Y-143148231D01*
X112352666Y-143220802D01*
X112268000Y-143148231D01*
X112352666Y-143075660D01*
X112352666Y-143220802D01*
X113284000Y-144019088D02*
X113622666Y-144019088D01*
X113792000Y-143946517D01*
X113876666Y-143873945D01*
X114046000Y-143656231D01*
X114130666Y-143365945D01*
X114130666Y-142785374D01*
X114046000Y-142640231D01*
X113961333Y-142567660D01*
X113792000Y-142495088D01*
X113453333Y-142495088D01*
X113284000Y-142567660D01*
X113199333Y-142640231D01*
X113114666Y-142785374D01*
X113114666Y-143148231D01*
X113199333Y-143293374D01*
X113284000Y-143365945D01*
X113453333Y-143438517D01*
X113792000Y-143438517D01*
X113961333Y-143365945D01*
X114046000Y-143293374D01*
X114130666Y-143148231D01*
X125052666Y-142348857D02*
X125306666Y-142421428D01*
X125730000Y-142421428D01*
X125899333Y-142348857D01*
X125984000Y-142276285D01*
X126068666Y-142131142D01*
X126068666Y-141986000D01*
X125984000Y-141840857D01*
X125899333Y-141768285D01*
X125730000Y-141695714D01*
X125391333Y-141623142D01*
X125222000Y-141550571D01*
X125137333Y-141478000D01*
X125052666Y-141332857D01*
X125052666Y-141187714D01*
X125137333Y-141042571D01*
X125222000Y-140970000D01*
X125391333Y-140897428D01*
X125814666Y-140897428D01*
X126068666Y-140970000D01*
X126661333Y-140897428D02*
X127084666Y-142421428D01*
X127423333Y-141332857D01*
X127762000Y-142421428D01*
X128185333Y-140897428D01*
X129794000Y-142421428D02*
X128778000Y-142421428D01*
X129286000Y-142421428D02*
X129286000Y-140897428D01*
X129116666Y-141115142D01*
X128947333Y-141260285D01*
X128778000Y-141332857D01*
X130556000Y-142276285D02*
X130640666Y-142348857D01*
X130556000Y-142421428D01*
X130471333Y-142348857D01*
X130556000Y-142276285D01*
X130556000Y-142421428D01*
X130556000Y-141478000D02*
X130640666Y-141550571D01*
X130556000Y-141623142D01*
X130471333Y-141550571D01*
X130556000Y-141478000D01*
X130556000Y-141623142D01*
X132334000Y-142421428D02*
X131318000Y-142421428D01*
X131826000Y-142421428D02*
X131826000Y-140897428D01*
X131656666Y-141115142D01*
X131487333Y-141260285D01*
X131318000Y-141332857D01*
X133434666Y-140897428D02*
X133604000Y-140897428D01*
X133773333Y-140970000D01*
X133858000Y-141042571D01*
X133942666Y-141187714D01*
X134027333Y-141478000D01*
X134027333Y-141840857D01*
X133942666Y-142131142D01*
X133858000Y-142276285D01*
X133773333Y-142348857D01*
X133604000Y-142421428D01*
X133434666Y-142421428D01*
X133265333Y-142348857D01*
X133180666Y-142276285D01*
X133096000Y-142131142D01*
X133011333Y-141840857D01*
X133011333Y-141478000D01*
X133096000Y-141187714D01*
X133180666Y-141042571D01*
X133265333Y-140970000D01*
X133434666Y-140897428D01*
X163152666Y-147121517D02*
X163406666Y-147194088D01*
X163830000Y-147194088D01*
X163999333Y-147121517D01*
X164084000Y-147048945D01*
X164168666Y-146903802D01*
X164168666Y-146758660D01*
X164084000Y-146613517D01*
X163999333Y-146540945D01*
X163830000Y-146468374D01*
X163491333Y-146395802D01*
X163322000Y-146323231D01*
X163237333Y-146250660D01*
X163152666Y-146105517D01*
X163152666Y-145960374D01*
X163237333Y-145815231D01*
X163322000Y-145742660D01*
X163491333Y-145670088D01*
X163914666Y-145670088D01*
X164168666Y-145742660D01*
X164761333Y-145670088D02*
X165184666Y-147194088D01*
X165523333Y-146105517D01*
X165862000Y-147194088D01*
X166285333Y-145670088D01*
X167894000Y-147194088D02*
X166878000Y-147194088D01*
X167386000Y-147194088D02*
X167386000Y-145670088D01*
X167216666Y-145887802D01*
X167047333Y-146032945D01*
X166878000Y-146105517D01*
X168656000Y-147048945D02*
X168740666Y-147121517D01*
X168656000Y-147194088D01*
X168571333Y-147121517D01*
X168656000Y-147048945D01*
X168656000Y-147194088D01*
X168656000Y-146250660D02*
X168740666Y-146323231D01*
X168656000Y-146395802D01*
X168571333Y-146323231D01*
X168656000Y-146250660D01*
X168656000Y-146395802D01*
X170434000Y-147194088D02*
X169418000Y-147194088D01*
X169926000Y-147194088D02*
X169926000Y-145670088D01*
X169756666Y-145887802D01*
X169587333Y-146032945D01*
X169418000Y-146105517D01*
X171111333Y-145815231D02*
X171196000Y-145742660D01*
X171365333Y-145670088D01*
X171788666Y-145670088D01*
X171958000Y-145742660D01*
X172042666Y-145815231D01*
X172127333Y-145960374D01*
X172127333Y-146105517D01*
X172042666Y-146323231D01*
X171026666Y-147194088D01*
X172127333Y-147194088D01*
X87799333Y-126166517D02*
X88053333Y-126239088D01*
X88476666Y-126239088D01*
X88646000Y-126166517D01*
X88730666Y-126093945D01*
X88815333Y-125948802D01*
X88815333Y-125803660D01*
X88730666Y-125658517D01*
X88646000Y-125585945D01*
X88476666Y-125513374D01*
X88138000Y-125440802D01*
X87968666Y-125368231D01*
X87884000Y-125295660D01*
X87799333Y-125150517D01*
X87799333Y-125005374D01*
X87884000Y-124860231D01*
X87968666Y-124787660D01*
X88138000Y-124715088D01*
X88561333Y-124715088D01*
X88815333Y-124787660D01*
X89408000Y-124715088D02*
X89831333Y-126239088D01*
X90170000Y-125150517D01*
X90508666Y-126239088D01*
X90932000Y-124715088D01*
X91524666Y-124860231D02*
X91609333Y-124787660D01*
X91778666Y-124715088D01*
X92202000Y-124715088D01*
X92371333Y-124787660D01*
X92456000Y-124860231D01*
X92540666Y-125005374D01*
X92540666Y-125150517D01*
X92456000Y-125368231D01*
X91440000Y-126239088D01*
X92540666Y-126239088D01*
X93302666Y-126093945D02*
X93387333Y-126166517D01*
X93302666Y-126239088D01*
X93218000Y-126166517D01*
X93302666Y-126093945D01*
X93302666Y-126239088D01*
X93302666Y-125295660D02*
X93387333Y-125368231D01*
X93302666Y-125440802D01*
X93218000Y-125368231D01*
X93302666Y-125295660D01*
X93302666Y-125440802D01*
X94403333Y-125368231D02*
X94234000Y-125295660D01*
X94149333Y-125223088D01*
X94064666Y-125077945D01*
X94064666Y-125005374D01*
X94149333Y-124860231D01*
X94234000Y-124787660D01*
X94403333Y-124715088D01*
X94742000Y-124715088D01*
X94911333Y-124787660D01*
X94996000Y-124860231D01*
X95080666Y-125005374D01*
X95080666Y-125077945D01*
X94996000Y-125223088D01*
X94911333Y-125295660D01*
X94742000Y-125368231D01*
X94403333Y-125368231D01*
X94234000Y-125440802D01*
X94149333Y-125513374D01*
X94064666Y-125658517D01*
X94064666Y-125948802D01*
X94149333Y-126093945D01*
X94234000Y-126166517D01*
X94403333Y-126239088D01*
X94742000Y-126239088D01*
X94911333Y-126166517D01*
X94996000Y-126093945D01*
X95080666Y-125948802D01*
X95080666Y-125658517D01*
X94996000Y-125513374D01*
X94911333Y-125440802D01*
X94742000Y-125368231D01*
X106849333Y-124896517D02*
X107103333Y-124969088D01*
X107526666Y-124969088D01*
X107696000Y-124896517D01*
X107780666Y-124823945D01*
X107865333Y-124678802D01*
X107865333Y-124533660D01*
X107780666Y-124388517D01*
X107696000Y-124315945D01*
X107526666Y-124243374D01*
X107188000Y-124170802D01*
X107018666Y-124098231D01*
X106934000Y-124025660D01*
X106849333Y-123880517D01*
X106849333Y-123735374D01*
X106934000Y-123590231D01*
X107018666Y-123517660D01*
X107188000Y-123445088D01*
X107611333Y-123445088D01*
X107865333Y-123517660D01*
X108458000Y-123445088D02*
X108881333Y-124969088D01*
X109220000Y-123880517D01*
X109558666Y-124969088D01*
X109982000Y-123445088D01*
X110574666Y-123590231D02*
X110659333Y-123517660D01*
X110828666Y-123445088D01*
X111252000Y-123445088D01*
X111421333Y-123517660D01*
X111506000Y-123590231D01*
X111590666Y-123735374D01*
X111590666Y-123880517D01*
X111506000Y-124098231D01*
X110490000Y-124969088D01*
X111590666Y-124969088D01*
X112352666Y-124823945D02*
X112437333Y-124896517D01*
X112352666Y-124969088D01*
X112268000Y-124896517D01*
X112352666Y-124823945D01*
X112352666Y-124969088D01*
X112352666Y-124025660D02*
X112437333Y-124098231D01*
X112352666Y-124170802D01*
X112268000Y-124098231D01*
X112352666Y-124025660D01*
X112352666Y-124170802D01*
X113284000Y-124969088D02*
X113622666Y-124969088D01*
X113792000Y-124896517D01*
X113876666Y-124823945D01*
X114046000Y-124606231D01*
X114130666Y-124315945D01*
X114130666Y-123735374D01*
X114046000Y-123590231D01*
X113961333Y-123517660D01*
X113792000Y-123445088D01*
X113453333Y-123445088D01*
X113284000Y-123517660D01*
X113199333Y-123590231D01*
X113114666Y-123735374D01*
X113114666Y-124098231D01*
X113199333Y-124243374D01*
X113284000Y-124315945D01*
X113453333Y-124388517D01*
X113792000Y-124388517D01*
X113961333Y-124315945D01*
X114046000Y-124243374D01*
X114130666Y-124098231D01*
X125052666Y-123298857D02*
X125306666Y-123371428D01*
X125730000Y-123371428D01*
X125899333Y-123298857D01*
X125984000Y-123226285D01*
X126068666Y-123081142D01*
X126068666Y-122936000D01*
X125984000Y-122790857D01*
X125899333Y-122718285D01*
X125730000Y-122645714D01*
X125391333Y-122573142D01*
X125222000Y-122500571D01*
X125137333Y-122428000D01*
X125052666Y-122282857D01*
X125052666Y-122137714D01*
X125137333Y-121992571D01*
X125222000Y-121920000D01*
X125391333Y-121847428D01*
X125814666Y-121847428D01*
X126068666Y-121920000D01*
X126661333Y-121847428D02*
X127084666Y-123371428D01*
X127423333Y-122282857D01*
X127762000Y-123371428D01*
X128185333Y-121847428D01*
X128778000Y-121992571D02*
X128862666Y-121920000D01*
X129032000Y-121847428D01*
X129455333Y-121847428D01*
X129624666Y-121920000D01*
X129709333Y-121992571D01*
X129794000Y-122137714D01*
X129794000Y-122282857D01*
X129709333Y-122500571D01*
X128693333Y-123371428D01*
X129794000Y-123371428D01*
X130556000Y-123226285D02*
X130640666Y-123298857D01*
X130556000Y-123371428D01*
X130471333Y-123298857D01*
X130556000Y-123226285D01*
X130556000Y-123371428D01*
X130556000Y-122428000D02*
X130640666Y-122500571D01*
X130556000Y-122573142D01*
X130471333Y-122500571D01*
X130556000Y-122428000D01*
X130556000Y-122573142D01*
X132334000Y-123371428D02*
X131318000Y-123371428D01*
X131826000Y-123371428D02*
X131826000Y-121847428D01*
X131656666Y-122065142D01*
X131487333Y-122210285D01*
X131318000Y-122282857D01*
X133434666Y-121847428D02*
X133604000Y-121847428D01*
X133773333Y-121920000D01*
X133858000Y-121992571D01*
X133942666Y-122137714D01*
X134027333Y-122428000D01*
X134027333Y-122790857D01*
X133942666Y-123081142D01*
X133858000Y-123226285D01*
X133773333Y-123298857D01*
X133604000Y-123371428D01*
X133434666Y-123371428D01*
X133265333Y-123298857D01*
X133180666Y-123226285D01*
X133096000Y-123081142D01*
X133011333Y-122790857D01*
X133011333Y-122428000D01*
X133096000Y-122137714D01*
X133180666Y-121992571D01*
X133265333Y-121920000D01*
X133434666Y-121847428D01*
X144102666Y-124896517D02*
X144356666Y-124969088D01*
X144780000Y-124969088D01*
X144949333Y-124896517D01*
X145034000Y-124823945D01*
X145118666Y-124678802D01*
X145118666Y-124533660D01*
X145034000Y-124388517D01*
X144949333Y-124315945D01*
X144780000Y-124243374D01*
X144441333Y-124170802D01*
X144272000Y-124098231D01*
X144187333Y-124025660D01*
X144102666Y-123880517D01*
X144102666Y-123735374D01*
X144187333Y-123590231D01*
X144272000Y-123517660D01*
X144441333Y-123445088D01*
X144864666Y-123445088D01*
X145118666Y-123517660D01*
X145711333Y-123445088D02*
X146134666Y-124969088D01*
X146473333Y-123880517D01*
X146812000Y-124969088D01*
X147235333Y-123445088D01*
X147828000Y-123590231D02*
X147912666Y-123517660D01*
X148082000Y-123445088D01*
X148505333Y-123445088D01*
X148674666Y-123517660D01*
X148759333Y-123590231D01*
X148844000Y-123735374D01*
X148844000Y-123880517D01*
X148759333Y-124098231D01*
X147743333Y-124969088D01*
X148844000Y-124969088D01*
X149606000Y-124823945D02*
X149690666Y-124896517D01*
X149606000Y-124969088D01*
X149521333Y-124896517D01*
X149606000Y-124823945D01*
X149606000Y-124969088D01*
X149606000Y-124025660D02*
X149690666Y-124098231D01*
X149606000Y-124170802D01*
X149521333Y-124098231D01*
X149606000Y-124025660D01*
X149606000Y-124170802D01*
X151384000Y-124969088D02*
X150368000Y-124969088D01*
X150876000Y-124969088D02*
X150876000Y-123445088D01*
X150706666Y-123662802D01*
X150537333Y-123807945D01*
X150368000Y-123880517D01*
X153077333Y-124969088D02*
X152061333Y-124969088D01*
X152569333Y-124969088D02*
X152569333Y-123445088D01*
X152400000Y-123662802D01*
X152230666Y-123807945D01*
X152061333Y-123880517D01*
X163152666Y-128071517D02*
X163406666Y-128144088D01*
X163830000Y-128144088D01*
X163999333Y-128071517D01*
X164084000Y-127998945D01*
X164168666Y-127853802D01*
X164168666Y-127708660D01*
X164084000Y-127563517D01*
X163999333Y-127490945D01*
X163830000Y-127418374D01*
X163491333Y-127345802D01*
X163322000Y-127273231D01*
X163237333Y-127200660D01*
X163152666Y-127055517D01*
X163152666Y-126910374D01*
X163237333Y-126765231D01*
X163322000Y-126692660D01*
X163491333Y-126620088D01*
X163914666Y-126620088D01*
X164168666Y-126692660D01*
X164761333Y-126620088D02*
X165184666Y-128144088D01*
X165523333Y-127055517D01*
X165862000Y-128144088D01*
X166285333Y-126620088D01*
X166878000Y-126765231D02*
X166962666Y-126692660D01*
X167132000Y-126620088D01*
X167555333Y-126620088D01*
X167724666Y-126692660D01*
X167809333Y-126765231D01*
X167894000Y-126910374D01*
X167894000Y-127055517D01*
X167809333Y-127273231D01*
X166793333Y-128144088D01*
X167894000Y-128144088D01*
X168656000Y-127998945D02*
X168740666Y-128071517D01*
X168656000Y-128144088D01*
X168571333Y-128071517D01*
X168656000Y-127998945D01*
X168656000Y-128144088D01*
X168656000Y-127200660D02*
X168740666Y-127273231D01*
X168656000Y-127345802D01*
X168571333Y-127273231D01*
X168656000Y-127200660D01*
X168656000Y-127345802D01*
X170434000Y-128144088D02*
X169418000Y-128144088D01*
X169926000Y-128144088D02*
X169926000Y-126620088D01*
X169756666Y-126837802D01*
X169587333Y-126982945D01*
X169418000Y-127055517D01*
X171111333Y-126765231D02*
X171196000Y-126692660D01*
X171365333Y-126620088D01*
X171788666Y-126620088D01*
X171958000Y-126692660D01*
X172042666Y-126765231D01*
X172127333Y-126910374D01*
X172127333Y-127055517D01*
X172042666Y-127273231D01*
X171026666Y-128144088D01*
X172127333Y-128144088D01*
X87799333Y-107116517D02*
X88053333Y-107189088D01*
X88476666Y-107189088D01*
X88646000Y-107116517D01*
X88730666Y-107043945D01*
X88815333Y-106898802D01*
X88815333Y-106753660D01*
X88730666Y-106608517D01*
X88646000Y-106535945D01*
X88476666Y-106463374D01*
X88138000Y-106390802D01*
X87968666Y-106318231D01*
X87884000Y-106245660D01*
X87799333Y-106100517D01*
X87799333Y-105955374D01*
X87884000Y-105810231D01*
X87968666Y-105737660D01*
X88138000Y-105665088D01*
X88561333Y-105665088D01*
X88815333Y-105737660D01*
X89408000Y-105665088D02*
X89831333Y-107189088D01*
X90170000Y-106100517D01*
X90508666Y-107189088D01*
X90932000Y-105665088D01*
X91440000Y-105665088D02*
X92540666Y-105665088D01*
X91948000Y-106245660D01*
X92202000Y-106245660D01*
X92371333Y-106318231D01*
X92456000Y-106390802D01*
X92540666Y-106535945D01*
X92540666Y-106898802D01*
X92456000Y-107043945D01*
X92371333Y-107116517D01*
X92202000Y-107189088D01*
X91694000Y-107189088D01*
X91524666Y-107116517D01*
X91440000Y-107043945D01*
X93302666Y-107043945D02*
X93387333Y-107116517D01*
X93302666Y-107189088D01*
X93218000Y-107116517D01*
X93302666Y-107043945D01*
X93302666Y-107189088D01*
X93302666Y-106245660D02*
X93387333Y-106318231D01*
X93302666Y-106390802D01*
X93218000Y-106318231D01*
X93302666Y-106245660D01*
X93302666Y-106390802D01*
X94403333Y-106318231D02*
X94234000Y-106245660D01*
X94149333Y-106173088D01*
X94064666Y-106027945D01*
X94064666Y-105955374D01*
X94149333Y-105810231D01*
X94234000Y-105737660D01*
X94403333Y-105665088D01*
X94742000Y-105665088D01*
X94911333Y-105737660D01*
X94996000Y-105810231D01*
X95080666Y-105955374D01*
X95080666Y-106027945D01*
X94996000Y-106173088D01*
X94911333Y-106245660D01*
X94742000Y-106318231D01*
X94403333Y-106318231D01*
X94234000Y-106390802D01*
X94149333Y-106463374D01*
X94064666Y-106608517D01*
X94064666Y-106898802D01*
X94149333Y-107043945D01*
X94234000Y-107116517D01*
X94403333Y-107189088D01*
X94742000Y-107189088D01*
X94911333Y-107116517D01*
X94996000Y-107043945D01*
X95080666Y-106898802D01*
X95080666Y-106608517D01*
X94996000Y-106463374D01*
X94911333Y-106390802D01*
X94742000Y-106318231D01*
X106849333Y-105846517D02*
X107103333Y-105919088D01*
X107526666Y-105919088D01*
X107696000Y-105846517D01*
X107780666Y-105773945D01*
X107865333Y-105628802D01*
X107865333Y-105483660D01*
X107780666Y-105338517D01*
X107696000Y-105265945D01*
X107526666Y-105193374D01*
X107188000Y-105120802D01*
X107018666Y-105048231D01*
X106934000Y-104975660D01*
X106849333Y-104830517D01*
X106849333Y-104685374D01*
X106934000Y-104540231D01*
X107018666Y-104467660D01*
X107188000Y-104395088D01*
X107611333Y-104395088D01*
X107865333Y-104467660D01*
X108458000Y-104395088D02*
X108881333Y-105919088D01*
X109220000Y-104830517D01*
X109558666Y-105919088D01*
X109982000Y-104395088D01*
X110490000Y-104395088D02*
X111590666Y-104395088D01*
X110998000Y-104975660D01*
X111252000Y-104975660D01*
X111421333Y-105048231D01*
X111506000Y-105120802D01*
X111590666Y-105265945D01*
X111590666Y-105628802D01*
X111506000Y-105773945D01*
X111421333Y-105846517D01*
X111252000Y-105919088D01*
X110744000Y-105919088D01*
X110574666Y-105846517D01*
X110490000Y-105773945D01*
X112352666Y-105773945D02*
X112437333Y-105846517D01*
X112352666Y-105919088D01*
X112268000Y-105846517D01*
X112352666Y-105773945D01*
X112352666Y-105919088D01*
X112352666Y-104975660D02*
X112437333Y-105048231D01*
X112352666Y-105120802D01*
X112268000Y-105048231D01*
X112352666Y-104975660D01*
X112352666Y-105120802D01*
X113284000Y-105919088D02*
X113622666Y-105919088D01*
X113792000Y-105846517D01*
X113876666Y-105773945D01*
X114046000Y-105556231D01*
X114130666Y-105265945D01*
X114130666Y-104685374D01*
X114046000Y-104540231D01*
X113961333Y-104467660D01*
X113792000Y-104395088D01*
X113453333Y-104395088D01*
X113284000Y-104467660D01*
X113199333Y-104540231D01*
X113114666Y-104685374D01*
X113114666Y-105048231D01*
X113199333Y-105193374D01*
X113284000Y-105265945D01*
X113453333Y-105338517D01*
X113792000Y-105338517D01*
X113961333Y-105265945D01*
X114046000Y-105193374D01*
X114130666Y-105048231D01*
X125052666Y-104248857D02*
X125306666Y-104321428D01*
X125730000Y-104321428D01*
X125899333Y-104248857D01*
X125984000Y-104176285D01*
X126068666Y-104031142D01*
X126068666Y-103886000D01*
X125984000Y-103740857D01*
X125899333Y-103668285D01*
X125730000Y-103595714D01*
X125391333Y-103523142D01*
X125222000Y-103450571D01*
X125137333Y-103378000D01*
X125052666Y-103232857D01*
X125052666Y-103087714D01*
X125137333Y-102942571D01*
X125222000Y-102870000D01*
X125391333Y-102797428D01*
X125814666Y-102797428D01*
X126068666Y-102870000D01*
X126661333Y-102797428D02*
X127084666Y-104321428D01*
X127423333Y-103232857D01*
X127762000Y-104321428D01*
X128185333Y-102797428D01*
X128693333Y-102797428D02*
X129794000Y-102797428D01*
X129201333Y-103378000D01*
X129455333Y-103378000D01*
X129624666Y-103450571D01*
X129709333Y-103523142D01*
X129794000Y-103668285D01*
X129794000Y-104031142D01*
X129709333Y-104176285D01*
X129624666Y-104248857D01*
X129455333Y-104321428D01*
X128947333Y-104321428D01*
X128778000Y-104248857D01*
X128693333Y-104176285D01*
X130556000Y-104176285D02*
X130640666Y-104248857D01*
X130556000Y-104321428D01*
X130471333Y-104248857D01*
X130556000Y-104176285D01*
X130556000Y-104321428D01*
X130556000Y-103378000D02*
X130640666Y-103450571D01*
X130556000Y-103523142D01*
X130471333Y-103450571D01*
X130556000Y-103378000D01*
X130556000Y-103523142D01*
X132334000Y-104321428D02*
X131318000Y-104321428D01*
X131826000Y-104321428D02*
X131826000Y-102797428D01*
X131656666Y-103015142D01*
X131487333Y-103160285D01*
X131318000Y-103232857D01*
X133434666Y-102797428D02*
X133604000Y-102797428D01*
X133773333Y-102870000D01*
X133858000Y-102942571D01*
X133942666Y-103087714D01*
X134027333Y-103378000D01*
X134027333Y-103740857D01*
X133942666Y-104031142D01*
X133858000Y-104176285D01*
X133773333Y-104248857D01*
X133604000Y-104321428D01*
X133434666Y-104321428D01*
X133265333Y-104248857D01*
X133180666Y-104176285D01*
X133096000Y-104031142D01*
X133011333Y-103740857D01*
X133011333Y-103378000D01*
X133096000Y-103087714D01*
X133180666Y-102942571D01*
X133265333Y-102870000D01*
X133434666Y-102797428D01*
X144102666Y-105846517D02*
X144356666Y-105919088D01*
X144780000Y-105919088D01*
X144949333Y-105846517D01*
X145034000Y-105773945D01*
X145118666Y-105628802D01*
X145118666Y-105483660D01*
X145034000Y-105338517D01*
X144949333Y-105265945D01*
X144780000Y-105193374D01*
X144441333Y-105120802D01*
X144272000Y-105048231D01*
X144187333Y-104975660D01*
X144102666Y-104830517D01*
X144102666Y-104685374D01*
X144187333Y-104540231D01*
X144272000Y-104467660D01*
X144441333Y-104395088D01*
X144864666Y-104395088D01*
X145118666Y-104467660D01*
X145711333Y-104395088D02*
X146134666Y-105919088D01*
X146473333Y-104830517D01*
X146812000Y-105919088D01*
X147235333Y-104395088D01*
X147743333Y-104395088D02*
X148844000Y-104395088D01*
X148251333Y-104975660D01*
X148505333Y-104975660D01*
X148674666Y-105048231D01*
X148759333Y-105120802D01*
X148844000Y-105265945D01*
X148844000Y-105628802D01*
X148759333Y-105773945D01*
X148674666Y-105846517D01*
X148505333Y-105919088D01*
X147997333Y-105919088D01*
X147828000Y-105846517D01*
X147743333Y-105773945D01*
X149606000Y-105773945D02*
X149690666Y-105846517D01*
X149606000Y-105919088D01*
X149521333Y-105846517D01*
X149606000Y-105773945D01*
X149606000Y-105919088D01*
X149606000Y-104975660D02*
X149690666Y-105048231D01*
X149606000Y-105120802D01*
X149521333Y-105048231D01*
X149606000Y-104975660D01*
X149606000Y-105120802D01*
X151384000Y-105919088D02*
X150368000Y-105919088D01*
X150876000Y-105919088D02*
X150876000Y-104395088D01*
X150706666Y-104612802D01*
X150537333Y-104757945D01*
X150368000Y-104830517D01*
X153077333Y-105919088D02*
X152061333Y-105919088D01*
X152569333Y-105919088D02*
X152569333Y-104395088D01*
X152400000Y-104612802D01*
X152230666Y-104757945D01*
X152061333Y-104830517D01*
X106849333Y-86796517D02*
X107103333Y-86869088D01*
X107526666Y-86869088D01*
X107696000Y-86796517D01*
X107780666Y-86723945D01*
X107865333Y-86578802D01*
X107865333Y-86433660D01*
X107780666Y-86288517D01*
X107696000Y-86215945D01*
X107526666Y-86143374D01*
X107188000Y-86070802D01*
X107018666Y-85998231D01*
X106934000Y-85925660D01*
X106849333Y-85780517D01*
X106849333Y-85635374D01*
X106934000Y-85490231D01*
X107018666Y-85417660D01*
X107188000Y-85345088D01*
X107611333Y-85345088D01*
X107865333Y-85417660D01*
X108458000Y-85345088D02*
X108881333Y-86869088D01*
X109220000Y-85780517D01*
X109558666Y-86869088D01*
X109982000Y-85345088D01*
X111421333Y-85853088D02*
X111421333Y-86869088D01*
X110998000Y-85272517D02*
X110574666Y-86361088D01*
X111675333Y-86361088D01*
X112352666Y-86723945D02*
X112437333Y-86796517D01*
X112352666Y-86869088D01*
X112268000Y-86796517D01*
X112352666Y-86723945D01*
X112352666Y-86869088D01*
X112352666Y-85925660D02*
X112437333Y-85998231D01*
X112352666Y-86070802D01*
X112268000Y-85998231D01*
X112352666Y-85925660D01*
X112352666Y-86070802D01*
X113284000Y-86869088D02*
X113622666Y-86869088D01*
X113792000Y-86796517D01*
X113876666Y-86723945D01*
X114046000Y-86506231D01*
X114130666Y-86215945D01*
X114130666Y-85635374D01*
X114046000Y-85490231D01*
X113961333Y-85417660D01*
X113792000Y-85345088D01*
X113453333Y-85345088D01*
X113284000Y-85417660D01*
X113199333Y-85490231D01*
X113114666Y-85635374D01*
X113114666Y-85998231D01*
X113199333Y-86143374D01*
X113284000Y-86215945D01*
X113453333Y-86288517D01*
X113792000Y-86288517D01*
X113961333Y-86215945D01*
X114046000Y-86143374D01*
X114130666Y-85998231D01*
X125052666Y-85198857D02*
X125306666Y-85271428D01*
X125730000Y-85271428D01*
X125899333Y-85198857D01*
X125984000Y-85126285D01*
X126068666Y-84981142D01*
X126068666Y-84836000D01*
X125984000Y-84690857D01*
X125899333Y-84618285D01*
X125730000Y-84545714D01*
X125391333Y-84473142D01*
X125222000Y-84400571D01*
X125137333Y-84328000D01*
X125052666Y-84182857D01*
X125052666Y-84037714D01*
X125137333Y-83892571D01*
X125222000Y-83820000D01*
X125391333Y-83747428D01*
X125814666Y-83747428D01*
X126068666Y-83820000D01*
X126661333Y-83747428D02*
X127084666Y-85271428D01*
X127423333Y-84182857D01*
X127762000Y-85271428D01*
X128185333Y-83747428D01*
X129624666Y-84255428D02*
X129624666Y-85271428D01*
X129201333Y-83674857D02*
X128778000Y-84763428D01*
X129878666Y-84763428D01*
X130556000Y-85126285D02*
X130640666Y-85198857D01*
X130556000Y-85271428D01*
X130471333Y-85198857D01*
X130556000Y-85126285D01*
X130556000Y-85271428D01*
X130556000Y-84328000D02*
X130640666Y-84400571D01*
X130556000Y-84473142D01*
X130471333Y-84400571D01*
X130556000Y-84328000D01*
X130556000Y-84473142D01*
X132334000Y-85271428D02*
X131318000Y-85271428D01*
X131826000Y-85271428D02*
X131826000Y-83747428D01*
X131656666Y-83965142D01*
X131487333Y-84110285D01*
X131318000Y-84182857D01*
X133434666Y-83747428D02*
X133604000Y-83747428D01*
X133773333Y-83820000D01*
X133858000Y-83892571D01*
X133942666Y-84037714D01*
X134027333Y-84328000D01*
X134027333Y-84690857D01*
X133942666Y-84981142D01*
X133858000Y-85126285D01*
X133773333Y-85198857D01*
X133604000Y-85271428D01*
X133434666Y-85271428D01*
X133265333Y-85198857D01*
X133180666Y-85126285D01*
X133096000Y-84981142D01*
X133011333Y-84690857D01*
X133011333Y-84328000D01*
X133096000Y-84037714D01*
X133180666Y-83892571D01*
X133265333Y-83820000D01*
X133434666Y-83747428D01*
X163152666Y-89971517D02*
X163406666Y-90044088D01*
X163830000Y-90044088D01*
X163999333Y-89971517D01*
X164084000Y-89898945D01*
X164168666Y-89753802D01*
X164168666Y-89608660D01*
X164084000Y-89463517D01*
X163999333Y-89390945D01*
X163830000Y-89318374D01*
X163491333Y-89245802D01*
X163322000Y-89173231D01*
X163237333Y-89100660D01*
X163152666Y-88955517D01*
X163152666Y-88810374D01*
X163237333Y-88665231D01*
X163322000Y-88592660D01*
X163491333Y-88520088D01*
X163914666Y-88520088D01*
X164168666Y-88592660D01*
X164761333Y-88520088D02*
X165184666Y-90044088D01*
X165523333Y-88955517D01*
X165862000Y-90044088D01*
X166285333Y-88520088D01*
X167724666Y-89028088D02*
X167724666Y-90044088D01*
X167301333Y-88447517D02*
X166878000Y-89536088D01*
X167978666Y-89536088D01*
X168656000Y-89898945D02*
X168740666Y-89971517D01*
X168656000Y-90044088D01*
X168571333Y-89971517D01*
X168656000Y-89898945D01*
X168656000Y-90044088D01*
X168656000Y-89100660D02*
X168740666Y-89173231D01*
X168656000Y-89245802D01*
X168571333Y-89173231D01*
X168656000Y-89100660D01*
X168656000Y-89245802D01*
X170434000Y-90044088D02*
X169418000Y-90044088D01*
X169926000Y-90044088D02*
X169926000Y-88520088D01*
X169756666Y-88737802D01*
X169587333Y-88882945D01*
X169418000Y-88955517D01*
X171111333Y-88665231D02*
X171196000Y-88592660D01*
X171365333Y-88520088D01*
X171788666Y-88520088D01*
X171958000Y-88592660D01*
X172042666Y-88665231D01*
X172127333Y-88810374D01*
X172127333Y-88955517D01*
X172042666Y-89173231D01*
X171026666Y-90044088D01*
X172127333Y-90044088D01*
X144102666Y-143946517D02*
X144356666Y-144019088D01*
X144780000Y-144019088D01*
X144949333Y-143946517D01*
X145034000Y-143873945D01*
X145118666Y-143728802D01*
X145118666Y-143583660D01*
X145034000Y-143438517D01*
X144949333Y-143365945D01*
X144780000Y-143293374D01*
X144441333Y-143220802D01*
X144272000Y-143148231D01*
X144187333Y-143075660D01*
X144102666Y-142930517D01*
X144102666Y-142785374D01*
X144187333Y-142640231D01*
X144272000Y-142567660D01*
X144441333Y-142495088D01*
X144864666Y-142495088D01*
X145118666Y-142567660D01*
X145711333Y-142495088D02*
X146134666Y-144019088D01*
X146473333Y-142930517D01*
X146812000Y-144019088D01*
X147235333Y-142495088D01*
X148844000Y-144019088D02*
X147828000Y-144019088D01*
X148336000Y-144019088D02*
X148336000Y-142495088D01*
X148166666Y-142712802D01*
X147997333Y-142857945D01*
X147828000Y-142930517D01*
X149606000Y-143873945D02*
X149690666Y-143946517D01*
X149606000Y-144019088D01*
X149521333Y-143946517D01*
X149606000Y-143873945D01*
X149606000Y-144019088D01*
X149606000Y-143075660D02*
X149690666Y-143148231D01*
X149606000Y-143220802D01*
X149521333Y-143148231D01*
X149606000Y-143075660D01*
X149606000Y-143220802D01*
X151384000Y-144019088D02*
X150368000Y-144019088D01*
X150876000Y-144019088D02*
X150876000Y-142495088D01*
X150706666Y-142712802D01*
X150537333Y-142857945D01*
X150368000Y-142930517D01*
X153077333Y-144019088D02*
X152061333Y-144019088D01*
X152569333Y-144019088D02*
X152569333Y-142495088D01*
X152400000Y-142712802D01*
X152230666Y-142857945D01*
X152061333Y-142930517D01*
X106849333Y-67746517D02*
X107103333Y-67819088D01*
X107526666Y-67819088D01*
X107696000Y-67746517D01*
X107780666Y-67673945D01*
X107865333Y-67528802D01*
X107865333Y-67383660D01*
X107780666Y-67238517D01*
X107696000Y-67165945D01*
X107526666Y-67093374D01*
X107188000Y-67020802D01*
X107018666Y-66948231D01*
X106934000Y-66875660D01*
X106849333Y-66730517D01*
X106849333Y-66585374D01*
X106934000Y-66440231D01*
X107018666Y-66367660D01*
X107188000Y-66295088D01*
X107611333Y-66295088D01*
X107865333Y-66367660D01*
X108458000Y-66295088D02*
X108881333Y-67819088D01*
X109220000Y-66730517D01*
X109558666Y-67819088D01*
X109982000Y-66295088D01*
X111506000Y-66295088D02*
X110659333Y-66295088D01*
X110574666Y-67020802D01*
X110659333Y-66948231D01*
X110828666Y-66875660D01*
X111252000Y-66875660D01*
X111421333Y-66948231D01*
X111506000Y-67020802D01*
X111590666Y-67165945D01*
X111590666Y-67528802D01*
X111506000Y-67673945D01*
X111421333Y-67746517D01*
X111252000Y-67819088D01*
X110828666Y-67819088D01*
X110659333Y-67746517D01*
X110574666Y-67673945D01*
X112352666Y-67673945D02*
X112437333Y-67746517D01*
X112352666Y-67819088D01*
X112268000Y-67746517D01*
X112352666Y-67673945D01*
X112352666Y-67819088D01*
X112352666Y-66875660D02*
X112437333Y-66948231D01*
X112352666Y-67020802D01*
X112268000Y-66948231D01*
X112352666Y-66875660D01*
X112352666Y-67020802D01*
X113284000Y-67819088D02*
X113622666Y-67819088D01*
X113792000Y-67746517D01*
X113876666Y-67673945D01*
X114046000Y-67456231D01*
X114130666Y-67165945D01*
X114130666Y-66585374D01*
X114046000Y-66440231D01*
X113961333Y-66367660D01*
X113792000Y-66295088D01*
X113453333Y-66295088D01*
X113284000Y-66367660D01*
X113199333Y-66440231D01*
X113114666Y-66585374D01*
X113114666Y-66948231D01*
X113199333Y-67093374D01*
X113284000Y-67165945D01*
X113453333Y-67238517D01*
X113792000Y-67238517D01*
X113961333Y-67165945D01*
X114046000Y-67093374D01*
X114130666Y-66948231D01*
X125052666Y-66148857D02*
X125306666Y-66221428D01*
X125730000Y-66221428D01*
X125899333Y-66148857D01*
X125984000Y-66076285D01*
X126068666Y-65931142D01*
X126068666Y-65786000D01*
X125984000Y-65640857D01*
X125899333Y-65568285D01*
X125730000Y-65495714D01*
X125391333Y-65423142D01*
X125222000Y-65350571D01*
X125137333Y-65278000D01*
X125052666Y-65132857D01*
X125052666Y-64987714D01*
X125137333Y-64842571D01*
X125222000Y-64770000D01*
X125391333Y-64697428D01*
X125814666Y-64697428D01*
X126068666Y-64770000D01*
X126661333Y-64697428D02*
X127084666Y-66221428D01*
X127423333Y-65132857D01*
X127762000Y-66221428D01*
X128185333Y-64697428D01*
X129709333Y-64697428D02*
X128862666Y-64697428D01*
X128778000Y-65423142D01*
X128862666Y-65350571D01*
X129032000Y-65278000D01*
X129455333Y-65278000D01*
X129624666Y-65350571D01*
X129709333Y-65423142D01*
X129794000Y-65568285D01*
X129794000Y-65931142D01*
X129709333Y-66076285D01*
X129624666Y-66148857D01*
X129455333Y-66221428D01*
X129032000Y-66221428D01*
X128862666Y-66148857D01*
X128778000Y-66076285D01*
X130556000Y-66076285D02*
X130640666Y-66148857D01*
X130556000Y-66221428D01*
X130471333Y-66148857D01*
X130556000Y-66076285D01*
X130556000Y-66221428D01*
X130556000Y-65278000D02*
X130640666Y-65350571D01*
X130556000Y-65423142D01*
X130471333Y-65350571D01*
X130556000Y-65278000D01*
X130556000Y-65423142D01*
X132334000Y-66221428D02*
X131318000Y-66221428D01*
X131826000Y-66221428D02*
X131826000Y-64697428D01*
X131656666Y-64915142D01*
X131487333Y-65060285D01*
X131318000Y-65132857D01*
X133434666Y-64697428D02*
X133604000Y-64697428D01*
X133773333Y-64770000D01*
X133858000Y-64842571D01*
X133942666Y-64987714D01*
X134027333Y-65278000D01*
X134027333Y-65640857D01*
X133942666Y-65931142D01*
X133858000Y-66076285D01*
X133773333Y-66148857D01*
X133604000Y-66221428D01*
X133434666Y-66221428D01*
X133265333Y-66148857D01*
X133180666Y-66076285D01*
X133096000Y-65931142D01*
X133011333Y-65640857D01*
X133011333Y-65278000D01*
X133096000Y-64987714D01*
X133180666Y-64842571D01*
X133265333Y-64770000D01*
X133434666Y-64697428D01*
X144102666Y-67746517D02*
X144356666Y-67819088D01*
X144780000Y-67819088D01*
X144949333Y-67746517D01*
X145034000Y-67673945D01*
X145118666Y-67528802D01*
X145118666Y-67383660D01*
X145034000Y-67238517D01*
X144949333Y-67165945D01*
X144780000Y-67093374D01*
X144441333Y-67020802D01*
X144272000Y-66948231D01*
X144187333Y-66875660D01*
X144102666Y-66730517D01*
X144102666Y-66585374D01*
X144187333Y-66440231D01*
X144272000Y-66367660D01*
X144441333Y-66295088D01*
X144864666Y-66295088D01*
X145118666Y-66367660D01*
X145711333Y-66295088D02*
X146134666Y-67819088D01*
X146473333Y-66730517D01*
X146812000Y-67819088D01*
X147235333Y-66295088D01*
X148759333Y-66295088D02*
X147912666Y-66295088D01*
X147828000Y-67020802D01*
X147912666Y-66948231D01*
X148082000Y-66875660D01*
X148505333Y-66875660D01*
X148674666Y-66948231D01*
X148759333Y-67020802D01*
X148844000Y-67165945D01*
X148844000Y-67528802D01*
X148759333Y-67673945D01*
X148674666Y-67746517D01*
X148505333Y-67819088D01*
X148082000Y-67819088D01*
X147912666Y-67746517D01*
X147828000Y-67673945D01*
X149606000Y-67673945D02*
X149690666Y-67746517D01*
X149606000Y-67819088D01*
X149521333Y-67746517D01*
X149606000Y-67673945D01*
X149606000Y-67819088D01*
X149606000Y-66875660D02*
X149690666Y-66948231D01*
X149606000Y-67020802D01*
X149521333Y-66948231D01*
X149606000Y-66875660D01*
X149606000Y-67020802D01*
X151384000Y-67819088D02*
X150368000Y-67819088D01*
X150876000Y-67819088D02*
X150876000Y-66295088D01*
X150706666Y-66512802D01*
X150537333Y-66657945D01*
X150368000Y-66730517D01*
X153077333Y-67819088D02*
X152061333Y-67819088D01*
X152569333Y-67819088D02*
X152569333Y-66295088D01*
X152400000Y-66512802D01*
X152230666Y-66657945D01*
X152061333Y-66730517D01*
X163152666Y-70924057D02*
X163406666Y-70996628D01*
X163830000Y-70996628D01*
X163999333Y-70924057D01*
X164084000Y-70851485D01*
X164168666Y-70706342D01*
X164168666Y-70561200D01*
X164084000Y-70416057D01*
X163999333Y-70343485D01*
X163830000Y-70270914D01*
X163491333Y-70198342D01*
X163322000Y-70125771D01*
X163237333Y-70053200D01*
X163152666Y-69908057D01*
X163152666Y-69762914D01*
X163237333Y-69617771D01*
X163322000Y-69545200D01*
X163491333Y-69472628D01*
X163914666Y-69472628D01*
X164168666Y-69545200D01*
X164761333Y-69472628D02*
X165184666Y-70996628D01*
X165523333Y-69908057D01*
X165862000Y-70996628D01*
X166285333Y-69472628D01*
X167809333Y-69472628D02*
X166962666Y-69472628D01*
X166878000Y-70198342D01*
X166962666Y-70125771D01*
X167132000Y-70053200D01*
X167555333Y-70053200D01*
X167724666Y-70125771D01*
X167809333Y-70198342D01*
X167894000Y-70343485D01*
X167894000Y-70706342D01*
X167809333Y-70851485D01*
X167724666Y-70924057D01*
X167555333Y-70996628D01*
X167132000Y-70996628D01*
X166962666Y-70924057D01*
X166878000Y-70851485D01*
X168656000Y-70851485D02*
X168740666Y-70924057D01*
X168656000Y-70996628D01*
X168571333Y-70924057D01*
X168656000Y-70851485D01*
X168656000Y-70996628D01*
X168656000Y-70053200D02*
X168740666Y-70125771D01*
X168656000Y-70198342D01*
X168571333Y-70125771D01*
X168656000Y-70053200D01*
X168656000Y-70198342D01*
X170434000Y-70996628D02*
X169418000Y-70996628D01*
X169926000Y-70996628D02*
X169926000Y-69472628D01*
X169756666Y-69690342D01*
X169587333Y-69835485D01*
X169418000Y-69908057D01*
X171111333Y-69617771D02*
X171196000Y-69545200D01*
X171365333Y-69472628D01*
X171788666Y-69472628D01*
X171958000Y-69545200D01*
X172042666Y-69617771D01*
X172127333Y-69762914D01*
X172127333Y-69908057D01*
X172042666Y-70125771D01*
X171026666Y-70996628D01*
X172127333Y-70996628D01*
X50319936Y-140309742D02*
X50580808Y-140268169D01*
X50964479Y-140089261D01*
X51087277Y-139951925D01*
X51133341Y-139850372D01*
X51148735Y-139683046D01*
X51087395Y-139551502D01*
X50949321Y-139455739D01*
X50841917Y-139425749D01*
X50657778Y-139431540D01*
X50320172Y-139508895D01*
X50136034Y-139514686D01*
X50028630Y-139484696D01*
X49890556Y-139388933D01*
X49829216Y-139257389D01*
X49844610Y-139090064D01*
X49890674Y-138988510D01*
X50013472Y-138851174D01*
X50397142Y-138672266D01*
X50658015Y-138630693D01*
X51164483Y-138314449D02*
X52192223Y-139516754D01*
X52039110Y-138387046D01*
X52806096Y-139230500D01*
X52545696Y-137670379D01*
X53466505Y-137240999D02*
X53619973Y-137169435D01*
X53804111Y-137163644D01*
X53911515Y-137193635D01*
X54049589Y-137289397D01*
X54249003Y-137516703D01*
X54402353Y-137845564D01*
X54448299Y-138144434D01*
X54432905Y-138311759D01*
X54386841Y-138413313D01*
X54264043Y-138550649D01*
X54110575Y-138622212D01*
X53926437Y-138628003D01*
X53819033Y-138598013D01*
X53680959Y-138502250D01*
X53481545Y-138274944D01*
X53328195Y-137946084D01*
X53282249Y-137647214D01*
X53297643Y-137479888D01*
X53343707Y-137378334D01*
X53466505Y-137240999D01*
X55276980Y-137918161D02*
X55384384Y-137948151D01*
X55338320Y-138049705D01*
X55230916Y-138019715D01*
X55276980Y-137918161D01*
X55338320Y-138049705D01*
X54939610Y-137194668D02*
X55047014Y-137224659D01*
X55000950Y-137326212D01*
X54893546Y-137296222D01*
X54939610Y-137194668D01*
X55000950Y-137326212D01*
X55967823Y-136795279D02*
X55783684Y-136801070D01*
X55676280Y-136771080D01*
X55538206Y-136675317D01*
X55507536Y-136609545D01*
X55522930Y-136442219D01*
X55568994Y-136340666D01*
X55691792Y-136203330D01*
X55998729Y-136060203D01*
X56182867Y-136054412D01*
X56290271Y-136084402D01*
X56428345Y-136180165D01*
X56459015Y-136245937D01*
X56443621Y-136413263D01*
X56397557Y-136514816D01*
X56274759Y-136652152D01*
X55967823Y-136795279D01*
X55845024Y-136932614D01*
X55798960Y-137034168D01*
X55783566Y-137201494D01*
X55906246Y-137464582D01*
X56044320Y-137560344D01*
X56151725Y-137590335D01*
X56335863Y-137584543D01*
X56642799Y-137441416D01*
X56765597Y-137304081D01*
X56811661Y-137202527D01*
X56827055Y-137035202D01*
X56704375Y-136772113D01*
X56566301Y-136676351D01*
X56458897Y-136646361D01*
X56274759Y-136652152D01*
X33055556Y-148359002D02*
X33316428Y-148317429D01*
X33700099Y-148138521D01*
X33822897Y-148001185D01*
X33868961Y-147899632D01*
X33884355Y-147732306D01*
X33823015Y-147600762D01*
X33684941Y-147504999D01*
X33577537Y-147475009D01*
X33393398Y-147480800D01*
X33055792Y-147558155D01*
X32871654Y-147563946D01*
X32764250Y-147533956D01*
X32626176Y-147438193D01*
X32564836Y-147306649D01*
X32580230Y-147139324D01*
X32626294Y-147037770D01*
X32749092Y-146900434D01*
X33132762Y-146721526D01*
X33393635Y-146679953D01*
X33900103Y-146363709D02*
X34927843Y-147566014D01*
X34774730Y-146436306D01*
X35541716Y-147279760D01*
X35281316Y-145719639D01*
X36202125Y-145290259D02*
X36355593Y-145218695D01*
X36539731Y-145212904D01*
X36647135Y-145242895D01*
X36785209Y-145338657D01*
X36984623Y-145565963D01*
X37137973Y-145894824D01*
X37183919Y-146193694D01*
X37168525Y-146361019D01*
X37122461Y-146462573D01*
X36999663Y-146599909D01*
X36846195Y-146671472D01*
X36662057Y-146677263D01*
X36554653Y-146647273D01*
X36416579Y-146551510D01*
X36217165Y-146324204D01*
X36063815Y-145995344D01*
X36017869Y-145696474D01*
X36033263Y-145529148D01*
X36079327Y-145427594D01*
X36202125Y-145290259D01*
X38012600Y-145967421D02*
X38120004Y-145997411D01*
X38073940Y-146098965D01*
X37966536Y-146068975D01*
X38012600Y-145967421D01*
X38073940Y-146098965D01*
X37675230Y-145243928D02*
X37782634Y-145273919D01*
X37736570Y-145375472D01*
X37629166Y-145345482D01*
X37675230Y-145243928D01*
X37736570Y-145375472D01*
X38043742Y-144431499D02*
X39118019Y-143930555D01*
X39071483Y-145633803D01*
X48389275Y-183248119D02*
X48650148Y-183206546D01*
X49033818Y-183027638D01*
X49156616Y-182890302D01*
X49202680Y-182788748D01*
X49218074Y-182621423D01*
X49156734Y-182489879D01*
X49018660Y-182394116D01*
X48911256Y-182364126D01*
X48727118Y-182369917D01*
X48389512Y-182447272D01*
X48205373Y-182453063D01*
X48097969Y-182423073D01*
X47959895Y-182327310D01*
X47898555Y-182195766D01*
X47913949Y-182028440D01*
X47960013Y-181926887D01*
X48082811Y-181789551D01*
X48466482Y-181610643D01*
X48727354Y-181569070D01*
X49233822Y-181252826D02*
X50261563Y-182455131D01*
X50108449Y-181325423D01*
X50875435Y-182168877D01*
X50615035Y-180608756D01*
X51535844Y-180179376D02*
X51689312Y-180107812D01*
X51873450Y-180102021D01*
X51980854Y-180132011D01*
X52118929Y-180227774D01*
X52318343Y-180455080D01*
X52471693Y-180783941D01*
X52517639Y-181082810D01*
X52502245Y-181250136D01*
X52456181Y-181351690D01*
X52333382Y-181489025D01*
X52179914Y-181560589D01*
X51995776Y-181566380D01*
X51888372Y-181536390D01*
X51750298Y-181440627D01*
X51550884Y-181213321D01*
X51397534Y-180884460D01*
X51351588Y-180585591D01*
X51366982Y-180418265D01*
X51413046Y-180316711D01*
X51535844Y-180179376D01*
X53346319Y-180856538D02*
X53453723Y-180886528D01*
X53407659Y-180988082D01*
X53300255Y-180958091D01*
X53346319Y-180856538D01*
X53407659Y-180988082D01*
X53008949Y-180133045D02*
X53116353Y-180163036D01*
X53070289Y-180264589D01*
X52962885Y-180234599D01*
X53008949Y-180133045D01*
X53070289Y-180264589D01*
X55019075Y-180236667D02*
X54098266Y-180666047D01*
X54558670Y-180451357D02*
X53914600Y-179070144D01*
X53853142Y-179339023D01*
X53761014Y-179542131D01*
X53638216Y-179679466D01*
X55050217Y-178700744D02*
X55096281Y-178599190D01*
X55219079Y-178461855D01*
X55602749Y-178282947D01*
X55786887Y-178277155D01*
X55894291Y-178307146D01*
X56032366Y-178402908D01*
X56093706Y-178534452D01*
X56108982Y-178767550D01*
X55556213Y-179986195D01*
X56553756Y-179521033D01*
X41104816Y-165623382D02*
X41365688Y-165581809D01*
X41749359Y-165402901D01*
X41872157Y-165265565D01*
X41918221Y-165164012D01*
X41933615Y-164996686D01*
X41872275Y-164865142D01*
X41734201Y-164769379D01*
X41626797Y-164739389D01*
X41442658Y-164745180D01*
X41105052Y-164822535D01*
X40920914Y-164828326D01*
X40813510Y-164798336D01*
X40675436Y-164702573D01*
X40614096Y-164571029D01*
X40629490Y-164403704D01*
X40675554Y-164302150D01*
X40798352Y-164164814D01*
X41182022Y-163985906D01*
X41442895Y-163944333D01*
X41949363Y-163628089D02*
X42977103Y-164830394D01*
X42823990Y-163700686D01*
X43590976Y-164544140D01*
X43330576Y-162984019D01*
X44251385Y-162554639D02*
X44404853Y-162483075D01*
X44588991Y-162477284D01*
X44696395Y-162507275D01*
X44834469Y-162603037D01*
X45033883Y-162830343D01*
X45187233Y-163159204D01*
X45233179Y-163458074D01*
X45217785Y-163625399D01*
X45171721Y-163726953D01*
X45048923Y-163864289D01*
X44895455Y-163935852D01*
X44711317Y-163941643D01*
X44603913Y-163911653D01*
X44465839Y-163815890D01*
X44266425Y-163588584D01*
X44113075Y-163259724D01*
X44067129Y-162960854D01*
X44082523Y-162793528D01*
X44128587Y-162691974D01*
X44251385Y-162554639D01*
X46061860Y-163231801D02*
X46169264Y-163261791D01*
X46123200Y-163363345D01*
X46015796Y-163333355D01*
X46061860Y-163231801D01*
X46123200Y-163363345D01*
X45724490Y-162508308D02*
X45831894Y-162538299D01*
X45785830Y-162639852D01*
X45678426Y-162609862D01*
X45724490Y-162508308D01*
X45785830Y-162639852D01*
X46967275Y-162969747D02*
X47274211Y-162826620D01*
X47397009Y-162689284D01*
X47443073Y-162587731D01*
X47504531Y-162318851D01*
X47458585Y-162019981D01*
X47213225Y-161493805D01*
X47075151Y-161398042D01*
X46967747Y-161368052D01*
X46783609Y-161373843D01*
X46476672Y-161516970D01*
X46353874Y-161654306D01*
X46307810Y-161755859D01*
X46292416Y-161923185D01*
X46445766Y-162252045D01*
X46583840Y-162347808D01*
X46691244Y-162377798D01*
X46875383Y-162372007D01*
X47182319Y-162228880D01*
X47305117Y-162091545D01*
X47351181Y-161989991D01*
X47366575Y-161822665D01*
X87799333Y-88066517D02*
X88053333Y-88139088D01*
X88476666Y-88139088D01*
X88646000Y-88066517D01*
X88730666Y-87993945D01*
X88815333Y-87848802D01*
X88815333Y-87703660D01*
X88730666Y-87558517D01*
X88646000Y-87485945D01*
X88476666Y-87413374D01*
X88138000Y-87340802D01*
X87968666Y-87268231D01*
X87884000Y-87195660D01*
X87799333Y-87050517D01*
X87799333Y-86905374D01*
X87884000Y-86760231D01*
X87968666Y-86687660D01*
X88138000Y-86615088D01*
X88561333Y-86615088D01*
X88815333Y-86687660D01*
X89408000Y-86615088D02*
X89831333Y-88139088D01*
X90170000Y-87050517D01*
X90508666Y-88139088D01*
X90932000Y-86615088D01*
X92371333Y-87123088D02*
X92371333Y-88139088D01*
X91948000Y-86542517D02*
X91524666Y-87631088D01*
X92625333Y-87631088D01*
X93302666Y-87993945D02*
X93387333Y-88066517D01*
X93302666Y-88139088D01*
X93218000Y-88066517D01*
X93302666Y-87993945D01*
X93302666Y-88139088D01*
X93302666Y-87195660D02*
X93387333Y-87268231D01*
X93302666Y-87340802D01*
X93218000Y-87268231D01*
X93302666Y-87195660D01*
X93302666Y-87340802D01*
X94403333Y-87268231D02*
X94234000Y-87195660D01*
X94149333Y-87123088D01*
X94064666Y-86977945D01*
X94064666Y-86905374D01*
X94149333Y-86760231D01*
X94234000Y-86687660D01*
X94403333Y-86615088D01*
X94742000Y-86615088D01*
X94911333Y-86687660D01*
X94996000Y-86760231D01*
X95080666Y-86905374D01*
X95080666Y-86977945D01*
X94996000Y-87123088D01*
X94911333Y-87195660D01*
X94742000Y-87268231D01*
X94403333Y-87268231D01*
X94234000Y-87340802D01*
X94149333Y-87413374D01*
X94064666Y-87558517D01*
X94064666Y-87848802D01*
X94149333Y-87993945D01*
X94234000Y-88066517D01*
X94403333Y-88139088D01*
X94742000Y-88139088D01*
X94911333Y-88066517D01*
X94996000Y-87993945D01*
X95080666Y-87848802D01*
X95080666Y-87558517D01*
X94996000Y-87413374D01*
X94911333Y-87340802D01*
X94742000Y-87268231D01*
X182202666Y-147121517D02*
X182456666Y-147194088D01*
X182880000Y-147194088D01*
X183049333Y-147121517D01*
X183134000Y-147048945D01*
X183218666Y-146903802D01*
X183218666Y-146758660D01*
X183134000Y-146613517D01*
X183049333Y-146540945D01*
X182880000Y-146468374D01*
X182541333Y-146395802D01*
X182372000Y-146323231D01*
X182287333Y-146250660D01*
X182202666Y-146105517D01*
X182202666Y-145960374D01*
X182287333Y-145815231D01*
X182372000Y-145742660D01*
X182541333Y-145670088D01*
X182964666Y-145670088D01*
X183218666Y-145742660D01*
X183811333Y-145670088D02*
X184234666Y-147194088D01*
X184573333Y-146105517D01*
X184912000Y-147194088D01*
X185335333Y-145670088D01*
X186944000Y-147194088D02*
X185928000Y-147194088D01*
X186436000Y-147194088D02*
X186436000Y-145670088D01*
X186266666Y-145887802D01*
X186097333Y-146032945D01*
X185928000Y-146105517D01*
X187706000Y-147048945D02*
X187790666Y-147121517D01*
X187706000Y-147194088D01*
X187621333Y-147121517D01*
X187706000Y-147048945D01*
X187706000Y-147194088D01*
X187706000Y-146250660D02*
X187790666Y-146323231D01*
X187706000Y-146395802D01*
X187621333Y-146323231D01*
X187706000Y-146250660D01*
X187706000Y-146395802D01*
X189484000Y-147194088D02*
X188468000Y-147194088D01*
X188976000Y-147194088D02*
X188976000Y-145670088D01*
X188806666Y-145887802D01*
X188637333Y-146032945D01*
X188468000Y-146105517D01*
X190076666Y-145670088D02*
X191177333Y-145670088D01*
X190584666Y-146250660D01*
X190838666Y-146250660D01*
X191008000Y-146323231D01*
X191092666Y-146395802D01*
X191177333Y-146540945D01*
X191177333Y-146903802D01*
X191092666Y-147048945D01*
X191008000Y-147121517D01*
X190838666Y-147194088D01*
X190330666Y-147194088D01*
X190161333Y-147121517D01*
X190076666Y-147048945D01*
X76308857Y-121125826D02*
X76381428Y-120871826D01*
X76381428Y-120448493D01*
X76308857Y-120279160D01*
X76236285Y-120194493D01*
X76091142Y-120109826D01*
X75946000Y-120109826D01*
X75800857Y-120194493D01*
X75728285Y-120279160D01*
X75655714Y-120448493D01*
X75583142Y-120787160D01*
X75510571Y-120956493D01*
X75438000Y-121041160D01*
X75292857Y-121125826D01*
X75147714Y-121125826D01*
X75002571Y-121041160D01*
X74930000Y-120956493D01*
X74857428Y-120787160D01*
X74857428Y-120363826D01*
X74930000Y-120109826D01*
X74857428Y-119517160D02*
X76381428Y-119093826D01*
X75292857Y-118755160D01*
X76381428Y-118416493D01*
X74857428Y-117993160D01*
X75002571Y-117400493D02*
X74930000Y-117315826D01*
X74857428Y-117146493D01*
X74857428Y-116723160D01*
X74930000Y-116553826D01*
X75002571Y-116469160D01*
X75147714Y-116384493D01*
X75292857Y-116384493D01*
X75510571Y-116469160D01*
X76381428Y-117485160D01*
X76381428Y-116384493D01*
X76236285Y-115622493D02*
X76308857Y-115537826D01*
X76381428Y-115622493D01*
X76308857Y-115707160D01*
X76236285Y-115622493D01*
X76381428Y-115622493D01*
X75438000Y-115622493D02*
X75510571Y-115537826D01*
X75583142Y-115622493D01*
X75510571Y-115707160D01*
X75438000Y-115622493D01*
X75583142Y-115622493D01*
X74857428Y-114945160D02*
X74857428Y-113759826D01*
X76381428Y-114521826D01*
X76308857Y-92550826D02*
X76381428Y-92296826D01*
X76381428Y-91873493D01*
X76308857Y-91704160D01*
X76236285Y-91619493D01*
X76091142Y-91534826D01*
X75946000Y-91534826D01*
X75800857Y-91619493D01*
X75728285Y-91704160D01*
X75655714Y-91873493D01*
X75583142Y-92212160D01*
X75510571Y-92381493D01*
X75438000Y-92466160D01*
X75292857Y-92550826D01*
X75147714Y-92550826D01*
X75002571Y-92466160D01*
X74930000Y-92381493D01*
X74857428Y-92212160D01*
X74857428Y-91788826D01*
X74930000Y-91534826D01*
X74857428Y-90942160D02*
X76381428Y-90518826D01*
X75292857Y-90180160D01*
X76381428Y-89841493D01*
X74857428Y-89418160D01*
X75365428Y-87978826D02*
X76381428Y-87978826D01*
X74784857Y-88402160D02*
X75873428Y-88825493D01*
X75873428Y-87724826D01*
X76236285Y-87047493D02*
X76308857Y-86962826D01*
X76381428Y-87047493D01*
X76308857Y-87132160D01*
X76236285Y-87047493D01*
X76381428Y-87047493D01*
X75438000Y-87047493D02*
X75510571Y-86962826D01*
X75583142Y-87047493D01*
X75510571Y-87132160D01*
X75438000Y-87047493D01*
X75583142Y-87047493D01*
X74857428Y-86370160D02*
X74857428Y-85184826D01*
X76381428Y-85946826D01*
X68749333Y-69019057D02*
X69003333Y-69091628D01*
X69426666Y-69091628D01*
X69596000Y-69019057D01*
X69680666Y-68946485D01*
X69765333Y-68801342D01*
X69765333Y-68656200D01*
X69680666Y-68511057D01*
X69596000Y-68438485D01*
X69426666Y-68365914D01*
X69088000Y-68293342D01*
X68918666Y-68220771D01*
X68834000Y-68148200D01*
X68749333Y-68003057D01*
X68749333Y-67857914D01*
X68834000Y-67712771D01*
X68918666Y-67640200D01*
X69088000Y-67567628D01*
X69511333Y-67567628D01*
X69765333Y-67640200D01*
X70358000Y-67567628D02*
X70781333Y-69091628D01*
X71120000Y-68003057D01*
X71458666Y-69091628D01*
X71882000Y-67567628D01*
X73406000Y-67567628D02*
X72559333Y-67567628D01*
X72474666Y-68293342D01*
X72559333Y-68220771D01*
X72728666Y-68148200D01*
X73152000Y-68148200D01*
X73321333Y-68220771D01*
X73406000Y-68293342D01*
X73490666Y-68438485D01*
X73490666Y-68801342D01*
X73406000Y-68946485D01*
X73321333Y-69019057D01*
X73152000Y-69091628D01*
X72728666Y-69091628D01*
X72559333Y-69019057D01*
X72474666Y-68946485D01*
X74252666Y-68946485D02*
X74337333Y-69019057D01*
X74252666Y-69091628D01*
X74168000Y-69019057D01*
X74252666Y-68946485D01*
X74252666Y-69091628D01*
X74252666Y-68148200D02*
X74337333Y-68220771D01*
X74252666Y-68293342D01*
X74168000Y-68220771D01*
X74252666Y-68148200D01*
X74252666Y-68293342D01*
X74930000Y-67567628D02*
X76115333Y-67567628D01*
X75353333Y-69091628D01*
X163152666Y-109021517D02*
X163406666Y-109094088D01*
X163830000Y-109094088D01*
X163999333Y-109021517D01*
X164084000Y-108948945D01*
X164168666Y-108803802D01*
X164168666Y-108658660D01*
X164084000Y-108513517D01*
X163999333Y-108440945D01*
X163830000Y-108368374D01*
X163491333Y-108295802D01*
X163322000Y-108223231D01*
X163237333Y-108150660D01*
X163152666Y-108005517D01*
X163152666Y-107860374D01*
X163237333Y-107715231D01*
X163322000Y-107642660D01*
X163491333Y-107570088D01*
X163914666Y-107570088D01*
X164168666Y-107642660D01*
X164761333Y-107570088D02*
X165184666Y-109094088D01*
X165523333Y-108005517D01*
X165862000Y-109094088D01*
X166285333Y-107570088D01*
X166793333Y-107570088D02*
X167894000Y-107570088D01*
X167301333Y-108150660D01*
X167555333Y-108150660D01*
X167724666Y-108223231D01*
X167809333Y-108295802D01*
X167894000Y-108440945D01*
X167894000Y-108803802D01*
X167809333Y-108948945D01*
X167724666Y-109021517D01*
X167555333Y-109094088D01*
X167047333Y-109094088D01*
X166878000Y-109021517D01*
X166793333Y-108948945D01*
X168656000Y-108948945D02*
X168740666Y-109021517D01*
X168656000Y-109094088D01*
X168571333Y-109021517D01*
X168656000Y-108948945D01*
X168656000Y-109094088D01*
X168656000Y-108150660D02*
X168740666Y-108223231D01*
X168656000Y-108295802D01*
X168571333Y-108223231D01*
X168656000Y-108150660D01*
X168656000Y-108295802D01*
X170434000Y-109094088D02*
X169418000Y-109094088D01*
X169926000Y-109094088D02*
X169926000Y-107570088D01*
X169756666Y-107787802D01*
X169587333Y-107932945D01*
X169418000Y-108005517D01*
X171111333Y-107715231D02*
X171196000Y-107642660D01*
X171365333Y-107570088D01*
X171788666Y-107570088D01*
X171958000Y-107642660D01*
X172042666Y-107715231D01*
X172127333Y-107860374D01*
X172127333Y-108005517D01*
X172042666Y-108223231D01*
X171026666Y-109094088D01*
X172127333Y-109094088D01*
M02*
