M48
; DRILL file {KiCad 5.1.6-c6e7f7d~87~ubuntu20.04.1} date Sun Aug  2 23:19:51 2020
; FORMAT={-:-/ absolute / inch / decimal}
; #@! TF.CreationDate,2020-08-02T23:19:51+02:00
; #@! TF.GenerationSoftware,Kicad,Pcbnew,5.1.6-c6e7f7d~87~ubuntu20.04.1
; #@! TF.FileFunction,Plated,1,2,PTH
FMAT,2
INCH
T1C0.0197
T2C0.0200
T3C0.0236
T4C0.0390
T5C0.0394
T6C0.0590
T7C0.0670
T8C0.1570
%
G90
G05
T1
X5.4594Y-5.2787
X6.978Y-5.2201
X3.9957Y-5.0969
X7.7Y-1.6
X7.7Y-1.6492
X7.7Y-1.6984
X7.7Y-1.7476
X2.3571Y-6.7654
X4.722Y-5.2756
X3.9445Y-2.3043
X6.2122Y-5.2169
X5.4626Y-2.5354
T2
X2.8031Y-1.3307
X3.0394Y-1.8898
X3.0472Y-1.8189
X3.0551Y-1.3307
X3.0551Y-1.4409
X3.0591Y-1.5551
X3.2598Y-1.8701
X3.2795Y-1.3346
X3.3031Y-1.8386
X3.311Y-2.2205
X3.3504Y-1.8228
X3.3937Y-1.7677
X3.437Y-2.0354
X3.4409Y-2.1181
X3.4882Y-1.9476
X3.5472Y-1.5236
X3.563Y-2.0157
X3.5945Y-1.7717
X3.6417Y-1.5945
X3.6417Y-1.7913
X3.6535Y-1.6654
X3.6918Y-1.5894
X3.7047Y-1.4173
X3.7165Y-2.0945
X3.7677Y-1.9409
X3.7717Y-1.8543
X3.7953Y-1.6614
X3.811Y-1.9449
X3.815Y-1.5906
X3.8228Y-1.4724
X3.8425Y-1.8228
X3.8701Y-1.9882
X3.8799Y-1.4469
X3.8858Y-1.6614
X3.8976Y-2.0079
X3.8976Y-2.2795
X3.9134Y-1.5984
X3.9291Y-1.878
X3.9449Y-1.6378
X3.9528Y-1.5866
X3.9567Y-1.9409
X4.0315Y-1.7165
X4.0394Y-2.1181
X4.0551Y-1.5276
X4.0669Y-1.7283
X4.0748Y-2.1417
X4.1142Y-2.1024
X4.1147Y-1.9611
X4.185Y-1.3307
X4.1967Y-2.1326
X4.2087Y-1.815
X4.2205Y-2.1077
X4.2756Y-2.1535
X4.3083Y-2.0395
X4.3268Y-1.7677
X4.3661Y-1.7205
X4.378Y-1.7717
X4.5039Y-1.6575
X4.7205Y-2.1102
X4.8622Y-1.3583
X5.2835Y-1.4843
X5.4419Y-2.104
X5.4961Y-2.0748
X6.0079Y-1.9331
X6.0945Y-1.9567
X6.1929Y-2.0039
X7.2677Y-1.9094
X7.2677Y-1.9528
X7.3425Y-1.9528
X7.3425Y-2.0512
X7.3543Y-1.6496
X7.3819Y-1.9685
X7.4724Y-2.1535
X7.6378Y-1.9961
X7.8307Y-1.7205
X7.8307Y-1.9961
T4
X5.7Y-2.7129
X5.7Y-2.8129
X6.0Y-2.7129
X6.0Y-2.8129
X7.3875Y-3.5879
X7.3875Y-3.6879
X7.6875Y-3.5879
X7.6875Y-3.6879
X3.45Y-5.0129
X3.45Y-5.1129
X3.75Y-5.0129
X3.75Y-5.1129
X7.3875Y-4.3379
X7.3875Y-4.4379
X7.6875Y-4.3379
X7.6875Y-4.4379
X4.95Y-5.65
X4.95Y-5.75
X5.25Y-5.65
X5.25Y-5.75
X4.95Y-4.9
X4.95Y-5.0
X5.25Y-4.9
X5.25Y-5.0
X4.2Y-4.9629
X4.2Y-5.0629
X4.5Y-4.9629
X4.5Y-5.0629
X2.1001Y-5.7948
X2.3719Y-5.668
X3.05Y-3.3504
X3.05Y-3.6504
X3.15Y-3.3504
X3.15Y-3.6504
X3.45Y-3.5129
X3.45Y-3.6129
X3.75Y-3.5129
X3.75Y-3.6129
X7.2Y-5.8379
X7.2Y-5.9379
X7.5Y-5.8379
X7.5Y-5.9379
X3.3188Y-5.8057
X3.4094Y-5.7635
X3.4456Y-6.0776
X3.5362Y-6.0354
X4.95Y-3.4
X4.95Y-3.5
X5.25Y-3.4
X5.25Y-3.5
X5.7Y-5.7129
X5.7Y-5.8129
X6.0Y-5.7129
X6.0Y-5.8129
X4.95Y-4.15
X4.95Y-4.25
X5.25Y-4.15
X5.25Y-4.25
X4.2Y-4.2129
X4.2Y-4.3129
X4.5Y-4.2129
X4.5Y-4.3129
X6.45Y-4.3379
X6.45Y-4.4379
X6.75Y-4.3379
X6.75Y-4.4379
X6.45Y-3.5879
X6.45Y-3.6879
X6.75Y-3.5879
X6.75Y-3.6879
X2.7Y-2.763
X2.7Y-2.863
X3.0Y-2.763
X3.0Y-2.863
X3.05Y-4.4754
X3.05Y-4.7754
X3.15Y-4.4754
X3.15Y-4.7754
X5.7Y-4.9629
X5.7Y-5.0629
X6.0Y-4.9629
X6.0Y-5.0629
X4.2Y-3.4629
X4.2Y-3.5629
X4.5Y-3.4629
X4.5Y-3.5629
X1.3147Y-5.8852
X1.3569Y-5.9758
X1.5866Y-5.7584
X1.6288Y-5.849
X3.45Y-4.2629
X3.45Y-4.3629
X3.75Y-4.2629
X3.75Y-4.3629
X1.9944Y-5.5683
X2.0366Y-5.6589
X2.2663Y-5.4415
X2.3085Y-5.5321
X5.7Y-3.4629
X5.7Y-3.5629
X6.0Y-3.4629
X6.0Y-3.5629
X6.45Y-2.838
X6.45Y-2.938
X6.75Y-2.838
X6.75Y-2.938
X4.2Y-2.7129
X4.2Y-2.8129
X4.5Y-2.7129
X4.5Y-2.8129
X2.7798Y-5.4778
X3.0516Y-5.351
X6.45Y-5.8379
X6.45Y-5.9379
X6.75Y-5.8379
X6.75Y-5.9379
X1.9486Y-7.2447
X1.9908Y-7.3353
X2.2205Y-7.1179
X2.2627Y-7.2085
X6.45Y-5.0879
X6.45Y-5.1879
X6.75Y-5.0879
X6.75Y-5.1879
X4.2Y-5.7129
X4.2Y-5.8129
X4.5Y-5.7129
X4.5Y-5.8129
X4.95Y-2.65
X4.95Y-2.75
X5.25Y-2.65
X5.25Y-2.75
X3.45Y-2.763
X3.45Y-2.863
X3.75Y-2.763
X3.75Y-2.863
X7.3875Y-5.0879
X7.3875Y-5.1879
X7.6875Y-5.0879
X7.6875Y-5.1879
X5.7Y-4.2129
X5.7Y-4.3129
X6.0Y-4.2129
X6.0Y-4.3129
X2.6391Y-6.1227
X2.7297Y-6.0805
X2.7659Y-6.3946
X2.8565Y-6.3524
X7.3875Y-2.838
X7.3875Y-2.938
X7.6875Y-2.838
X7.6875Y-2.938
X1.6316Y-6.5649
X1.6738Y-6.6555
X1.9035Y-6.4381
X1.9457Y-6.5287
T5
X5.2756Y-1.3976
X5.3756Y-1.3976
X5.4756Y-1.3976
X5.5756Y-1.3976
X7.45Y-1.5
X7.45Y-1.6
X7.45Y-1.7
X7.45Y-1.8
X7.55Y-1.5
X7.55Y-1.6
X7.55Y-1.7
X7.55Y-1.8
T6
X4.95Y-3.1
X5.0Y-3.0
X5.2Y-3.0
X5.25Y-3.1
X5.7Y-5.4129
X5.75Y-5.3129
X5.95Y-5.3129
X6.0Y-5.4129
X4.95Y-3.85
X5.0Y-3.75
X5.2Y-3.75
X5.25Y-3.85
X4.2Y-3.9129
X4.25Y-3.8129
X4.45Y-3.8129
X4.5Y-3.9129
X3.2658Y-6.5201
X3.3534Y-6.5896
X3.5347Y-6.5051
X3.5377Y-6.3933
X6.45Y-4.0379
X6.5Y-3.9379
X6.7Y-3.9379
X6.75Y-4.0379
X6.45Y-3.2879
X6.5Y-3.1879
X6.7Y-3.1879
X6.75Y-3.2879
X2.7Y-2.463
X2.75Y-2.363
X2.95Y-2.363
X3.0Y-2.463
X2.586Y-6.837
X2.6736Y-6.9065
X2.8549Y-6.822
X2.8579Y-6.7102
X2.65Y-4.5254
X2.65Y-4.7254
X2.75Y-4.4754
X2.75Y-4.7754
X5.7Y-4.6629
X5.75Y-4.5629
X5.95Y-4.5629
X6.0Y-4.6629
X4.2Y-3.1629
X4.25Y-3.0629
X4.45Y-3.0629
X4.5Y-3.1629
X1.1879Y-5.6133
X1.1909Y-5.5015
X1.3722Y-5.417
X1.4598Y-5.4865
X3.45Y-3.9629
X3.5Y-3.8629
X3.7Y-3.8629
X3.75Y-3.9629
X1.8676Y-5.2964
X1.8706Y-5.1846
X2.0519Y-5.1001
X2.1395Y-5.1696
X5.7Y-3.1629
X5.75Y-3.0629
X5.95Y-3.0629
X6.0Y-3.1629
X6.45Y-2.538
X6.5Y-2.438
X6.7Y-2.438
X6.75Y-2.538
X4.2Y-2.4129
X4.25Y-2.3129
X4.45Y-2.3129
X4.5Y-2.4129
X6.45Y-5.5379
X6.5Y-5.4379
X6.7Y-5.4379
X6.75Y-5.5379
X1.8218Y-6.9728
X1.8248Y-6.861
X2.0061Y-6.7765
X2.0937Y-6.846
X2.1846Y-5.9761
X2.1876Y-5.8643
X2.3689Y-5.7798
X2.4565Y-5.8493
X6.45Y-4.7879
X6.5Y-4.6879
X6.7Y-4.6879
X6.75Y-4.7879
X4.2Y-5.4129
X4.25Y-5.3129
X4.45Y-5.3129
X4.5Y-5.4129
X4.95Y-2.35
X5.0Y-2.25
X5.2Y-2.25
X5.25Y-2.35
X3.45Y-2.463
X3.5Y-2.363
X3.7Y-2.363
X3.75Y-2.463
X7.15Y-4.7879
X7.15Y-4.9879
X7.25Y-4.7379
X7.25Y-5.0379
X7.3875Y-4.7879
X7.4375Y-4.6879
X7.6375Y-4.6879
X7.6875Y-4.7879
X5.7Y-3.9129
X5.75Y-3.8129
X5.95Y-3.8129
X6.0Y-3.9129
X2.2977Y-6.3371
X2.3672Y-6.2495
X2.3822Y-6.5184
X2.494Y-6.5214
X7.15Y-2.538
X7.15Y-2.738
X7.25Y-2.488
X7.25Y-2.788
X7.3875Y-2.538
X7.4375Y-2.438
X7.6375Y-2.438
X7.6875Y-2.538
X1.5048Y-6.293
X1.5078Y-6.1812
X1.6891Y-6.0967
X1.7767Y-6.1662
X5.7Y-2.4129
X5.75Y-2.3129
X5.95Y-2.3129
X6.0Y-2.4129
X7.15Y-3.2879
X7.15Y-3.4879
X7.25Y-3.2379
X7.25Y-3.5379
X7.3875Y-3.2879
X7.4375Y-3.1879
X7.6375Y-3.1879
X7.6875Y-3.2879
X3.45Y-4.7129
X3.5Y-4.6129
X3.7Y-4.6129
X3.75Y-4.7129
X7.15Y-4.0379
X7.15Y-4.2379
X7.25Y-3.9879
X7.25Y-4.2879
X7.3875Y-4.0379
X7.4375Y-3.9379
X7.6375Y-3.9379
X7.6875Y-4.0379
X4.95Y-5.35
X5.0Y-5.25
X5.2Y-5.25
X5.25Y-5.35
X2.8643Y-5.6591
X2.8673Y-5.5473
X3.0486Y-5.4628
X3.1362Y-5.5323
X4.95Y-4.6
X5.0Y-4.5
X5.2Y-4.5
X5.25Y-4.6
X4.2Y-4.6629
X4.25Y-4.5629
X4.45Y-4.5629
X4.5Y-4.6629
X2.65Y-3.4004
X2.65Y-3.6004
X2.75Y-3.3504
X2.75Y-3.6504
X3.45Y-3.2129
X3.5Y-3.1129
X3.7Y-3.1129
X3.75Y-3.2129
X7.2Y-5.5379
X7.25Y-5.4379
X7.45Y-5.4379
X7.5Y-5.5379
X2.9774Y-6.0201
X3.0469Y-5.9325
X3.0619Y-6.2014
X3.1737Y-6.2044
T7
X7.35Y-4.6879
X7.35Y-5.0879
X7.35Y-2.438
X7.35Y-2.838
X7.35Y-3.1879
X7.35Y-3.5879
X7.35Y-3.9379
X7.35Y-4.3379
T3
G00X3.6417Y-1.3504
M15
G01X3.6417Y-1.3268
M16
G05
G00X3.6417Y-1.5248
M15
G01X3.6417Y-1.4815
M16
G05
G00X3.9819Y-1.3504
M15
G01X3.9819Y-1.3268
M16
G05
G00X3.9819Y-1.5248
M15
G01X3.9819Y-1.4815
M16
G05
G00X3.6417Y-1.3268
M15
G01X3.6417Y-1.3504
M16
G05
G00X3.6417Y-1.4815
M15
G01X3.6417Y-1.5248
M16
G05
G00X3.9819Y-1.3268
M15
G01X3.9819Y-1.3504
M16
G05
G00X3.9819Y-1.4815
M15
G01X3.9819Y-1.5248
M16
G05
T8
G00X7.3499Y-4.8879
M15
G01X7.5374Y-4.8879
M16
G05
G00X7.3499Y-2.638
M15
G01X7.5374Y-2.638
M16
G05
G00X7.3499Y-3.3879
M15
G01X7.5374Y-3.3879
M16
G05
G00X7.3499Y-4.1379
M15
G01X7.5374Y-4.1379
M16
G05
T0
M30
